Georama-Medium.ufo
<glyph name="exclam" format="2">
  <advance width="234.276"/>
  <unicode hex="0021"/>
  <outline>
    <contour>
      <point x="70.58800000000001" y="261.85" type="line"/>
      <point x="164.376" y="261.85" type="line"/>
      <point x="171.944" y="740.0" type="line"/>
      <point x="63.79400000000001" y="740.0" type="line"/>
    </contour>
    <contour>
      <point x="56.443999999999996" y="55.012" type="curve" smooth="yes"/>
      <point x="56.443999999999996" y="12.867999999999999"/>
      <point x="72.206" y="-4.4719999999999995"/>
      <point x="117.138" y="-4.4719999999999995" type="curve" smooth="yes"/>
      <point x="162.64000000000001" y="-4.4719999999999995"/>
      <point x="177.832" y="12.867999999999999"/>
      <point x="177.832" y="55.012" type="curve" smooth="yes"/>
      <point x="177.832" y="97.586"/>
      <point x="162.64000000000001" y="114.926"/>
      <point x="117.138" y="114.926" type="curve" smooth="yes"/>
      <point x="71.636" y="114.926"/>
      <point x="56.443999999999996" y="97.586"/>
    </contour>
  </outline>
</glyph>
<glyph name="numbersign" format="2">
  <advance width="610.212"/>
  <unicode hex="0023"/>
  <outline>
    <contour>
      <point x="79.10400000000001" y="445.74399999999997" type="line"/>
      <point x="164.772" y="445.74399999999997" type="line"/>
      <point x="130.936" y="249.17399999999998" type="line"/>
      <point x="49.138000000000005" y="249.17399999999998" type="line"/>
      <point x="49.138000000000005" y="169.34400000000002" type="line"/>
      <point x="120.28399999999999" y="169.34400000000002" type="line"/>
      <point x="93.426" y="0.0" type="line"/>
      <point x="190.39600000000002" y="0.0" type="line"/>
      <point x="217.25400000000002" y="169.34400000000002" type="line"/>
      <point x="339.33200000000005" y="169.34400000000002" type="line"/>
      <point x="312.474" y="0.0" type="line"/>
      <point x="409.444" y="0.0" type="line"/>
      <point x="436.302" y="169.34400000000002" type="line"/>
      <point x="531.2800000000001" y="169.34400000000002" type="line"/>
      <point x="531.2800000000001" y="249.17399999999998" type="line"/>
      <point x="446.95399999999995" y="249.17399999999998" type="line"/>
      <point x="480.78999999999996" y="445.74399999999997" type="line"/>
      <point x="561.2460000000001" y="445.74399999999997" type="line"/>
      <point x="561.2460000000001" y="525.746" type="line"/>
      <point x="491.384" y="525.746" type="line"/>
      <point x="519.696" y="700.0" type="line"/>
      <point x="422.726" y="700.0" type="line"/>
      <point x="394.41400000000004" y="525.746" type="line"/>
      <point x="272.336" y="525.746" type="line"/>
      <point x="300.64799999999997" y="700.0" type="line"/>
      <point x="203.678" y="700.0" type="line"/>
      <point x="175.366" y="525.746" type="line"/>
      <point x="79.10400000000001" y="525.746" type="line"/>
    </contour>
    <contour>
      <point x="261.742" y="445.74399999999997" type="line"/>
      <point x="383.82" y="445.74399999999997" type="line"/>
      <point x="349.984" y="249.17399999999998" type="line"/>
      <point x="227.906" y="249.17399999999998" type="line"/>
    </contour>
  </outline>
</glyph>
<glyph name="dollar" format="2">
  <advance width="610.212"/>
  <unicode hex="0024"/>
  <outline>
    <contour>
      <point x="284.138" y="-10.0" type="curve" smooth="yes"/>
      <point x="449.862" y="-12.064"/>
      <point x="557.438" y="44.34"/>
      <point x="557.438" y="176.78799999999998" type="curve" smooth="yes"/>
      <point x="557.438" y="295.28"/>
      <point x="474.26800000000003" y="348.43399999999997"/>
      <point x="358.44200000000006" y="391.346" type="curve" smooth="yes"/>
      <point x="252.282" y="430.336"/>
      <point x="183.854" y="461.18600000000004"/>
      <point x="183.854" y="530.714" type="curve" smooth="yes"/>
      <point x="183.854" y="587.624"/>
      <point x="234.02599999999998" y="617.2399999999999"/>
      <point x="325.914" y="617.2399999999999" type="curve" smooth="yes"/>
      <point x="384.66400000000004" y="617.2399999999999"/>
      <point x="455.718" y="606.0119999999998"/>
      <point x="506.5" y="589.1499999999999" type="curve"/>
      <point x="527.2880000000001" y="678.044" type="line"/>
      <point x="472.466" y="696.85"/>
      <point x="393.086" y="710.0"/>
      <point x="321.14000000000004" y="710.0" type="curve" smooth="yes"/>
      <point x="167.342" y="709.5440000000001"/>
      <point x="75.132" y="645.692"/>
      <point x="75.132" y="524.8660000000001" type="curve" smooth="yes"/>
      <point x="75.132" y="409.5299999999999"/>
      <point x="151.838" y="354.46799999999996"/>
      <point x="256.798" y="311.72999999999996" type="curve" smooth="yes"/>
      <point x="370.98599999999993" y="268.87199999999996"/>
      <point x="448.77200000000005" y="238.244"/>
      <point x="448.77200000000005" y="168.796" type="curve" smooth="yes"/>
      <point x="448.77200000000005" y="110.54800000000002"/>
      <point x="398.618" y="80.178"/>
      <point x="299.15200000000004" y="80.178" type="curve" smooth="yes"/>
      <point x="232.55800000000002" y="80.178"/>
      <point x="145.122" y="95.438"/>
      <point x="73.994" y="119.82200000000002" type="curve"/>
      <point x="53.118" y="31.362" type="line"/>
      <point x="117.56400000000001" y="7.524000000000001"/>
      <point x="209.522" y="-9.312000000000001"/>
    </contour>
    <contour>
      <point x="270.842" y="-105.0" type="line"/>
      <point x="358.524" y="-105.0" type="line"/>
      <point x="358.524" y="7.63" type="line"/>
      <point x="270.842" y="1.7919999999999998" type="line"/>
    </contour>
    <contour>
      <point x="270.842" y="693.6519999999999" type="line"/>
      <point x="358.524" y="698.808" type="line"/>
      <point x="358.524" y="804.484" type="line"/>
      <point x="270.842" y="804.484" type="line"/>
    </contour>
  </outline>
</glyph>
<glyph name="ampersand" format="2">
  <advance width="675.548"/>
  <unicode hex="0026"/>
  <outline>
    <contour>
      <point x="547.4119999999999" y="-7.008000000000001" type="line"/>
      <point x="672.464" y="0.08400000000000007" type="line"/>
      <point x="274.66400000000004" y="418.50800000000004" type="line" smooth="yes"/>
      <point x="233.712" y="462.65599999999995"/>
      <point x="218.78799999999998" y="497.89599999999996"/>
      <point x="218.78799999999998" y="534.248" type="curve" smooth="yes"/>
      <point x="218.78799999999998" y="591.2319999999999"/>
      <point x="252.78400000000002" y="622.92"/>
      <point x="322.412" y="622.92" type="curve" smooth="yes"/>
      <point x="386.676" y="622.92"/>
      <point x="418.56" y="593.036"/>
      <point x="418.56" y="537.5840000000001" type="curve" smooth="yes"/>
      <point x="418.56" y="494.476"/>
      <point x="402.6360000000001" y="465.04"/>
      <point x="367.88399999999996" y="442.36799999999994" type="curve"/>
      <point x="411.592" y="391.4440000000001" type="line"/>
      <point x="486.6039999999999" y="428.604"/>
      <point x="515.96" y="486.23199999999997"/>
      <point x="515.96" y="555.9240000000001" type="curve" smooth="yes"/>
      <point x="515.96" y="656.972"/>
      <point x="449.47200000000004" y="710.0"/>
      <point x="318.972" y="710.0" type="curve" smooth="yes"/>
      <point x="172.62" y="710.0"/>
      <point x="107.628" y="641.2959999999999"/>
      <point x="107.628" y="532.5280000000001" type="curve" smooth="yes"/>
      <point x="107.628" y="476.75199999999995"/>
      <point x="127.244" y="425.79999999999995"/>
      <point x="175.21599999999998" y="371.688" type="curve" smooth="yes"/>
    </contour>
    <contour>
      <point x="281.508" y="-10.0" type="curve" smooth="yes"/>
      <point x="364.35600000000005" y="-10.0"/>
      <point x="434.88800000000003" y="17.624000000000002"/>
      <point x="488.71200000000005" y="71.752" type="curve"/>
      <point x="435.32" y="136.716" type="line"/>
      <point x="404.74399999999997" y="96.74"/>
      <point x="361.356" y="72.78"/>
      <point x="293.548" y="72.78" type="curve" smooth="yes"/>
      <point x="198.92" y="72.78"/>
      <point x="138.54" y="124.63600000000001"/>
      <point x="138.54" y="202.86399999999998" type="curve" smooth="yes"/>
      <point x="138.54" y="265.70799999999997"/>
      <point x="166.612" y="305.564"/>
      <point x="224.204" y="339.36400000000003" type="curve"/>
      <point x="172.616" y="399.71999999999997" type="line"/>
      <point x="78.176" y="354.16"/>
      <point x="33.4" y="287.328"/>
      <point x="33.4" y="191.68399999999997" type="curve" smooth="yes"/>
      <point x="33.4" y="70.35600000000001"/>
      <point x="125.636" y="-10.0"/>
    </contour>
    <contour>
      <point x="549.976" y="113.404" type="line"/>
      <point x="591.108" y="168.76799999999997"/>
      <point x="614.408" y="236.776"/>
      <point x="614.408" y="312.81199999999995" type="curve" smooth="yes"/>
      <point x="614.408" y="334.98"/>
      <point x="612.38" y="351.23199999999997"/>
      <point x="609.1000000000001" y="369.45599999999996" type="curve"/>
      <point x="519.5799999999999" y="367.09200000000004" type="line"/>
      <point x="522.86" y="350.588"/>
      <point x="523.972" y="336.252"/>
      <point x="523.112" y="319.692" type="curve" smooth="yes"/>
      <point x="522.252" y="267.436"/>
      <point x="509.52400000000006" y="223.43200000000002"/>
      <point x="485.32" y="189.856" type="curve"/>
    </contour>
  </outline>
</glyph>
<glyph name="quotesingle" format="2">
  <advance width="185.31400000000002"/>
  <unicode hex="0027"/>
  <outline>
    <contour>
      <point x="49.720000000000006" y="427.0" type="line"/>
      <point x="134.82" y="427.0" type="line"/>
      <point x="141.712" y="700.0" type="line"/>
      <point x="43.602000000000004" y="700.0" type="line"/>
    </contour>
  </outline>
</glyph>
<glyph name="parenleft" format="2">
  <advance width="312.392"/>
  <unicode hex="0028"/>
  <outline>
    <contour>
      <point x="63.5" y="265.0" type="curve" smooth="yes"/>
      <point x="63.5" y="3.192000000000002"/>
      <point x="134.21800000000002" y="-192.44000000000003"/>
      <point x="294.33000000000004" y="-220.34199999999998" type="curve"/>
      <point x="294.33000000000004" y="-137.572" type="line"/>
      <point x="196.89" y="-102.31200000000001"/>
      <point x="153.328" y="29.814"/>
      <point x="153.328" y="265.0" type="curve" smooth="yes"/>
      <point x="153.328" y="500.18600000000004"/>
      <point x="196.89" y="632.312"/>
      <point x="294.33000000000004" y="667.572" type="curve"/>
      <point x="294.33000000000004" y="750.3420000000001" type="line"/>
      <point x="134.21800000000002" y="722.44"/>
      <point x="63.5" y="526.808"/>
    </contour>
  </outline>
</glyph>
<glyph name="parenright" format="2">
  <advance width="312.392"/>
  <unicode hex="0029"/>
  <outline>
    <contour>
      <point x="18.062" y="-137.572" type="curve"/>
      <point x="18.062" y="-220.34199999999998" type="line"/>
      <point x="178.174" y="-192.44000000000003"/>
      <point x="248.892" y="3.192000000000002"/>
      <point x="248.892" y="265.0" type="curve" smooth="yes"/>
      <point x="248.892" y="526.808"/>
      <point x="178.174" y="722.44"/>
      <point x="18.062" y="750.3420000000001" type="curve"/>
      <point x="18.062" y="667.572" type="line"/>
      <point x="115.50200000000001" y="632.312"/>
      <point x="159.064" y="500.18600000000004"/>
      <point x="159.064" y="265.0" type="curve" smooth="yes"/>
      <point x="159.064" y="29.814"/>
      <point x="115.50200000000001" y="-102.31200000000001"/>
    </contour>
  </outline>
</glyph>
<glyph name="asterisk" format="2">
  <advance width="342.212"/>
  <unicode hex="002A"/>
  <outline>
    <contour>
      <point x="94.176" y="365.95199999999994" type="line"/>
      <point x="171.334" y="468.428" type="line"/>
      <point x="247.58" y="365.724" type="line"/>
      <point x="289.04200000000003" y="394.416" type="line"/>
      <point x="221.714" y="506.138" type="line"/>
      <point x="335.292" y="555.13" type="line"/>
      <point x="319.116" y="602.4639999999999" type="line"/>
      <point x="202.836" y="566.7379999999999" type="line"/>
      <point x="197.41799999999998" y="698.038" type="line"/>
      <point x="145.25000000000003" y="698.038" type="line"/>
      <point x="139.832" y="566.7379999999999" type="line"/>
      <point x="23.096" y="602.4639999999999" type="line"/>
      <point x="6.92" y="555.13" type="line"/>
      <point x="120.95400000000001" y="506.138" type="line"/>
      <point x="52.486000000000004" y="394.87199999999996" type="line"/>
    </contour>
  </outline>
</glyph>
<glyph name="plus" format="2">
  <advance width="497.084"/>
  <unicode hex="002B"/>
  <outline>
    <contour>
      <point x="201.046" y="98.05799999999999" type="line"/>
      <point x="295.86600000000004" y="98.05799999999999" type="line"/>
      <point x="295.86600000000004" y="260.94" type="line"/>
      <point x="448.226" y="260.94" type="line"/>
      <point x="448.226" y="348.88" type="line"/>
      <point x="295.86600000000004" y="348.88" type="line"/>
      <point x="295.86600000000004" y="511.59000000000003" type="line"/>
      <point x="201.046" y="511.59000000000003" type="line"/>
      <point x="201.046" y="348.88" type="line"/>
      <point x="48.858000000000004" y="348.88" type="line"/>
      <point x="48.858000000000004" y="260.94" type="line"/>
      <point x="201.046" y="260.94" type="line"/>
    </contour>
  </outline>
</glyph>
<glyph name="comma" format="2">
  <advance width="199.848"/>
  <unicode hex="002C"/>
  <outline>
    <contour>
      <point x="49.474000000000004" y="65.74199999999999" type="line"/>
      <point x="56.04" y="39.980000000000004"/>
      <point x="58.948" y="14.370000000000001"/>
      <point x="58.948" y="-3.8259999999999996" type="curve" smooth="yes"/>
      <point x="58.948" y="-63.28"/>
      <point x="38.157999999999994" y="-129.22"/>
      <point x="-6.995999999999997" y="-172.84199999999998" type="curve"/>
      <point x="72.292" y="-195.434" type="line"/>
      <point x="134.24" y="-143.256"/>
      <point x="161.16400000000002" y="-70.71000000000001"/>
      <point x="161.16400000000002" y="-3.2840000000000007" type="curve" smooth="yes"/>
      <point x="161.16400000000002" y="24.415999999999997"/>
      <point x="156.534" y="49.162"/>
      <point x="148.966" y="70.61800000000001" type="curve"/>
    </contour>
  </outline>
</glyph>
<glyph name="hyphen" format="2">
  <advance width="327.594"/>
  <unicode hex="002D"/>
  <outline>
    <contour>
      <point x="36.266000000000005" y="245.97" type="line"/>
      <point x="291.32800000000003" y="245.97" type="line"/>
      <point x="291.32800000000003" y="338.038" type="line"/>
      <point x="36.266000000000005" y="338.038" type="line"/>
    </contour>
  </outline>
</glyph>
<glyph name="period" format="2">
  <advance width="202.60000000000002"/>
  <unicode hex="002E"/>
  <outline>
    <contour>
      <point x="40.72" y="55.786" type="curve" smooth="yes"/>
      <point x="40.72" y="13.642"/>
      <point x="56.482" y="-3.698"/>
      <point x="101.41400000000002" y="-3.698" type="curve" smooth="yes"/>
      <point x="146.916" y="-3.698"/>
      <point x="162.108" y="13.642"/>
      <point x="162.108" y="55.786" type="curve" smooth="yes"/>
      <point x="162.108" y="98.36"/>
      <point x="146.916" y="115.7"/>
      <point x="101.41400000000002" y="115.7" type="curve" smooth="yes"/>
      <point x="55.912" y="115.7"/>
      <point x="40.72" y="98.36"/>
    </contour>
  </outline>
</glyph>
<glyph name="slash" format="2">
  <advance width="377.31600000000003"/>
  <unicode hex="002F"/>
  <outline>
    <contour>
      <point x="2.104" y="-210.0" type="line"/>
      <point x="90.76000000000002" y="-210.0" type="line"/>
      <point x="375.212" y="740.0" type="line"/>
      <point x="286.298" y="740.0" type="line"/>
    </contour>
  </outline>
</glyph>
<glyph name="zero" format="2">
  <advance width="610.212"/>
  <unicode hex="0030"/>
  <outline>
    <contour>
      <point x="28.136000000000003" y="350.0" type="curve" smooth="yes"/>
      <point x="28.136000000000003" y="73.21199999999999"/>
      <point x="141.52599999999998" y="-10.0"/>
      <point x="305.106" y="-10.0" type="curve" smooth="yes"/>
      <point x="468.2560000000001" y="-10.0"/>
      <point x="582.076" y="74.24399999999999"/>
      <point x="582.076" y="350.0" type="curve" smooth="yes"/>
      <point x="582.076" y="626.356"/>
      <point x="472.12600000000003" y="710.0"/>
      <point x="305.106" y="710.0" type="curve" smooth="yes"/>
      <point x="140.75199999999998" y="710.0"/>
      <point x="28.136000000000003" y="628.4200000000001"/>
    </contour>
    <contour>
      <point x="139.554" y="346.646" type="curve" smooth="yes"/>
      <point x="139.554" y="571.9140000000001"/>
      <point x="211.202" y="622.0600000000001"/>
      <point x="305.106" y="622.0600000000001" type="curve" smooth="yes"/>
      <point x="399.35400000000004" y="622.0600000000001"/>
      <point x="471.002" y="572.172"/>
      <point x="471.002" y="346.646" type="curve" smooth="yes"/>
      <point x="471.002" y="129.976"/>
      <point x="400.128" y="77.94"/>
      <point x="305.106" y="77.94" type="curve" smooth="yes"/>
      <point x="210.428" y="77.94"/>
      <point x="139.554" y="129.718"/>
    </contour>
  </outline>
</glyph>
<glyph name="one" format="2">
  <advance width="610.212"/>
  <unicode hex="0031"/>
  <outline>
    <contour>
      <point x="71.284" y="0.0" type="line"/>
      <point x="575.386" y="0.0" type="line"/>
      <point x="575.386" y="88.79999999999998" type="line"/>
      <point x="395.22600000000006" y="88.79999999999998" type="line"/>
      <point x="395.22600000000006" y="702.28" type="line"/>
      <point x="339.28000000000003" y="702.28" type="line"/>
      <point x="56.7" y="573.744" type="line"/>
      <point x="81.806" y="481.862" type="line"/>
      <point x="285.442" y="578.486" type="line"/>
      <point x="285.442" y="88.79999999999998" type="line"/>
      <point x="71.284" y="88.79999999999998" type="line"/>
    </contour>
  </outline>
</glyph>
<glyph name="two" format="2">
  <advance width="611.3"/>
  <unicode hex="0032"/>
  <outline>
    <contour>
      <point x="54.86000000000001" y="75.47999999999999" type="curve"/>
      <point x="58.14000000000001" y="0.0" type="line"/>
      <point x="564.1399999999999" y="0.0" type="line"/>
      <point x="564.1399999999999" y="89.65999999999998" type="line"/>
      <point x="208.84000000000003" y="89.65999999999998" type="line"/>
      <point x="470.32" y="323.55999999999995"/>
      <point x="506.35999999999996" y="395.42"/>
      <point x="506.35999999999996" y="499.65999999999997" type="curve" smooth="yes"/>
      <point x="506.35999999999996" y="626.5"/>
      <point x="423.59999999999997" y="710.0"/>
      <point x="280.35999999999996" y="710.0" type="curve" smooth="yes"/>
      <point x="201.32" y="710.0"/>
      <point x="120.70000000000002" y="686.8399999999999"/>
      <point x="59.1" y="645.98" type="curve"/>
      <point x="94.17999999999999" y="553.72" type="line"/>
      <point x="147.76" y="586.28"/>
      <point x="203.6" y="602.4200000000001"/>
      <point x="255.42000000000004" y="602.4200000000001" type="curve" smooth="yes"/>
      <point x="339.22" y="602.4200000000001"/>
      <point x="387.6" y="559.6"/>
      <point x="387.6" y="479.29999999999995" type="curve" smooth="yes"/>
      <point x="387.6" y="386.8"/>
      <point x="335.22" y="319.1"/>
    </contour>
  </outline>
</glyph>
<glyph name="three" format="2">
  <advance width="611.3000000000001"/>
  <unicode hex="0033"/>
  <outline>
    <contour>
      <point x="30.6" y="48.12" type="line"/>
      <point x="102.33999999999999" y="7.5600000000000005"/>
      <point x="171.64" y="-10.0"/>
      <point x="273.38" y="-10.0" type="curve" smooth="yes"/>
      <point x="447.7" y="-10.0"/>
      <point x="552.4399999999999" y="69.0"/>
      <point x="552.4399999999999" y="204.72" type="curve" smooth="yes"/>
      <point x="552.4399999999999" y="288.98"/>
      <point x="503.74" y="349.68"/>
      <point x="413.64" y="370.0" type="curve"/>
      <point x="484.34" y="395.02"/>
      <point x="523.76" y="452.3"/>
      <point x="523.76" y="528.56" type="curve" smooth="yes"/>
      <point x="523.76" y="641.14"/>
      <point x="429.24" y="710.0"/>
      <point x="283.09999999999997" y="710.0" type="curve" smooth="yes"/>
      <point x="191.88" y="710.0"/>
      <point x="113.42" y="691.6999999999999"/>
      <point x="55.7" y="659.2400000000001" type="curve"/>
      <point x="82.75999999999999" y="573.72" type="line"/>
      <point x="143.78" y="602.32"/>
      <point x="205.20000000000002" y="613.46"/>
      <point x="263.32" y="613.46" type="curve" smooth="yes"/>
      <point x="358.47999999999996" y="613.46"/>
      <point x="415.18000000000006" y="572.38"/>
      <point x="415.18000000000006" y="506.2" type="curve" smooth="yes"/>
      <point x="415.18000000000006" y="442.3"/>
      <point x="369.94" y="401.35999999999996"/>
      <point x="283.56" y="401.35999999999996" type="curve" smooth="yes"/>
      <point x="167.62" y="401.35999999999996" type="line"/>
      <point x="167.62" y="319.44" type="line"/>
      <point x="270.84" y="319.44" type="line" smooth="yes"/>
      <point x="380.74" y="319.44"/>
      <point x="441.28" y="285.06"/>
      <point x="441.28" y="211.6" type="curve" smooth="yes"/>
      <point x="441.28" y="128.44"/>
      <point x="378.8" y="82.24"/>
      <point x="263.92" y="82.24" type="curve" smooth="yes"/>
      <point x="183.52" y="82.24"/>
      <point x="120.22000000000001" y="97.80000000000001"/>
      <point x="62.38" y="127.48000000000002" type="curve"/>
    </contour>
  </outline>
</glyph>
<glyph name="four" format="2">
  <advance width="611.3000000000001"/>
  <unicode hex="0034"/>
  <outline>
    <contour>
      <point x="23.259999999999998" y="147.54" type="line"/>
      <point x="361.02" y="147.54" type="line"/>
      <point x="361.02" y="0.0" type="line"/>
      <point x="476.47999999999996" y="0.0" type="line"/>
      <point x="476.47999999999996" y="147.54" type="line"/>
      <point x="585.42" y="147.54" type="line"/>
      <point x="585.42" y="234.62" type="line"/>
      <point x="476.47999999999996" y="234.62" type="line"/>
      <point x="476.47999999999996" y="699.86" type="line"/>
      <point x="379.78" y="703.42" type="line"/>
      <point x="20.700000000000003" y="229.04" type="line"/>
    </contour>
    <contour>
      <point x="123.66" y="234.62" type="line"/>
      <point x="363.6" y="549.76" type="line"/>
      <point x="363.6" y="234.62" type="line"/>
    </contour>
  </outline>
</glyph>
<glyph name="five" format="2">
  <advance width="611.2439999999999"/>
  <unicode hex="0035"/>
  <outline>
    <contour>
      <point x="36.839999999999996" y="43.324000000000005" type="line"/>
      <point x="106.6" y="8.120000000000001"/>
      <point x="172.42400000000004" y="-9.944"/>
      <point x="270.51599999999996" y="-9.944" type="curve" smooth="yes"/>
      <point x="443.236" y="-9.944"/>
      <point x="558.748" y="66.336"/>
      <point x="558.748" y="217.76" type="curve" smooth="yes"/>
      <point x="558.748" y="353.276"/>
      <point x="479.30400000000003" y="414.44399999999996"/>
      <point x="324.092" y="414.444" type="curve" smooth="yes"/>
      <point x="182.392" y="414.444" type="line"/>
      <point x="202.792" y="603.46" type="line"/>
      <point x="520.804" y="603.46" type="line"/>
      <point x="520.804" y="700.0" type="line"/>
      <point x="119.46" y="700.0" type="line"/>
      <point x="78.86" y="340.944" type="line"/>
      <point x="88.86" y="329.944" type="line"/>
      <point x="275.86799999999994" y="329.944" type="line" smooth="yes"/>
      <point x="403.328" y="329.944"/>
      <point x="446.72799999999995" y="292.17199999999997"/>
      <point x="446.72799999999995" y="214.32" type="curve" smooth="yes"/>
      <point x="446.72799999999995" y="132.404"/>
      <point x="389.32" y="85.736"/>
      <point x="262.77599999999995" y="85.736" type="curve" smooth="yes"/>
      <point x="173.59199999999998" y="85.736"/>
      <point x="121.648" y="103.96799999999999"/>
      <point x="68.844" y="127.89999999999999" type="curve"/>
    </contour>
  </outline>
</glyph>
<glyph name="six" format="2">
  <advance width="611.244"/>
  <unicode hex="0036"/>
  <outline>
    <contour>
      <point x="311.844" y="-10.0" type="curve" smooth="yes"/>
      <point x="481.67199999999997" y="-10.0"/>
      <point x="571.2800000000001" y="73.22399999999999"/>
      <point x="571.2800000000001" y="223.84400000000002" type="curve" smooth="yes"/>
      <point x="571.2800000000001" y="357.47999999999996"/>
      <point x="493.46799999999996" y="434.58400000000006"/>
      <point x="353.39199999999994" y="434.58400000000006" type="curve" smooth="yes"/>
      <point x="264.62" y="434.58400000000006"/>
      <point x="179.50400000000002" y="402.09200000000004"/>
      <point x="131.42000000000002" y="351.656" type="curve"/>
      <point x="137.14000000000001" y="268.86800000000005" type="line"/>
      <point x="181.64400000000003" y="316.92799999999994"/>
      <point x="248.084" y="351.888"/>
      <point x="318.048" y="351.888" type="curve" smooth="yes"/>
      <point x="409.14399999999995" y="351.888"/>
      <point x="465.28" y="304.976"/>
      <point x="465.28" y="221.01200000000003" type="curve" smooth="yes"/>
      <point x="465.28" y="128.91600000000003"/>
      <point x="410.3040000000001" y="78.63200000000002"/>
      <point x="317.78" y="78.63200000000002" type="curve" smooth="yes"/>
      <point x="210.868" y="78.63200000000002"/>
      <point x="145.936" y="144.61599999999999"/>
      <point x="145.936" y="342.54400000000004" type="curve" smooth="yes"/>
      <point x="145.936" y="527.6999999999999"/>
      <point x="203.92000000000002" y="617.0680000000001"/>
      <point x="354.71999999999997" y="617.0680000000001" type="curve" smooth="yes"/>
      <point x="414.7" y="617.0680000000001"/>
      <point x="468.14799999999997" y="604.816"/>
      <point x="528.456" y="586.48" type="curve"/>
      <point x="555.5720000000001" y="673.056" type="line"/>
      <point x="496.76000000000005" y="696.9440000000001"/>
      <point x="421.3080000000001" y="710.0"/>
      <point x="340.26800000000003" y="710.0" type="curve" smooth="yes"/>
      <point x="137.6" y="710.0"/>
      <point x="33.05599999999999" y="588.7919999999999"/>
      <point x="33.05599999999999" y="331.728" type="curve" smooth="yes"/>
      <point x="33.05599999999999" y="93.27199999999999"/>
      <point x="132.976" y="-10.0"/>
    </contour>
  </outline>
</glyph>
<glyph name="seven" format="2">
  <advance width="611.2439999999999"/>
  <unicode hex="0037"/>
  <outline>
    <contour>
      <point x="193.968" y="0.0" type="curve"/>
      <point x="303.40799999999996" y="0.0" type="line"/>
      <point x="305.212" y="126.904"/>
      <point x="337.352" y="224.66799999999998"/>
      <point x="406.708" y="350.18399999999997" type="curve" smooth="yes"/>
      <point x="560.88" y="627.1" type="line"/>
      <point x="560.88" y="700.0" type="line"/>
      <point x="50.824" y="700.0" type="line"/>
      <point x="50.824" y="596.5799999999999" type="line"/>
      <point x="430.932" y="596.5799999999999" type="line"/>
      <point x="309.012" y="385.684" type="line" smooth="yes"/>
      <point x="223.8" y="238.06400000000002"/>
      <point x="193.968" y="135.952"/>
    </contour>
  </outline>
</glyph>
<glyph name="eight" format="2">
  <advance width="611.3"/>
  <unicode hex="0038"/>
  <outline>
    <contour>
      <point x="360.78000000000003" y="383.5" type="curve"/>
      <point x="434.96" y="351.41999999999996" type="line"/>
      <point x="527.3399999999999" y="402.72"/>
      <point x="562.5999999999999" y="465.44"/>
      <point x="562.5999999999999" y="535.84" type="curve" smooth="yes"/>
      <point x="562.5999999999999" y="646.4"/>
      <point x="473.7" y="710.0"/>
      <point x="311.8" y="710.0" type="curve" smooth="yes"/>
      <point x="149.18" y="710.0"/>
      <point x="57.02" y="643.98"/>
      <point x="57.02" y="525.08" type="curve" smooth="yes"/>
      <point x="57.02" y="269.82000000000005"/>
      <point x="472.7" y="367.03999999999996"/>
      <point x="472.7" y="181.01999999999998" type="curve" smooth="yes"/>
      <point x="472.7" y="110.0"/>
      <point x="416.8" y="72.77999999999999"/>
      <point x="309.96" y="72.77999999999999" type="curve" smooth="yes"/>
      <point x="195.79999999999998" y="72.77999999999999"/>
      <point x="134.15999999999997" y="115.28"/>
      <point x="134.15999999999997" y="193.46" type="curve" smooth="yes"/>
      <point x="134.15999999999997" y="262.09999999999997"/>
      <point x="166.38" y="306.6"/>
      <point x="239.96" y="344.16" type="curve"/>
      <point x="170.66" y="382.4" type="line"/>
      <point x="70.0" y="335.26"/>
      <point x="23.0" y="268.84"/>
      <point x="23.0" y="185.3" type="curve" smooth="yes"/>
      <point x="23.0" y="60.0"/>
      <point x="120.74000000000001" y="-10.0"/>
      <point x="300.5" y="-10.0" type="curve" smooth="yes"/>
      <point x="491.58" y="-10.0"/>
      <point x="588.1600000000001" y="57.58"/>
      <point x="588.1600000000001" y="189.76" type="curve" smooth="yes"/>
      <point x="588.1600000000001" y="449.26"/>
      <point x="163.01999999999998" y="356.04"/>
      <point x="163.01999999999998" y="527.0799999999999" type="curve" smooth="yes"/>
      <point x="163.01999999999998" y="588.98"/>
      <point x="212.78" y="623.92"/>
      <point x="306.64000000000004" y="623.92" type="curve" smooth="yes"/>
      <point x="406.65999999999997" y="623.92"/>
      <point x="459.18000000000006" y="587.96"/>
      <point x="459.18000000000006" y="520.22" type="curve" smooth="yes"/>
      <point x="459.18000000000006" y="464.14"/>
      <point x="436.66" y="425.62"/>
    </contour>
  </outline>
</glyph>
<glyph name="nine" format="2">
  <advance width="611.244"/>
  <unicode hex="0039"/>
  <outline>
    <contour>
      <point x="263.096" y="-10.0" type="curve" smooth="yes"/>
      <point x="465.764" y="-10.0"/>
      <point x="569.112" y="110.348"/>
      <point x="569.112" y="365.69200000000006" type="curve" smooth="yes"/>
      <point x="569.112" y="605.008"/>
      <point x="480.37199999999996" y="710.0"/>
      <point x="297.724" y="710.0" type="curve" smooth="yes"/>
      <point x="126.13999999999999" y="710.0"/>
      <point x="30.888" y="627.1120000000001"/>
      <point x="30.888" y="476.21200000000005" type="curve" smooth="yes"/>
      <point x="30.888" y="341.13599999999997"/>
      <point x="109.78399999999999" y="265.41599999999994"/>
      <point x="253.07600000000002" y="265.41599999999994" type="curve" smooth="yes"/>
      <point x="336.688" y="265.41599999999994"/>
      <point x="420.94399999999996" y="294.636"/>
      <point x="470.74799999999993" y="345.072" type="curve"/>
      <point x="470.69200000000006" y="433.0" type="line"/>
      <point x="422.49600000000004" y="378.688"/>
      <point x="353.22400000000005" y="348.112"/>
      <point x="284.12" y="348.112" type="curve" smooth="yes"/>
      <point x="195.528" y="348.112"/>
      <point x="136.028" y="394.50000000000006"/>
      <point x="136.028" y="479.904" type="curve" smooth="yes"/>
      <point x="136.028" y="572.28"/>
      <point x="197.508" y="621.368"/>
      <point x="291.788" y="621.368" type="curve" smooth="yes"/>
      <point x="402.48" y="621.368"/>
      <point x="456.232" y="555.3839999999999"/>
      <point x="456.232" y="357.456" type="curve" smooth="yes"/>
      <point x="456.232" y="172.29999999999998"/>
      <point x="398.58400000000006" y="82.93199999999999"/>
      <point x="248.644" y="82.93199999999999" type="curve" smooth="yes"/>
      <point x="187.80400000000003" y="82.93199999999999"/>
      <point x="134.02" y="95.18399999999998"/>
      <point x="73.71199999999999" y="113.52000000000001" type="curve"/>
      <point x="46.59599999999999" y="28.663999999999998" type="line"/>
      <point x="105.408" y="4.776"/>
      <point x="182.056" y="-10.0"/>
    </contour>
  </outline>
</glyph>
<glyph name="less" format="2">
  <advance width="497.084"/>
  <unicode hex="003C"/>
  <outline>
    <contour>
      <point x="453.302" y="77.646" type="line"/>
      <point x="453.302" y="164.142" type="line"/>
      <point x="140.262" y="300.264" type="line"/>
      <point x="453.302" y="437.27" type="line"/>
      <point x="453.302" y="522.94" type="line"/>
      <point x="43.782000000000004" y="343.718" type="line"/>
      <point x="43.782000000000004" y="256.29400000000004" type="line"/>
    </contour>
  </outline>
</glyph>
<glyph name="equal" format="2">
  <advance width="491.924"/>
  <unicode hex="003D"/>
  <outline>
    <contour>
      <point x="443.066" y="235.528" type="line"/>
      <point x="48.858000000000004" y="235.528" type="line"/>
      <point x="48.858000000000004" y="147.58800000000002" type="line"/>
      <point x="443.066" y="147.58800000000002" type="line"/>
    </contour>
    <contour>
      <point x="443.066" y="454.396" type="line"/>
      <point x="48.858000000000004" y="454.396" type="line"/>
      <point x="48.858000000000004" y="366.456" type="line"/>
      <point x="443.066" y="366.456" type="line"/>
    </contour>
  </outline>
</glyph>
<glyph name="greater" format="2">
  <advance width="497.084"/>
  <unicode hex="003E"/>
  <outline>
    <contour>
      <point x="453.302" y="255.95200000000003" type="line"/>
      <point x="453.302" y="343.376" type="line"/>
      <point x="43.782000000000004" y="522.94" type="line"/>
      <point x="43.782000000000004" y="436.358" type="line"/>
      <point x="356.822" y="299.92199999999997" type="line"/>
      <point x="43.782000000000004" y="163.45799999999997" type="line"/>
      <point x="43.782000000000004" y="77.646" type="line"/>
    </contour>
  </outline>
</glyph>
<glyph name="question" format="2">
  <advance width="455.416"/>
  <unicode hex="003F"/>
  <outline>
    <contour>
      <point x="163.046" y="261.16600000000005" type="line"/>
      <point x="257.092" y="261.16600000000005" type="line"/>
      <point x="257.436" y="329.292" type="line"/>
      <point x="380.782" y="383.59799999999996"/>
      <point x="434.554" y="445.21"/>
      <point x="434.554" y="552.3299999999999" type="curve" smooth="yes"/>
      <point x="434.554" y="691.83"/>
      <point x="333.272" y="749.7420000000001"/>
      <point x="219.40999999999997" y="749.7420000000001" type="curve" smooth="yes"/>
      <point x="147.506" y="749.7420000000001"/>
      <point x="66.24" y="725.564"/>
      <point x="10.804" y="685.5120000000001" type="curve"/>
      <point x="44.965999999999994" y="600.5940000000002" type="line"/>
      <point x="98.13400000000001" y="635.888"/>
      <point x="153.3" y="651.1360000000001"/>
      <point x="203.156" y="651.1360000000001" type="curve" smooth="yes"/>
      <point x="266.93600000000004" y="651.1360000000001"/>
      <point x="322.192" y="615.474"/>
      <point x="322.192" y="540.974" type="curve" smooth="yes"/>
      <point x="322.192" y="477.754"/>
      <point x="290.816" y="429.77400000000006"/>
      <point x="160.81" y="378.846" type="curve"/>
    </contour>
    <contour>
      <point x="150.5" y="55.012" type="curve" smooth="yes"/>
      <point x="150.5" y="12.867999999999999"/>
      <point x="166.688" y="-4.4719999999999995"/>
      <point x="211.536" y="-4.4719999999999995" type="curve" smooth="yes"/>
      <point x="256.438" y="-4.4719999999999995"/>
      <point x="272.23" y="12.867999999999999"/>
      <point x="272.23" y="55.012" type="curve" smooth="yes"/>
      <point x="272.23" y="97.586"/>
      <point x="256.438" y="114.926"/>
      <point x="211.536" y="114.926" type="curve" smooth="yes"/>
      <point x="165.77599999999998" y="114.926"/>
      <point x="150.5" y="97.586"/>
    </contour>
  </outline>
</glyph>
<glyph name="at" format="2">
  <advance width="800.7239999999999"/>
  <unicode hex="0040"/>
  <outline>
    <contour>
      <point x="390.168" y="-123.86" type="curve" smooth="yes"/>
      <point x="464.824" y="-123.86"/>
      <point x="542.892" y="-101.58"/>
      <point x="594.024" y="-73.84" type="curve"/>
      <point x="575.9440000000001" y="-23.228" type="line"/>
      <point x="526.7919999999999" y="-48.419999999999995"/>
      <point x="462.65999999999997" y="-66.53200000000001"/>
      <point x="395.32800000000003" y="-66.53200000000001" type="curve" smooth="yes"/>
      <point x="221.85600000000002" y="-66.53200000000001"/>
      <point x="103.544" y="20.392"/>
      <point x="103.544" y="266.67600000000004" type="curve" smooth="yes"/>
      <point x="103.544" y="488.672"/>
      <point x="203.86" y="655.336"/>
      <point x="409.88800000000003" y="655.336" type="curve" smooth="yes"/>
      <point x="614.3240000000001" y="655.336"/>
      <point x="701.3600000000001" y="542.008"/>
      <point x="701.3600000000001" y="339.228" type="curve" smooth="yes"/>
      <point x="701.3600000000001" y="211.808"/>
      <point x="668.26" y="122.152"/>
      <point x="622.2200000000001" y="122.152" type="curve" smooth="yes"/>
      <point x="588.992" y="122.152"/>
      <point x="565.06" y="147.328"/>
      <point x="571.316" y="247.00799999999998" type="curve" smooth="yes"/>
      <point x="588.788" y="507.772" type="line"/>
      <point x="534.504" y="527.364"/>
      <point x="477.44399999999996" y="538.948"/>
      <point x="424.608" y="538.948" type="curve" smooth="yes"/>
      <point x="276.48400000000004" y="538.948"/>
      <point x="204.584" y="414.93600000000004"/>
      <point x="204.584" y="263.69599999999997" type="curve" smooth="yes"/>
      <point x="204.584" y="120.044"/>
      <point x="259.1" y="59.62800000000001"/>
      <point x="339.828" y="59.62800000000001" type="curve" smooth="yes"/>
      <point x="411.612" y="59.62800000000001"/>
      <point x="459.57200000000006" y="109.64"/>
      <point x="489.844" y="190.86800000000002" type="curve"/>
      <point x="498.63200000000006" y="100.1"/>
      <point x="529.512" y="53.876000000000005"/>
      <point x="604.62" y="53.876000000000005" type="curve" smooth="yes"/>
      <point x="712.384" y="53.876000000000005"/>
      <point x="763.616" y="185.756"/>
      <point x="763.616" y="343.87199999999996" type="curve" smooth="yes"/>
      <point x="763.616" y="583.628"/>
      <point x="641.3720000000001" y="709.9440000000001"/>
      <point x="418.488" y="709.9440000000001" type="curve" smooth="yes"/>
      <point x="165.92" y="709.9440000000001"/>
      <point x="38.135999999999996" y="522.5799999999999"/>
      <point x="38.135999999999996" y="269.6" type="curve" smooth="yes"/>
      <point x="38.135999999999996" y="-12.076"/>
      <point x="177.89200000000002" y="-123.86"/>
    </contour>
    <contour>
      <point x="375.6" y="147.51200000000003" type="curve" smooth="yes"/>
      <point x="339.112" y="147.51200000000003"/>
      <point x="310.41200000000003" y="180.54799999999997"/>
      <point x="310.41200000000003" y="267.652" type="curve" smooth="yes"/>
      <point x="310.41200000000003" y="366.828"/>
      <point x="349.812" y="465.712"/>
      <point x="419.47999999999996" y="465.712" type="curve" smooth="yes"/>
      <point x="440.5760000000001" y="465.712"/>
      <point x="464.612" y="461.32"/>
      <point x="488.636" y="453.24" type="curve"/>
      <point x="478.76" y="333.86" type="line" smooth="yes"/>
      <point x="458.456" y="181.172"/>
      <point x="421.74399999999997" y="147.51200000000003"/>
    </contour>
  </outline>
</glyph>
<glyph name="A" format="2">
  <advance width="620.946"/>
  <unicode hex="0041"/>
  <anchor x="610.6220000000001" y="0.0" name="ogonek"/>
  <anchor x="307.848" y="0.0" name="bottom"/>
  <anchor x="310.944" y="700.0" name="top"/>
  <outline>
    <contour>
      <point x="10.668000000000001" y="0.0" type="line"/>
      <point x="127.1" y="0.0" type="line"/>
      <point x="180.244" y="165.156" type="line"/>
      <point x="435.08400000000006" y="165.156" type="line"/>
      <point x="488.80199999999996" y="0.0" type="line"/>
      <point x="610.6220000000001" y="0.0" type="line"/>
      <point x="375.16600000000005" y="705.7" type="line"/>
      <point x="245.062" y="705.7" type="line"/>
    </contour>
    <contour>
      <point x="204.10000000000002" y="261.29799999999994" type="line"/>
      <point x="308.08000000000004" y="608.412" type="line"/>
      <point x="411.28399999999993" y="261.29799999999994" type="line"/>
    </contour>
  </outline>
</glyph>
<glyph name="B" format="2">
  <advance width="632.04"/>
  <unicode hex="0042"/>
  <anchor x="312.36" y="700.0" name="top"/>
  <anchor x="312.36" y="0.0" name="bottom"/>
  <outline>
    <contour>
      <point x="65.74399999999999" y="1.4959999999999996" type="line"/>
      <point x="196.78" y="-8.028000000000002"/>
      <point x="227.25199999999998" y="-10.0"/>
      <point x="318.55600000000004" y="-10.0" type="curve" smooth="yes"/>
      <point x="525.0680000000001" y="-10.0"/>
      <point x="600.3679999999999" y="49.91599999999999"/>
      <point x="600.3679999999999" y="197.20799999999997" type="curve" smooth="yes"/>
      <point x="600.3679999999999" y="288.992"/>
      <point x="547.9760000000001" y="353.90799999999996"/>
      <point x="459.612" y="375.04" type="curve"/>
      <point x="459.612" y="376.95599999999996" type="line"/>
      <point x="527.556" y="402.08799999999997"/>
      <point x="564.592" y="460.516"/>
      <point x="564.592" y="538.636" type="curve" smooth="yes"/>
      <point x="564.592" y="659.86"/>
      <point x="494.99199999999996" y="710.0"/>
      <point x="313.94" y="710.0" type="curve" smooth="yes"/>
      <point x="248.50799999999998" y="710.0"/>
      <point x="175.036" y="706.1680000000001"/>
      <point x="65.74399999999999" y="697.476" type="curve"/>
    </contour>
    <contour>
      <point x="178.624" y="397.57599999999996" type="line"/>
      <point x="178.624" y="612.5640000000001" type="line"/>
      <point x="247.41199999999998" y="617.7880000000001"/>
      <point x="257.972" y="618.7880000000001"/>
      <point x="307.68800000000005" y="618.7880000000001" type="curve" smooth="yes"/>
      <point x="417.79200000000003" y="618.7880000000001"/>
      <point x="458.59200000000004" y="585.576"/>
      <point x="458.59200000000004" y="508.53599999999994" type="curve" smooth="yes"/>
      <point x="458.59200000000004" y="443.38400000000007"/>
      <point x="416.59600000000006" y="397.57599999999996"/>
      <point x="351.836" y="397.57599999999996" type="curve" smooth="yes"/>
    </contour>
    <contour>
      <point x="178.624" y="87.49199999999998" type="curve"/>
      <point x="178.624" y="312.21599999999995" type="line"/>
      <point x="353.62000000000006" y="312.21599999999995" type="line" smooth="yes"/>
      <point x="441.21200000000005" y="312.21599999999995"/>
      <point x="484.90799999999996" y="272.604"/>
      <point x="484.90799999999996" y="201.48" type="curve" smooth="yes"/>
      <point x="484.90799999999996" y="114.872"/>
      <point x="441.6040000000001" y="81.24"/>
      <point x="311.86400000000003" y="81.24" type="curve" smooth="yes"/>
      <point x="277.45599999999996" y="81.24"/>
      <point x="245.92399999999998" y="83.21199999999997"/>
    </contour>
  </outline>
</glyph>
<glyph name="C" format="2">
  <advance width="603.2520000000001"/>
  <unicode hex="0043"/>
  <anchor x="340.814" y="700.0" name="top"/>
  <anchor x="339.354" y="0.0" name="bottom"/>
  <outline>
    <contour>
      <point x="39.066" y="338.292" type="curve" smooth="yes"/>
      <point x="39.066" y="81.55600000000001"/>
      <point x="146.45000000000002" y="-10.0"/>
      <point x="346.70000000000005" y="-10.0" type="curve" smooth="yes"/>
      <point x="439.83199999999994" y="-10.0"/>
      <point x="512.936" y="1.6380000000000006"/>
      <point x="575.12" y="21.444" type="curve"/>
      <point x="555.012" y="110.16" type="line"/>
      <point x="498.66800000000006" y="94.47999999999999"/>
      <point x="426.11199999999997" y="84.566"/>
      <point x="364.15599999999995" y="84.566" type="curve" smooth="yes"/>
      <point x="223.00600000000003" y="84.566"/>
      <point x="152.72" y="150.44"/>
      <point x="152.72" y="338.894" type="curve" smooth="yes"/>
      <point x="152.72" y="543.988"/>
      <point x="224.998" y="614.49"/>
      <point x="370.57000000000005" y="614.49" type="curve" smooth="yes"/>
      <point x="428.29200000000003" y="614.49"/>
      <point x="478.386" y="608.116"/>
      <point x="537.596" y="593.462" type="curve"/>
      <point x="560.026" y="683.0400000000001" type="line"/>
      <point x="498.068" y="702.078"/>
      <point x="442.67800000000005" y="710.0"/>
      <point x="360.682" y="710.0" type="curve" smooth="yes"/>
      <point x="148.802" y="710.0"/>
      <point x="39.066" y="603.114"/>
    </contour>
  </outline>
</glyph>
<glyph name="D" format="2">
  <advance width="669.98"/>
  <unicode hex="0044"/>
  <anchor x="327.416" y="700.0" name="top"/>
  <outline>
    <contour>
      <point x="309.71600000000007" y="-10.0" type="curve" smooth="yes"/>
      <point x="523.468" y="-10.0"/>
      <point x="630.6560000000001" y="99.664"/>
      <point x="630.6560000000001" y="348.69200000000006" type="curve" smooth="yes"/>
      <point x="630.6560000000001" y="602.196"/>
      <point x="534.104" y="710.0"/>
      <point x="301.7440000000001" y="710.0" type="curve" smooth="yes"/>
      <point x="222.29999999999998" y="710.0"/>
      <point x="151.728" y="707.0840000000001"/>
      <point x="65.74399999999999" y="700.336" type="curve"/>
      <point x="65.74399999999999" y="-2.2239999999999998" type="line"/>
      <point x="143.65199999999996" y="-6.140000000000001"/>
      <point x="224.7" y="-10.0"/>
    </contour>
    <contour>
      <point x="313.30800000000005" y="79.49199999999999" type="curve" smooth="yes"/>
      <point x="274.672" y="79.49199999999999"/>
      <point x="218.68800000000002" y="81.576"/>
      <point x="178.624" y="84.604" type="curve"/>
      <point x="178.624" y="615.3119999999999" type="line"/>
      <point x="218.256" y="617.536"/>
      <point x="271.14" y="619.5640000000001"/>
      <point x="308.14" y="619.5640000000001" type="curve" smooth="yes"/>
      <point x="451.024" y="619.5640000000001"/>
      <point x="514.196" y="548.756"/>
      <point x="514.196" y="347.888" type="curve" smooth="yes"/>
      <point x="514.196" y="154.85200000000003"/>
      <point x="446.79999999999995" y="79.49199999999999"/>
    </contour>
  </outline>
</glyph>
<glyph name="E" format="2">
  <advance width="572.3"/>
  <unicode hex="0045"/>
  <anchor x="545.188" y="0.0" name="ogonek"/>
  <anchor x="305.53600000000006" y="0.0" name="bottom"/>
  <anchor x="303.6400000000001" y="700.0" name="top"/>
  <outline>
    <contour>
      <point x="65.74399999999999" y="0.0" type="line"/>
      <point x="546.048" y="0.0" type="line"/>
      <point x="546.048" y="99.12" type="line"/>
      <point x="179.48399999999998" y="99.12" type="line"/>
      <point x="179.48399999999998" y="312.92400000000004" type="line"/>
      <point x="504.41200000000003" y="312.92400000000004" type="line"/>
      <point x="504.41200000000003" y="411.09999999999997" type="line"/>
      <point x="179.48399999999998" y="411.09999999999997" type="line"/>
      <point x="179.48399999999998" y="600.88" type="line"/>
      <point x="528.104" y="600.88" type="line"/>
      <point x="528.104" y="700.0" type="line"/>
      <point x="65.74399999999999" y="700.0" type="line"/>
    </contour>
  </outline>
</glyph>
<glyph name="F" format="2">
  <advance width="542.6640000000001"/>
  <unicode hex="0046"/>
  <outline>
    <contour>
      <point x="65.74399999999999" y="0.0" type="line"/>
      <point x="179.48399999999998" y="0.0" type="line"/>
      <point x="179.48399999999998" y="270.828" type="line"/>
      <point x="479.88000000000005" y="270.828" type="line"/>
      <point x="479.88000000000005" y="368.144" type="line"/>
      <point x="178.624" y="368.144" type="line"/>
      <point x="178.624" y="599.1599999999999" type="line"/>
      <point x="525.5240000000001" y="599.1599999999999" type="line"/>
      <point x="525.5240000000001" y="700.0" type="line"/>
      <point x="65.74399999999999" y="700.0" type="line"/>
    </contour>
  </outline>
</glyph>
<glyph name="G" format="2">
  <advance width="640.854"/>
  <unicode hex="0047"/>
  <anchor x="337.2" y="700.0" name="top"/>
  <anchor x="337.3" y="0.0" name="bottom"/>
  <outline>
    <contour>
      <point x="39.066" y="338.808" type="curve" smooth="yes"/>
      <point x="39.066" y="102.73800000000001"/>
      <point x="136.912" y="-10.0"/>
      <point x="333.49199999999996" y="-10.0" type="curve" smooth="yes"/>
      <point x="434.56800000000004" y="-10.0"/>
      <point x="523.3620000000001" y="4.926"/>
      <point x="589.502" y="34.9" type="curve"/>
      <point x="589.502" y="368.336" type="line"/>
      <point x="336.32" y="368.336" type="line"/>
      <point x="336.32" y="280.48" type="line"/>
      <point x="488.404" y="280.48" type="line"/>
      <point x="488.404" y="98.006" type="line"/>
      <point x="450.772" y="85.426"/>
      <point x="403.05600000000004" y="79.234"/>
      <point x="346.13200000000006" y="79.234" type="curve" smooth="yes"/>
      <point x="218.44600000000003" y="79.234"/>
      <point x="152.20399999999998" y="157.44799999999998"/>
      <point x="152.20399999999998" y="337.08799999999997" type="curve" smooth="yes"/>
      <point x="152.20399999999998" y="527.386"/>
      <point x="221.96000000000004" y="615.0060000000001"/>
      <point x="362.53" y="615.0060000000001" type="curve" smooth="yes"/>
      <point x="420.454" y="615.0060000000001"/>
      <point x="483.1240000000001" y="606.576"/>
      <point x="544.244" y="590.24" type="curve"/>
      <point x="565.1260000000001" y="679.878" type="line"/>
      <point x="502.3019999999999" y="699.7400000000001"/>
      <point x="433.25600000000003" y="710.0"/>
      <point x="353.93199999999996" y="710.0" type="curve" smooth="yes"/>
      <point x="144.51999999999998" y="710.0"/>
      <point x="39.066" y="589.008"/>
    </contour>
  </outline>
</glyph>
<glyph name="H" format="2">
  <advance width="686.974"/>
  <unicode hex="0048"/>
  <anchor x="343.73" y="700.0" name="top"/>
  <outline>
    <contour>
      <point x="65.65799999999999" y="0.0" type="line"/>
      <point x="177.248" y="0.0" type="line"/>
      <point x="177.248" y="260.75800000000004" type="line"/>
      <point x="509.72600000000006" y="260.75800000000004" type="line"/>
      <point x="509.72600000000006" y="0.0" type="line"/>
      <point x="621.3159999999999" y="0.0" type="line"/>
      <point x="621.3159999999999" y="700.0" type="line"/>
      <point x="509.72600000000006" y="700.0" type="line"/>
      <point x="509.72600000000006" y="360.826" type="line"/>
      <point x="177.248" y="360.826" type="line"/>
      <point x="177.248" y="700.0" type="line"/>
      <point x="65.65799999999999" y="700.0" type="line"/>
    </contour>
  </outline>
</glyph>
<glyph name="I" format="2">
  <advance width="242.90600000000003"/>
  <unicode hex="0049"/>
  <anchor x="177.248" y="0.0" name="ogonek"/>
  <anchor x="121.58199999999998" y="0.0" name="bottom"/>
  <anchor x="121.58199999999998" y="700.0" name="top"/>
  <outline>
    <contour>
      <point x="65.65799999999999" y="0.0" type="line"/>
      <point x="177.248" y="0.0" type="line"/>
      <point x="177.248" y="700.0" type="line"/>
      <point x="65.65799999999999" y="700.0" type="line"/>
    </contour>
  </outline>
</glyph>
<glyph name="J" format="2">
  <advance width="483.17400000000004"/>
  <unicode hex="004A"/>
  <anchor x="242.798" y="700.0" name="top"/>
  <outline>
    <contour>
      <point x="10.386000000000001" y="21.337999999999997" type="line"/>
      <point x="73.808" y="1.1519999999999997"/>
      <point x="146.3" y="-10.228"/>
      <point x="210.358" y="-10.228" type="curve" smooth="yes"/>
      <point x="361.472" y="-10.228"/>
      <point x="427.78600000000006" y="62.822"/>
      <point x="427.78600000000006" y="204.85799999999998" type="curve" smooth="yes"/>
      <point x="427.78600000000006" y="700.0" type="line"/>
      <point x="55.442" y="700.0" type="line"/>
      <point x="55.442" y="601.91" type="line"/>
      <point x="316.196" y="601.91" type="line"/>
      <point x="316.196" y="228.342" type="line" smooth="yes"/>
      <point x="316.196" y="122.188"/>
      <point x="270.134" y="84.766"/>
      <point x="180.344" y="84.766" type="curve" smooth="yes"/>
      <point x="139.50199999999998" y="84.766"/>
      <point x="84.686" y="93.48200000000001"/>
      <point x="31.782000000000004" y="108.25" type="curve"/>
    </contour>
  </outline>
</glyph>
<glyph name="K" format="2">
  <advance width="636.48"/>
  <unicode hex="004B"/>
  <anchor x="317.38" y="700.0" name="top"/>
  <anchor x="319.12" y="0.0" name="bottom"/>
  <outline>
    <contour>
      <point x="598.14" y="-10.0" type="curve" smooth="yes"/>
      <point x="604.5799999999999" y="-10.0"/>
      <point x="611.4399999999999" y="-10.0"/>
      <point x="620.02" y="-8.0" type="curve"/>
      <point x="620.02" y="106.6" type="line"/>
      <point x="615.16" y="106.46"/>
      <point x="609.44" y="106.46"/>
      <point x="605.58" y="106.46" type="curve" smooth="yes"/>
      <point x="564.3" y="106.6"/>
      <point x="528.14" y="124.02"/>
      <point x="444.88" y="200.82" type="curve" smooth="yes"/>
      <point x="178.67999999999998" y="446.91999999999996" type="line"/>
      <point x="178.67999999999998" y="700.0" type="line"/>
      <point x="65.80000000000001" y="700.0" type="line"/>
      <point x="65.80000000000001" y="0.0" type="line"/>
      <point x="178.67999999999998" y="0.0" type="line"/>
      <point x="178.67999999999998" y="306.7" type="line"/>
      <point x="414.12" y="85.34" type="line" smooth="yes"/>
      <point x="487.08" y="16.259999999999998"/>
      <point x="540.26" y="-10.0"/>
    </contour>
    <contour>
      <point x="294.88" y="297.82" type="line"/>
      <point x="414.79999999999995" y="377.56"/>
      <point x="542.6999999999999" y="498.82"/>
      <point x="605.8000000000001" y="662.46" type="curve"/>
      <point x="519.86" y="705.72" type="line"/>
      <point x="449.88" y="545.8"/>
      <point x="316.38" y="428.82"/>
      <point x="222.68" y="362.84" type="curve"/>
    </contour>
  </outline>
</glyph>
<glyph name="L" format="2">
  <advance width="524.43"/>
  <unicode hex="004C"/>
  <anchor x="262.45799999999997" y="350.0" name="center"/>
  <anchor x="121.58199999999998" y="700.0" name="top"/>
  <anchor x="330.61" y="700.0" name="topright"/>
  <anchor x="284.748" y="0.0" name="bottom"/>
  <outline>
    <contour>
      <point x="65.65799999999999" y="0.0" type="line"/>
      <point x="507.85" y="0.0" type="line"/>
      <point x="507.85" y="98.26200000000001" type="line"/>
      <point x="177.506" y="98.26200000000001" type="line"/>
      <point x="177.506" y="700.0" type="line"/>
      <point x="65.65799999999999" y="700.0" type="line"/>
    </contour>
  </outline>
</glyph>
<glyph name="M" format="2">
  <advance width="772.1740000000001"/>
  <unicode hex="004D"/>
  <outline>
    <contour>
      <point x="66.05799999999999" y="0.0" type="line"/>
      <point x="168.704" y="0.0" type="line"/>
      <point x="168.704" y="539.128" type="line"/>
      <point x="357.78599999999994" y="210.32999999999998" type="line"/>
      <point x="411.58200000000005" y="210.32999999999998" type="line"/>
      <point x="603.4699999999999" y="542.622" type="line"/>
      <point x="603.4699999999999" y="0.0" type="line"/>
      <point x="706.116" y="0.0" type="line"/>
      <point x="706.116" y="700.0" type="line"/>
      <point x="595.3" y="700.0" type="line"/>
      <point x="388.26399999999995" y="339.21799999999996" type="line"/>
      <point x="181.604" y="700.0" type="line"/>
      <point x="66.05799999999999" y="700.0" type="line"/>
    </contour>
  </outline>
</glyph>
<glyph name="N" format="2">
  <advance width="675.1999999999999"/>
  <unicode hex="004E"/>
  <anchor x="337.6" y="700.0" name="top"/>
  <anchor x="337.6" y="0.0" name="bottom"/>
  <outline>
    <contour>
      <point x="65.8" y="0.0" type="line"/>
      <point x="166.64000000000001" y="0.0" type="line"/>
      <point x="166.64000000000001" y="519.8000000000001" type="line"/>
      <point x="503.40000000000003" y="-1.72" type="line"/>
      <point x="609.4" y="-1.72" type="line"/>
      <point x="609.4" y="700.0" type="line"/>
      <point x="508.56" y="700.0" type="line"/>
      <point x="508.56" y="174.45999999999998" type="line"/>
      <point x="171.66" y="702.28" type="line"/>
      <point x="65.8" y="702.28" type="line"/>
    </contour>
  </outline>
</glyph>
<glyph name="O" format="2">
  <advance width="695.4699999999999"/>
  <unicode hex="004F"/>
  <anchor x="415.7" y="2.58" name="ogonek"/>
  <anchor x="346.88" y="700.0" name="top"/>
  <anchor x="524.39" y="684.74" name="topright"/>
  <anchor x="347.30999999999995" y="0.0" name="bottom"/>
  <outline>
    <contour>
      <point x="346.88" y="79.52" type="curve" smooth="yes"/>
      <point x="241.82999999999998" y="79.52"/>
      <point x="153.55" y="134.62"/>
      <point x="153.55" y="349.43" type="curve" smooth="yes"/>
      <point x="153.55" y="568.23"/>
      <point x="240.97" y="621.34"/>
      <point x="346.88" y="621.34" type="curve" smooth="yes"/>
      <point x="454.65" y="621.34"/>
      <point x="541.35" y="567.94"/>
      <point x="541.35" y="349.86" type="curve" smooth="yes"/>
      <point x="541.35" y="133.78"/>
      <point x="454.65" y="79.52"/>
    </contour>
    <contour>
      <point x="347.30999999999995" y="-10.0" type="curve" smooth="yes"/>
      <point x="529.13" y="-10.0"/>
      <point x="655.66" y="71.47999999999999"/>
      <point x="655.66" y="352.29" type="curve" smooth="yes"/>
      <point x="655.66" y="627.66"/>
      <point x="530.15" y="710.0"/>
      <point x="346.88" y="710.0" type="curve" smooth="yes"/>
      <point x="163.46999999999997" y="710.0"/>
      <point x="39.809999999999995" y="626.66"/>
      <point x="39.809999999999995" y="349.86" type="curve" smooth="yes"/>
      <point x="39.809999999999995" y="75.03999999999999"/>
      <point x="167.33999999999997" y="-10.0"/>
    </contour>
  </outline>
</glyph>
<glyph name="P" format="2">
  <advance width="628.5"/>
  <unicode hex="0050"/>
  <outline>
    <contour>
      <point x="65.65799999999999" y="0.0" type="line"/>
      <point x="177.506" y="0.0" type="line"/>
      <point x="177.506" y="227.12" type="line"/>
      <point x="252.778" y="224.14600000000002"/>
      <point x="266.968" y="223.918"/>
      <point x="335.73999999999995" y="223.918" type="curve" smooth="yes"/>
      <point x="527.904" y="223.918"/>
      <point x="600.558" y="294.332"/>
      <point x="600.558" y="473.568" type="curve" smooth="yes"/>
      <point x="600.558" y="644.194"/>
      <point x="540.186" y="710.0"/>
      <point x="305.43800000000005" y="710.0" type="curve" smooth="yes"/>
      <point x="267.06199999999995" y="710.0"/>
      <point x="193.798" y="708.0859999999999"/>
      <point x="65.65799999999999" y="701.884" type="curve"/>
    </contour>
    <contour>
      <point x="177.76399999999998" y="615.57" type="line"/>
      <point x="252.306" y="619.8820000000001"/>
      <point x="279.408" y="620.6800000000001"/>
      <point x="313.52" y="620.6800000000001" type="curve" smooth="yes"/>
      <point x="453.40200000000004" y="620.6800000000001"/>
      <point x="487.50600000000003" y="578.176"/>
      <point x="487.50600000000003" y="475.466" type="curve" smooth="yes"/>
      <point x="487.50600000000003" y="357.082"/>
      <point x="449.918" y="313.664"/>
      <point x="303.316" y="313.664" type="curve" smooth="yes"/>
      <point x="256.902" y="313.664"/>
      <point x="230.51" y="314.52000000000004"/>
      <point x="177.76399999999998" y="316.74999999999994" type="curve"/>
    </contour>
  </outline>
</glyph>
<glyph name="Q" format="2">
  <advance width="695.728"/>
  <unicode hex="0051"/>
  <outline>
    <contour>
      <point x="432.672" y="23.843999999999998" type="curve"/>
      <point x="337.67999999999995" y="4.332" type="line"/>
      <point x="375.916" y="-132.68"/>
      <point x="426.204" y="-196.616"/>
      <point x="515.3399999999999" y="-196.616" type="curve" smooth="yes"/>
      <point x="544.124" y="-196.616"/>
      <point x="576.876" y="-190.476"/>
      <point x="609.844" y="-177.368" type="curve"/>
      <point x="595.62" y="-85.89200000000001" type="line"/>
      <point x="574.3919999999999" y="-95.592"/>
      <point x="553.24" y="-100.21600000000001"/>
      <point x="534.54" y="-100.21600000000001" type="curve" smooth="yes"/>
      <point x="487.052" y="-100.21600000000001"/>
      <point x="458.62" y="-62.135999999999996"/>
    </contour>
    <component base="O"/>
  </outline>
</glyph>
<glyph name="R" format="2">
  <advance width="665.32"/>
  <unicode hex="0052"/>
  <anchor x="320.84" y="700.0" name="top"/>
  <anchor x="329.09999999999997" y="0.0" name="bottom"/>
  <outline>
    <contour>
      <point x="622.66" y="-10.0" type="curve" smooth="yes"/>
      <point x="635.4" y="-10.0"/>
      <point x="644.8399999999999" y="-8.0"/>
      <point x="652.28" y="-7.0" type="curve"/>
      <point x="651.14" y="100.58000000000001" type="line"/>
      <point x="647.1400000000001" y="100.44"/>
      <point x="639.0" y="99.44"/>
      <point x="636.14" y="99.44" type="curve" smooth="yes"/>
      <point x="588.58" y="99.44"/>
      <point x="527.8000000000001" y="156.12"/>
      <point x="438.58000000000004" y="287.05999999999995" type="curve"/>
      <point x="536.96" y="316.53999999999996"/>
      <point x="594.6800000000001" y="377.26"/>
      <point x="594.6800000000001" y="501.24" type="curve" smooth="yes"/>
      <point x="594.6800000000001" y="653.96"/>
      <point x="512.3599999999999" y="710.0"/>
      <point x="302.3" y="710.0" type="curve" smooth="yes"/>
      <point x="233.72" y="710.0"/>
      <point x="163.48000000000002" y="707.14"/>
      <point x="65.80000000000001" y="701.28" type="curve"/>
      <point x="65.80000000000001" y="0.0" type="line"/>
      <point x="178.67999999999998" y="0.0" type="line"/>
      <point x="178.67999999999998" y="259.84000000000003" type="line"/>
      <point x="211.74" y="258.7"/>
      <point x="248.82000000000002" y="258.56"/>
      <point x="279.74" y="258.56" type="curve" smooth="yes"/>
      <point x="291.14" y="258.56"/>
      <point x="316.16" y="258.7"/>
      <point x="327.56" y="259.7" type="curve"/>
      <point x="448.16" y="66.58"/>
      <point x="532.4399999999999" y="-10.0"/>
    </contour>
    <contour>
      <point x="300.52" y="351.66" type="curve" smooth="yes"/>
      <point x="261.0" y="351.66"/>
      <point x="225.78" y="352.65999999999997"/>
      <point x="178.67999999999998" y="354.65999999999997" type="curve"/>
      <point x="178.67999999999998" y="615.48" type="line"/>
      <point x="234.38" y="619.48"/>
      <point x="255.78" y="619.62"/>
      <point x="305.02" y="619.62" type="curve" smooth="yes"/>
      <point x="437.41999999999996" y="619.62"/>
      <point x="478.36" y="584.08"/>
      <point x="478.36" y="486.48" type="curve" smooth="yes"/>
      <point x="478.36" y="385.18"/>
      <point x="421.38" y="351.66"/>
    </contour>
  </outline>
</glyph>
<glyph name="S" format="2">
  <advance width="586.76"/>
  <unicode hex="0053"/>
  <anchor x="298.24" y="700.0" name="top"/>
  <anchor x="289.94" y="0.0" name="bottom"/>
  <outline>
    <contour>
      <point x="524.8199999999999" y="677.6999999999999" type="line"/>
      <point x="475.22" y="694.42"/>
      <point x="386.76" y="710.0"/>
      <point x="308.82000000000005" y="710.0" type="curve" smooth="yes"/>
      <point x="128.38" y="710.0"/>
      <point x="39.38" y="629.9600000000002"/>
      <point x="39.38" y="516.78" type="curve" smooth="yes"/>
      <point x="39.38" y="415.6"/>
      <point x="97.12" y="359.71999999999997"/>
      <point x="232.6" y="312.76000000000005" type="curve" smooth="yes"/>
      <point x="378.44" y="265.50000000000006"/>
      <point x="443.64000000000004" y="238.42000000000002"/>
      <point x="443.64000000000004" y="177.2" type="curve" smooth="yes"/>
      <point x="443.64000000000004" y="114.02000000000001"/>
      <point x="387.0" y="78.8"/>
      <point x="280.38" y="78.8" type="curve" smooth="yes"/>
      <point x="207.92" y="78.8"/>
      <point x="108.64" y="95.8"/>
      <point x="42.58" y="119.1" type="curve"/>
      <point x="19.099999999999998" y="32.16" type="line"/>
      <point x="85.73999999999998" y="7.279999999999999"/>
      <point x="194.88" y="-10.0"/>
      <point x="274.35999999999996" y="-10.0" type="curve" smooth="yes"/>
      <point x="456.76" y="-10.0"/>
      <point x="558.3799999999999" y="61.73999999999999"/>
      <point x="558.3799999999999" y="186.07999999999998" type="curve" smooth="yes"/>
      <point x="558.3799999999999" y="291.42"/>
      <point x="495.76000000000005" y="344.58000000000004"/>
      <point x="346.38" y="390.96000000000004" type="curve" smooth="yes"/>
      <point x="206.14" y="434.2"/>
      <point x="154.12" y="463.58000000000004"/>
      <point x="154.12" y="523.66" type="curve" smooth="yes"/>
      <point x="154.12" y="585.42"/>
      <point x="213.48000000000002" y="619.62"/>
      <point x="308.82" y="619.62" type="curve" smooth="yes"/>
      <point x="372.14000000000004" y="619.62"/>
      <point x="451.88" y="607.62"/>
      <point x="502.34" y="590.04" type="curve"/>
    </contour>
  </outline>
</glyph>
<glyph name="T" format="2">
  <advance width="559.2520000000001"/>
  <unicode hex="0054"/>
  <anchor x="279.62600000000003" y="700.0" name="top"/>
  <anchor x="279.62600000000003" y="0.0" name="bottom"/>
  <outline>
    <contour>
      <point x="547.574" y="600.934" type="line"/>
      <point x="547.574" y="700.0" type="line"/>
      <point x="11.678" y="700.0" type="line"/>
      <point x="11.678" y="600.934" type="line"/>
      <point x="223.96" y="600.934" type="line"/>
      <point x="223.96" y="0.0" type="line"/>
      <point x="335.54999999999995" y="0.0" type="line"/>
      <point x="335.54999999999995" y="600.934" type="line"/>
    </contour>
  </outline>
</glyph>
<glyph name="U" format="2">
  <advance width="664.6"/>
  <unicode hex="0055"/>
  <anchor x="399.66200000000003" y="0.516" name="ogonek"/>
  <anchor x="332.59999999999997" y="700.0" name="top"/>
  <anchor x="609.212" y="700.0" name="topright"/>
  <anchor x="332.59999999999997" y="0.0" name="bottom"/>
  <outline>
    <contour>
      <point x="55.388" y="215.94400000000002" type="line"/>
      <point x="55.388" y="43.599999999999994"/>
      <point x="173.772" y="-10.0"/>
      <point x="332.084" y="-10.0" type="curve" smooth="yes"/>
      <point x="492.202" y="-10.0"/>
      <point x="609.212" y="43.599999999999994"/>
      <point x="609.212" y="215.94400000000002" type="curve" smooth="yes"/>
      <point x="609.212" y="700.0" type="line"/>
      <point x="498.482" y="700.0" type="line"/>
      <point x="498.482" y="214.99800000000002" type="line" smooth="yes"/>
      <point x="498.482" y="109.14200000000001"/>
      <point x="419.422" y="81.552"/>
      <point x="332.6" y="81.552" type="curve" smooth="yes"/>
      <point x="247.24" y="81.552"/>
      <point x="165.602" y="107.59400000000001"/>
      <point x="165.602" y="214.99800000000002" type="curve" smooth="yes"/>
      <point x="165.602" y="700.0" type="line"/>
      <point x="55.388" y="700.0" type="line"/>
    </contour>
  </outline>
</glyph>
<glyph name="V" format="2">
  <advance width="614.1560000000001"/>
  <unicode hex="0056"/>
  <outline>
    <contour>
      <point x="244.67200000000003" y="0.0" type="line"/>
      <point x="371.72" y="0.0" type="line"/>
      <point x="609.036" y="698.72" type="line"/>
      <point x="491.072" y="702.452" type="line"/>
      <point x="308.53999999999996" y="108.10000000000001" type="line"/>
      <point x="123.6" y="702.452" type="line"/>
      <point x="5.119999999999999" y="698.72" type="line"/>
    </contour>
  </outline>
</glyph>
<glyph name="W" format="2">
  <advance width="806.8399999999999"/>
  <unicode hex="0057"/>
  <anchor x="402.91999999999996" y="700.0" name="top"/>
  <anchor x="402.91999999999996" y="0.0" name="bottom"/>
  <outline>
    <contour>
      <point x="648.2439999999999" y="0.0" type="line"/>
      <point x="801.172" y="699.376" type="line"/>
      <point x="681.7239999999999" y="701.7959999999999" type="line"/>
      <point x="591.492" y="132.256" type="line"/>
      <point x="454.652" y="670.5519999999999" type="line"/>
      <point x="357.52000000000004" y="670.5519999999999" type="line"/>
      <point x="217.75600000000003" y="131.56799999999998" type="line"/>
      <point x="124.084" y="701.7959999999999" type="line"/>
      <point x="5.668" y="699.376" type="line"/>
      <point x="156.016" y="0.0" type="line"/>
      <point x="266.52000000000004" y="0.0" type="line"/>
      <point x="400.68399999999997" y="503.94000000000005" type="line"/>
      <point x="529.6880000000001" y="0.0" type="line"/>
    </contour>
  </outline>
</glyph>
<glyph name="X" format="2">
  <advance width="609.6"/>
  <unicode hex="0058"/>
  <outline>
    <contour>
      <point x="8.659999999999998" y="2.2800000000000002" type="line"/>
      <point x="136.46" y="-3.42" type="line"/>
      <point x="302.94" y="271.76000000000005" type="line"/>
      <point x="468.11999999999995" y="-3.42" type="line"/>
      <point x="597.5" y="2.2800000000000002" type="line"/>
      <point x="374.41999999999996" y="361.99999999999994" type="line"/>
      <point x="585.9399999999999" y="697.58" type="line"/>
      <point x="461.7199999999999" y="702.4200000000001" type="line"/>
      <point x="313.53999999999996" y="444.94" type="line"/>
      <point x="159.92" y="702.4200000000001" type="line"/>
      <point x="27.099999999999998" y="697.58" type="line"/>
      <point x="241.34" y="359.0" type="line"/>
    </contour>
  </outline>
</glyph>
<glyph name="Y" format="2">
  <advance width="605.3199999999999"/>
  <unicode hex="0059"/>
  <anchor x="303.002" y="700.0" name="top"/>
  <anchor x="304.25600000000003" y="0.0" name="bottom"/>
  <outline>
    <contour>
      <point x="248.67400000000004" y="0.0" type="line"/>
      <point x="360.264" y="0.0" type="line"/>
      <point x="360.264" y="271.63" type="line"/>
      <point x="599.5740000000001" y="697.15" type="line"/>
      <point x="477.59200000000004" y="702.85" type="line"/>
      <point x="304.942" y="345.852" type="line"/>
      <point x="127.04799999999999" y="702.85" type="line"/>
      <point x="4.378" y="697.15" type="line"/>
      <point x="248.67400000000004" y="271.63" type="line"/>
    </contour>
  </outline>
</glyph>
<glyph name="Z" format="2">
  <advance width="581.9560000000001"/>
  <unicode hex="005A"/>
  <anchor x="293.63199999999995" y="350.0" name="center"/>
  <anchor x="293.63199999999995" y="0.0" name="bottom"/>
  <anchor x="294.576" y="700.0" name="top"/>
  <outline>
    <contour>
      <point x="24.42" y="0.0" type="line"/>
      <point x="561.1519999999998" y="0.0" type="line"/>
      <point x="561.1519999999998" y="92.156" type="line"/>
      <point x="154.872" y="92.156" type="line"/>
      <point x="154.872" y="94.156" type="line"/>
      <point x="539.284" y="611.04" type="line"/>
      <point x="539.284" y="700.0" type="line"/>
      <point x="43.65200000000001" y="700.0" type="line"/>
      <point x="43.65200000000001" y="607.8439999999999" type="line"/>
      <point x="411.412" y="607.8439999999999" type="line"/>
      <point x="411.412" y="605.844" type="line"/>
      <point x="24.42" y="88.96" type="line"/>
    </contour>
  </outline>
</glyph>
<glyph name="bracketleft" format="2">
  <advance width="312.392"/>
  <unicode hex="005B"/>
  <outline>
    <contour>
      <point x="146.494" y="-133.24" type="line"/>
      <point x="146.494" y="663.24" type="line"/>
      <point x="291.252" y="663.24" type="line"/>
      <point x="291.252" y="740.0" type="line"/>
      <point x="61.220000000000006" y="740.0" type="line"/>
      <point x="61.220000000000006" y="-210.0" type="line"/>
      <point x="291.252" y="-210.0" type="line"/>
      <point x="291.252" y="-133.24" type="line"/>
    </contour>
  </outline>
</glyph>
<glyph name="backslash" format="2">
  <advance width="377.31600000000003"/>
  <unicode hex="005C"/>
  <outline>
    <contour>
      <point x="91.018" y="740.0" type="line"/>
      <point x="2.104" y="740.0" type="line"/>
      <point x="286.556" y="-210.0" type="line"/>
      <point x="375.212" y="-210.0" type="line"/>
    </contour>
  </outline>
</glyph>
<glyph name="bracketright" format="2">
  <advance width="312.392"/>
  <unicode hex="005D"/>
  <outline>
    <contour>
      <point x="21.14" y="-133.24" type="line"/>
      <point x="21.14" y="-210.0" type="line"/>
      <point x="251.172" y="-210.0" type="line"/>
      <point x="251.172" y="740.0" type="line"/>
      <point x="21.14" y="740.0" type="line"/>
      <point x="21.14" y="663.24" type="line"/>
      <point x="165.898" y="663.24" type="line"/>
      <point x="165.898" y="-133.24" type="line"/>
    </contour>
  </outline>
</glyph>
<glyph name="asciicircum" format="2">
  <advance width="497.084"/>
  <unicode hex="005E"/>
  <outline>
    <contour>
      <point x="45.12" y="255.52599999999998" type="line"/>
      <point x="130.216" y="255.52599999999998" type="line"/>
      <point x="248.542" y="594.836" type="line"/>
      <point x="367.29800000000006" y="255.52599999999998" type="line"/>
      <point x="451.964" y="255.52599999999998" type="line"/>
      <point x="297.84400000000005" y="705.7" type="line"/>
      <point x="199.24" y="705.7" type="line"/>
    </contour>
  </outline>
</glyph>
<glyph name="underscore" format="2">
  <advance width="776.324"/>
  <unicode hex="005F"/>
  <outline>
    <contour>
      <point x="8.6" y="-167.56199999999998" type="line"/>
      <point x="767.724" y="-167.56199999999998" type="line"/>
      <point x="767.724" y="-83.922" type="line"/>
      <point x="8.6" y="-83.922" type="line"/>
    </contour>
  </outline>
</glyph>
<glyph name="a" format="2">
  <advance width="526.32"/>
  <unicode hex="0061"/>
  <anchor x="523.04" y="9.32" name="ogonek"/>
  <anchor x="259.96" y="0.0" name="bottom"/>
  <anchor x="258.52000000000004" y="538.6" name="top"/>
  <outline>
    <contour>
      <point x="26.68" y="135.22" type="curve" smooth="yes"/>
      <point x="26.68" y="42.04"/>
      <point x="83.28" y="-10.0"/>
      <point x="166.74" y="-10.0" type="curve" smooth="yes"/>
      <point x="246.85999999999996" y="-10.0"/>
      <point x="305.96" y="21.96"/>
      <point x="355.53999999999996" y="61.38" type="curve"/>
      <point x="366.71999999999997" y="12.700000000000001"/>
      <point x="396.6" y="-10.0"/>
      <point x="447.06" y="-10.0" type="curve" smooth="yes"/>
      <point x="476.26" y="-10.0"/>
      <point x="501.1599999999999" y="-2.8400000000000003"/>
      <point x="523.04" y="10.18" type="curve"/>
      <point x="512.7399999999999" y="89.96" type="line"/>
      <point x="504.18" y="85.82"/>
      <point x="494.18" y="84.67999999999999"/>
      <point x="486.76000000000005" y="84.67999999999999" type="curve" smooth="yes"/>
      <point x="467.35999999999996" y="84.67999999999999"/>
      <point x="454.79999999999995" y="95.52"/>
      <point x="454.79999999999995" y="136.48000000000002" type="curve" smooth="yes"/>
      <point x="454.79999999999995" y="374.22" type="line" smooth="yes"/>
      <point x="454.79999999999995" y="489.56"/>
      <point x="386.06" y="548.6"/>
      <point x="239.62" y="548.6" type="curve" smooth="yes"/>
      <point x="183.44" y="548.6"/>
      <point x="116.82" y="538.02"/>
      <point x="58.52" y="520.3000000000001" type="curve"/>
      <point x="77.42" y="433.36" type="line"/>
      <point x="134.28" y="450.36"/>
      <point x="191.88" y="456.35999999999996"/>
      <point x="232.88" y="456.35999999999996" type="curve" smooth="yes"/>
      <point x="306.38" y="456.35999999999996"/>
      <point x="345.5" y="427.56"/>
      <point x="345.5" y="373.36" type="curve" smooth="yes"/>
      <point x="345.5" y="310.8" type="line"/>
      <point x="132.06" y="293.1"/>
      <point x="26.68" y="265.65999999999997"/>
    </contour>
    <contour>
      <point x="136.98" y="142.79999999999998" type="curve" smooth="yes"/>
      <point x="136.98" y="220.98"/>
      <point x="218.24" y="238.95999999999998"/>
      <point x="345.5" y="248.8" type="curve"/>
      <point x="345.5" y="126.52000000000001" type="line"/>
      <point x="309.00000000000006" y="90.14"/>
      <point x="254.64" y="65.76"/>
      <point x="207.3" y="65.76" type="curve" smooth="yes"/>
      <point x="164.07999999999998" y="65.76"/>
      <point x="136.98" y="91.58"/>
    </contour>
  </outline>
</glyph>
<glyph name="b" format="2">
  <advance width="550.718"/>
  <unicode hex="0062"/>
  <outline>
    <contour>
      <point x="57.51" y="15.014" type="line"/>
      <point x="133.35999999999999" y="-1.3639999999999999"/>
      <point x="200.66" y="-10.0"/>
      <point x="257.59200000000004" y="-10.0" type="curve" smooth="yes"/>
      <point x="438.338" y="-10.0"/>
      <point x="516.36" y="74.996"/>
      <point x="516.36" y="283.21200000000005" type="curve" smooth="yes"/>
      <point x="516.36" y="455.892"/>
      <point x="451.3" y="548.6"/>
      <point x="333.56" y="548.6" type="curve" smooth="yes"/>
      <point x="277.772" y="548.6"/>
      <point x="222.952" y="530.636"/>
      <point x="165.66" y="493.2300000000001" type="curve"/>
      <point x="165.66" y="740.0" type="line"/>
      <point x="57.51" y="740.0" type="line"/>
    </contour>
    <contour>
      <point x="165.66" y="81.41999999999999" type="curve"/>
      <point x="165.66" y="413.52000000000004" type="line"/>
      <point x="215.93800000000002" y="445.12199999999996"/>
      <point x="252.842" y="457.56"/>
      <point x="294.44000000000005" y="457.56" type="curve" smooth="yes"/>
      <point x="364.80400000000003" y="457.56"/>
      <point x="404.68399999999997" y="397.826"/>
      <point x="404.68399999999997" y="275.386" type="curve" smooth="yes"/>
      <point x="404.68399999999997" y="123.67199999999998"/>
      <point x="359.778" y="68.946"/>
      <point x="260.526" y="68.946" type="curve" smooth="yes"/>
      <point x="233.43599999999998" y="68.946"/>
      <point x="202.98000000000002" y="72.79999999999998"/>
    </contour>
  </outline>
</glyph>
<glyph name="c" format="2">
  <advance width="493.65200000000004"/>
  <unicode hex="0063"/>
  <anchor x="285.7" y="538.6" name="top"/>
  <anchor x="287.332" y="0.0" name="bottom"/>
  <outline>
    <contour>
      <point x="34.788" y="261.21599999999995" type="curve" smooth="yes"/>
      <point x="34.788" y="76.72399999999999"/>
      <point x="118.384" y="-10.0"/>
      <point x="285.312" y="-10.0" type="curve" smooth="yes"/>
      <point x="346.864" y="-10.0"/>
      <point x="419.81600000000003" y="-0.14000000000000012"/>
      <point x="471.588" y="14.356" type="curve"/>
      <point x="454.172" y="94.388" type="line"/>
      <point x="405.412" y="83.932"/>
      <point x="353.47200000000004" y="77.168"/>
      <point x="307.724" y="77.168" type="curve" smooth="yes"/>
      <point x="203.872" y="77.168"/>
      <point x="144.74400000000003" y="123.636"/>
      <point x="144.74400000000003" y="262.60400000000004" type="curve" smooth="yes"/>
      <point x="144.74400000000003" y="410.888"/>
      <point x="202.916" y="460.744"/>
      <point x="306.57200000000006" y="460.744" type="curve" smooth="yes"/>
      <point x="349.0" y="460.744"/>
      <point x="400.53200000000004" y="454.52000000000004"/>
      <point x="446.43199999999996" y="444.58000000000004" type="curve"/>
      <point x="461.44" y="528.2239999999999" type="line"/>
      <point x="415.8" y="541.0"/>
      <point x="350.54400000000004" y="548.6"/>
      <point x="296.16" y="548.6" type="curve" smooth="yes"/>
      <point x="127.452" y="548.6"/>
      <point x="34.788" y="454.86800000000005"/>
    </contour>
  </outline>
</glyph>
<glyph name="d" format="2">
  <advance width="551.3199999999999"/>
  <unicode hex="0064"/>
  <anchor x="275.688" y="275.0" name="center"/>
  <anchor x="272.41599999999994" y="740.0" name="top"/>
  <anchor x="559.1600000000001" y="740.0" name="topright"/>
  <anchor x="275.688" y="0.0" name="bottom"/>
  <outline>
    <contour>
      <point x="399.288" y="-0.86" type="line"/>
      <point x="494.24000000000007" y="-0.86" type="line"/>
      <point x="494.24000000000007" y="740.0" type="line"/>
      <point x="384.80000000000007" y="740.0" type="line"/>
      <point x="384.80000000000007" y="538.732" type="line"/>
      <point x="350.12000000000006" y="545.3480000000001"/>
      <point x="313.748" y="548.6"/>
      <point x="281.516" y="548.6" type="curve" smooth="yes"/>
      <point x="112.896" y="548.6"/>
      <point x="34.099999999999994" y="457.41200000000003"/>
      <point x="34.099999999999994" y="257.79600000000005" type="curve" smooth="yes"/>
      <point x="34.099999999999994" y="84.692"/>
      <point x="99.932" y="-10.0"/>
      <point x="216.20400000000004" y="-10.0" type="curve" smooth="yes"/>
      <point x="274.4" y="-10.0"/>
      <point x="327.59599999999995" y="7.28"/>
      <point x="385.66" y="45.4" type="curve"/>
    </contour>
    <contour>
      <point x="384.80000000000007" y="124.04800000000002" type="line"/>
      <point x="335.468" y="94.08"/>
      <point x="297.704" y="81.21199999999999"/>
      <point x="256.6240000000001" y="81.21199999999999" type="curve" smooth="yes"/>
      <point x="187.032" y="81.21199999999999"/>
      <point x="146.97999999999996" y="141.57999999999998"/>
      <point x="146.97999999999996" y="267.256" type="curve" smooth="yes"/>
      <point x="146.97999999999996" y="414.92799999999994"/>
      <point x="191.284" y="467.848"/>
      <point x="289.67600000000004" y="467.848" type="curve" smooth="yes"/>
      <point x="317.712" y="467.848"/>
      <point x="347.39200000000005" y="464.59599999999995"/>
      <point x="384.80000000000007" y="455.288" type="curve"/>
    </contour>
  </outline>
</glyph>
<glyph name="e" format="2">
  <advance width="533.6080000000001"/>
  <unicode hex="0065"/>
  <anchor x="453.66400000000004" y="10.748" name="ogonek"/>
  <anchor x="277.48" y="0.0" name="bottom"/>
  <anchor x="278.004" y="538.6" name="top"/>
  <outline>
    <contour>
      <point x="276.716" y="-10.0" type="curve" smooth="yes"/>
      <point x="361.812" y="-10.0"/>
      <point x="434.616" y="1.3360000000000003"/>
      <point x="494.9" y="21.215999999999998" type="curve"/>
      <point x="481.35599999999994" y="102.108" type="line"/>
      <point x="425.456" y="88.304"/>
      <point x="357.092" y="76.99600000000001"/>
      <point x="295.72" y="76.99600000000001" type="curve" smooth="yes"/>
      <point x="198.11599999999999" y="76.99600000000001"/>
      <point x="146.12" y="119.57999999999998"/>
      <point x="146.12" y="229.70399999999998" type="curve" smooth="yes"/>
      <point x="146.12" y="236.18"/>
      <point x="146.17600000000002" y="241.82399999999998"/>
      <point x="147.092" y="248.244" type="curve"/>
      <point x="303.3" y="249.96399999999997"/>
      <point x="439.812" y="262.10400000000004"/>
      <point x="499.572" y="267.07599999999996" type="curve"/>
      <point x="500.48799999999994" y="282.28400000000005"/>
      <point x="501.43199999999996" y="300.996"/>
      <point x="501.43199999999996" y="311.23999999999995" type="curve" smooth="yes"/>
      <point x="501.43199999999996" y="478.63599999999997"/>
      <point x="433.60800000000006" y="548.6"/>
      <point x="289.91999999999996" y="548.6" type="curve" smooth="yes"/>
      <point x="144.672" y="548.6"/>
      <point x="34.099999999999994" y="472.80400000000003"/>
      <point x="34.099999999999994" y="255.10400000000004" type="curve" smooth="yes"/>
      <point x="34.099999999999994" y="70.048"/>
      <point x="122.08399999999999" y="-10.0"/>
    </contour>
    <contour>
      <point x="148.12" y="321.39599999999996" type="curve"/>
      <point x="159.96" y="439.3"/>
      <point x="220.176" y="469.428"/>
      <point x="282.18" y="469.428" type="curve" smooth="yes"/>
      <point x="355.696" y="469.428"/>
      <point x="390.216" y="431.152"/>
      <point x="391.93600000000004" y="332.208" type="curve"/>
      <point x="360.824" y="328.956"/>
      <point x="258.396" y="322.256"/>
    </contour>
  </outline>
</glyph>
<glyph name="f" format="2">
  <advance width="373.026"/>
  <unicode hex="0066"/>
  <outline>
    <contour>
      <point x="99.14200000000001" y="0.0" type="line"/>
      <point x="205.57199999999997" y="0.0" type="line"/>
      <point x="205.57199999999997" y="415.064" type="line"/>
      <point x="357.09" y="415.064" type="line"/>
      <point x="357.09" y="495.61" type="line"/>
      <point x="205.82999999999998" y="495.61" type="line"/>
      <point x="205.82999999999998" y="514.706" type="line" smooth="yes"/>
      <point x="205.82999999999998" y="621.304"/>
      <point x="242.30599999999998" y="663.748"/>
      <point x="313.05" y="663.748" type="curve" smooth="yes"/>
      <point x="342.718" y="663.748"/>
      <point x="374.174" y="658.778"/>
      <point x="407.75200000000007" y="648.956" type="curve"/>
      <point x="422.73" y="726.924" type="line"/>
      <point x="375.29200000000003" y="743.364"/>
      <point x="333.632" y="750.228"/>
      <point x="288.488" y="750.228" type="curve" smooth="yes"/>
      <point x="166.37199999999999" y="750.228"/>
      <point x="99.14200000000001" y="676.5519999999999"/>
      <point x="99.14200000000001" y="516.254" type="curve" smooth="yes"/>
      <point x="99.14200000000001" y="495.61" type="line"/>
      <point x="17.720000000000002" y="487.17199999999997" type="line"/>
      <point x="17.720000000000002" y="415.064" type="line"/>
      <point x="99.14200000000001" y="415.064" type="line"/>
    </contour>
  </outline>
</glyph>
<glyph name="g" format="2">
  <advance width="550.8319999999999"/>
  <unicode hex="0067"/>
  <anchor x="267.82400000000007" y="538.6" name="top"/>
  <anchor x="267.012" y="-214.0" name="bottom"/>
  <outline>
    <contour>
      <point x="255.22400000000002" y="-220.0" type="curve" smooth="yes"/>
      <point x="432.82800000000003" y="-220.0"/>
      <point x="533.3639999999999" y="-153.232"/>
      <point x="533.3639999999999" y="-38.94800000000001" type="curve" smooth="yes"/>
      <point x="533.3639999999999" y="50.96"/>
      <point x="476.876" y="100.53200000000001"/>
      <point x="368.312" y="100.53200000000001" type="curve" smooth="yes"/>
      <point x="206.31199999999998" y="100.53200000000001" type="line" smooth="yes"/>
      <point x="153.58800000000002" y="100.53200000000001"/>
      <point x="130.104" y="119.324"/>
      <point x="130.104" y="151.62" type="curve" smooth="yes"/>
      <point x="130.104" y="181.384"/>
      <point x="149.72" y="200.652"/>
      <point x="182.95200000000003" y="216.94" type="curve"/>
      <point x="121.624" y="238.00799999999998" type="line"/>
      <point x="72.82" y="210.75600000000003"/>
      <point x="45.687999999999995" y="175.56"/>
      <point x="45.687999999999995" y="123.792" type="curve" smooth="yes"/>
      <point x="45.687999999999995" y="49.396"/>
      <point x="104.46799999999999" y="9.235999999999999"/>
      <point x="208.724" y="9.235999999999999" type="curve" smooth="yes"/>
      <point x="334.85600000000005" y="9.235999999999999" type="line" smooth="yes"/>
      <point x="405.03200000000004" y="9.235999999999999"/>
      <point x="430.80400000000003" y="-9.648"/>
      <point x="430.80400000000003" y="-50.876" type="curve" smooth="yes"/>
      <point x="430.80400000000003" y="-107.91600000000001"/>
      <point x="369.424" y="-141.60399999999998"/>
      <point x="262.964" y="-141.60399999999998" type="curve" smooth="yes"/>
      <point x="157.372" y="-141.60399999999998"/>
      <point x="111.256" y="-112.56"/>
      <point x="111.256" y="-56.128" type="curve" smooth="yes"/>
      <point x="111.256" y="-18.692"/>
      <point x="131.56400000000002" y="4.808"/>
      <point x="172.044" y="24.956" type="curve"/>
      <point x="106.408" y="47.38" type="line"/>
      <point x="47.092" y="19.267999999999997"/>
      <point x="19.016000000000002" y="-22.712"/>
      <point x="19.016000000000002" y="-77.684" type="curve" smooth="yes"/>
      <point x="19.016000000000002" y="-172.0"/>
      <point x="98.53999999999999" y="-220.0"/>
    </contour>
    <contour>
      <point x="265.404" y="193.688" type="curve" smooth="yes"/>
      <point x="405.604" y="193.688"/>
      <point x="478.25199999999995" y="253.708"/>
      <point x="478.25199999999995" y="370.7" type="curve" smooth="yes"/>
      <point x="478.25199999999995" y="488.552"/>
      <point x="405.604" y="548.6"/>
      <point x="265.404" y="548.6" type="curve" smooth="yes"/>
      <point x="125.20400000000001" y="548.6"/>
      <point x="52.556" y="488.552"/>
      <point x="52.556" y="370.7" type="curve" smooth="yes"/>
      <point x="52.556" y="253.708"/>
      <point x="125.20400000000001" y="193.688"/>
    </contour>
    <contour>
      <point x="265.404" y="266.868" type="curve" smooth="yes"/>
      <point x="193.10399999999998" y="266.868"/>
      <point x="157.69600000000003" y="297.30400000000003"/>
      <point x="157.69600000000003" y="370.7" type="curve" smooth="yes"/>
      <point x="157.69600000000003" y="445.9"/>
      <point x="193.10399999999998" y="476.28000000000003"/>
      <point x="265.404" y="476.28000000000003" type="curve" smooth="yes"/>
      <point x="337.704" y="476.28000000000003"/>
      <point x="373.112" y="445.9"/>
      <point x="373.112" y="370.7" type="curve" smooth="yes"/>
      <point x="373.112" y="297.30400000000003"/>
      <point x="337.704" y="266.868"/>
    </contour>
    <contour>
      <point x="432.81600000000003" y="448.63599999999997" type="line"/>
      <point x="446.376" y="475.092"/>
      <point x="467.35599999999994" y="486.7079999999999"/>
      <point x="495.14799999999997" y="486.7079999999999" type="curve" smooth="yes"/>
      <point x="507.00800000000004" y="486.7079999999999"/>
      <point x="518.364" y="485.79200000000003"/>
      <point x="528.28" y="482.96" type="curve"/>
      <point x="540.516" y="567.4599999999999" type="line"/>
      <point x="526.768" y="571.152"/>
      <point x="513.0" y="572.928"/>
      <point x="496.86799999999994" y="572.928" type="curve" smooth="yes"/>
      <point x="443.988" y="572.928"/>
      <point x="406.38" y="550.2919999999999"/>
      <point x="388.88399999999996" y="506.44000000000005" type="curve"/>
    </contour>
  </outline>
</glyph>
<glyph name="h" format="2">
  <advance width="554.392"/>
  <unicode hex="0068"/>
  <anchor x="275.116" y="395.0" name="center"/>
  <anchor x="276.836" y="0.0" name="bottom"/>
  <anchor x="279.75199999999995" y="740.0" name="top"/>
  <outline>
    <contour>
      <point x="57.08" y="0.0" type="line"/>
      <point x="166.52" y="0.0" type="line"/>
      <point x="166.52" y="417.28000000000003" type="line"/>
      <point x="212.852" y="440.23999999999995"/>
      <point x="252.764" y="455.66799999999995"/>
      <point x="299.768" y="455.66799999999995" type="curve" smooth="yes"/>
      <point x="358.30400000000003" y="455.66799999999995"/>
      <point x="387.872" y="425.176"/>
      <point x="387.872" y="365.712" type="curve" smooth="yes"/>
      <point x="387.872" y="0.0" type="line"/>
      <point x="497.31199999999995" y="0.0" type="line"/>
      <point x="497.31199999999995" y="397.532" type="line" smooth="yes"/>
      <point x="497.31199999999995" y="496.69200000000006"/>
      <point x="442.648" y="548.6"/>
      <point x="345.07599999999996" y="548.6" type="curve" smooth="yes"/>
      <point x="279.368" y="548.6"/>
      <point x="226.444" y="528.8439999999999"/>
      <point x="166.52" y="494.18000000000006" type="curve"/>
      <point x="166.52" y="740.0" type="line"/>
      <point x="57.08" y="740.0" type="line"/>
    </contour>
  </outline>
</glyph>
<glyph name="i" format="2">
  <advance width="223.17000000000002"/>
  <unicode hex="0069"/>
  <anchor x="165.432" y="0.0" name="ogonek"/>
  <anchor x="111.714" y="0.0" name="bottom"/>
  <outline>
    <contour>
      <point x="111.714" y="630.732" type="curve" smooth="yes"/>
      <point x="159.022" y="630.732"/>
      <point x="176.622" y="647.384"/>
      <point x="176.622" y="687.722" type="curve" smooth="yes"/>
      <point x="176.622" y="728.5759999999999"/>
      <point x="158.50600000000003" y="744.97"/>
      <point x="111.714" y="744.97" type="curve" smooth="yes"/>
      <point x="64.664" y="744.97"/>
      <point x="46.548" y="728.5759999999999"/>
      <point x="46.548" y="687.722" type="curve" smooth="yes"/>
      <point x="46.548" y="647.126"/>
      <point x="65.23400000000001" y="630.732"/>
    </contour>
    <contour>
      <point x="57.51" y="0.0" type="line"/>
      <point x="165.66" y="0.0" type="line"/>
      <point x="165.66" y="538.6" type="line"/>
      <point x="57.51" y="538.6" type="line"/>
    </contour>
  </outline>
</glyph>
<glyph name="j" format="2">
  <advance width="228.09999999999997"/>
  <unicode hex="006A"/>
  <outline>
    <contour>
      <point x="170.818" y="538.6" type="line"/>
      <point x="62.668" y="538.6" type="line"/>
      <point x="62.668" y="28.018" type="line" smooth="yes"/>
      <point x="62.668" y="-50.37799999999999"/>
      <point x="43.22" y="-92.59800000000001"/>
      <point x="2.1359999999999992" y="-110.838" type="curve" smooth="yes"/>
      <point x="-5.809999999999999" y="-113.916"/>
      <point x="-13.24" y="-115.64999999999999"/>
      <point x="-22.53" y="-116.298" type="curve"/>
      <point x="-25.857999999999997" y="-207.54200000000003" type="line"/>
      <point x="-5.937999999999999" y="-208.36"/>
      <point x="17.252000000000002" y="-207.004"/>
      <point x="34.654" y="-203.58399999999997" type="curve" smooth="yes"/>
      <point x="129.876" y="-182.95"/>
      <point x="170.818" y="-108.576"/>
      <point x="170.818" y="22.686" type="curve" smooth="yes"/>
    </contour>
    <contour>
      <point x="116.41600000000001" y="630.732" type="curve" smooth="yes"/>
      <point x="163.382" y="630.732"/>
      <point x="181.324" y="647.384"/>
      <point x="181.324" y="687.722" type="curve" smooth="yes"/>
      <point x="181.324" y="728.5759999999999"/>
      <point x="162.86599999999999" y="744.97"/>
      <point x="116.41600000000001" y="744.97" type="curve" smooth="yes"/>
      <point x="69.366" y="744.97"/>
      <point x="51.25" y="728.5759999999999"/>
      <point x="51.25" y="687.722" type="curve" smooth="yes"/>
      <point x="51.25" y="647.126"/>
      <point x="69.93599999999999" y="630.732"/>
    </contour>
  </outline>
</glyph>
<glyph name="l" format="2">
  <advance width="278.276"/>
  <unicode hex="006C"/>
  <anchor x="139.38000000000002" y="395.0" name="center"/>
  <anchor x="111.714" y="740.0" name="top"/>
  <anchor x="231.01000000000002" y="740.0" name="topright"/>
  <anchor x="166.52" y="0.0" name="bottom"/>
  <outline>
    <contour>
      <point x="165.66" y="740.0" type="line"/>
      <point x="57.51" y="740.0" type="line"/>
      <point x="57.51" y="152.044" type="line" smooth="yes"/>
      <point x="57.51" y="26.77"/>
      <point x="104.916" y="-10.0"/>
      <point x="188.94400000000002" y="-10.0" type="curve" smooth="yes"/>
      <point x="223.308" y="-10.0"/>
      <point x="254.34199999999998" y="-1.7"/>
      <point x="278.994" y="8.77" type="curve"/>
      <point x="268.28600000000006" y="92.842" type="line"/>
      <point x="249.574" y="87.27400000000002"/>
      <point x="233.294" y="84.218"/>
      <point x="219.302" y="84.218" type="curve" smooth="yes"/>
      <point x="188.436" y="84.218"/>
      <point x="165.66" y="96.69200000000001"/>
      <point x="165.66" y="161.418" type="curve" smooth="yes"/>
    </contour>
  </outline>
</glyph>
<glyph name="m" format="2">
  <advance width="834.268"/>
  <unicode hex="006D"/>
  <outline>
    <contour>
      <point x="57.51" y="0.0" type="line"/>
      <point x="165.91799999999998" y="0.0" type="line"/>
      <point x="165.91799999999998" y="417.396" type="line"/>
      <point x="204.628" y="440.042"/>
      <point x="240.14400000000003" y="454.95799999999997"/>
      <point x="282.27" y="454.95799999999997" type="curve" smooth="yes"/>
      <point x="346.90600000000006" y="454.95799999999997"/>
      <point x="363.758" y="409.436"/>
      <point x="363.758" y="365.002" type="curve" smooth="yes"/>
      <point x="363.758" y="0.0" type="line"/>
      <point x="472.166" y="0.0" type="line"/>
      <point x="472.166" y="372.914" type="line" smooth="yes"/>
      <point x="472.166" y="387.29400000000004"/>
      <point x="470.684" y="403.01599999999996"/>
      <point x="466.294" y="417.51000000000005" type="curve"/>
      <point x="498.34399999999994" y="436.282"/>
      <point x="539.444" y="456.27"/>
      <point x="587.1539999999999" y="456.27" type="curve" smooth="yes"/>
      <point x="652.5300000000001" y="456.27"/>
      <point x="668.866" y="410.692"/>
      <point x="668.866" y="365.914" type="curve" smooth="yes"/>
      <point x="668.866" y="0.0" type="line"/>
      <point x="777.274" y="0.0" type="line"/>
      <point x="777.274" y="398.67999999999995" type="line" smooth="yes"/>
      <point x="777.274" y="480.302"/>
      <point x="736.6899999999999" y="548.6"/>
      <point x="635.558" y="548.6" type="curve" smooth="yes"/>
      <point x="561.49" y="548.6"/>
      <point x="503.51599999999996" y="521.92"/>
      <point x="447.88800000000003" y="486.742" type="curve"/>
      <point x="426.822" y="524.468"/>
      <point x="390.56" y="547.46"/>
      <point x="328.782" y="547.46" type="curve" smooth="yes"/>
      <point x="267.04" y="547.46"/>
      <point x="212.98600000000002" y="526.932"/>
      <point x="156.2" y="491.62799999999993" type="curve"/>
      <point x="156.2" y="538.6" type="line"/>
      <point x="57.51" y="538.6" type="line"/>
    </contour>
  </outline>
</glyph>
<glyph name="n" format="2">
  <advance width="553.876"/>
  <unicode hex="006E"/>
  <anchor x="279.28000000000003" y="538.6" name="top"/>
  <anchor x="280.42" y="0.0" name="bottom"/>
  <outline>
    <contour>
      <point x="57.51" y="0.0" type="line"/>
      <point x="165.91799999999998" y="0.0" type="line"/>
      <point x="165.91799999999998" y="417.624" type="line"/>
      <point x="212.336" y="440.842"/>
      <point x="252.592" y="456.95799999999997"/>
      <point x="300.19800000000004" y="456.95799999999997" type="curve" smooth="yes"/>
      <point x="358.734" y="456.95799999999997"/>
      <point x="388.47400000000005" y="425.864"/>
      <point x="388.47400000000005" y="366.142" type="curve" smooth="yes"/>
      <point x="388.47400000000005" y="0.0" type="line"/>
      <point x="496.882" y="0.0" type="line"/>
      <point x="496.882" y="398.908" type="line" smooth="yes"/>
      <point x="496.882" y="493.6820000000001"/>
      <point x="444.454" y="548.6"/>
      <point x="344.646" y="548.6" type="curve" smooth="yes"/>
      <point x="276.272" y="548.6"/>
      <point x="221.658" y="528.242"/>
      <point x="156.2" y="491.514" type="curve"/>
      <point x="156.2" y="538.6" type="line"/>
      <point x="57.51" y="538.6" type="line"/>
    </contour>
  </outline>
</glyph>
<glyph name="o" format="2">
  <advance width="556.1880000000001"/>
  <unicode hex="006F"/>
  <anchor x="353.6460000000001" y="2.924" name="ogonek"/>
  <anchor x="278.09400000000005" y="538.6" name="top"/>
  <anchor x="403.84800000000007" y="530.88" name="topright"/>
  <anchor x="278.09400000000005" y="0.0" name="bottom"/>
  <outline>
    <contour>
      <point x="34.529999999999994" y="270.358" type="curve" smooth="yes"/>
      <point x="34.529999999999994" y="80.038"/>
      <point x="100.882" y="-10.0"/>
      <point x="278.09400000000005" y="-10.0" type="curve" smooth="yes"/>
      <point x="455.306" y="-10.0"/>
      <point x="521.658" y="80.038"/>
      <point x="521.658" y="270.358" type="curve" smooth="yes"/>
      <point x="521.658" y="455.47799999999995"/>
      <point x="462.106" y="548.6"/>
      <point x="278.09400000000005" y="548.6" type="curve" smooth="yes"/>
      <point x="93.738" y="548.6"/>
      <point x="34.529999999999994" y="455.47799999999995"/>
    </contour>
    <contour>
      <point x="145.69" y="270.35800000000006" type="curve" smooth="yes"/>
      <point x="145.69" y="413.334"/>
      <point x="179.01000000000002" y="463.58000000000004"/>
      <point x="278.09400000000005" y="463.58000000000004" type="curve" smooth="yes"/>
      <point x="376.91999999999996" y="463.58000000000004"/>
      <point x="410.15400000000005" y="413.334"/>
      <point x="410.15400000000005" y="270.35800000000006" type="curve" smooth="yes"/>
      <point x="410.15400000000005" y="123.72599999999998"/>
      <point x="372.18399999999997" y="75.27799999999999"/>
      <point x="278.09400000000005" y="75.27799999999999" type="curve" smooth="yes"/>
      <point x="183.74599999999998" y="75.27799999999999"/>
      <point x="145.69" y="123.72599999999998"/>
    </contour>
  </outline>
</glyph>
<glyph name="p" format="2">
  <advance width="550.976"/>
  <unicode hex="0070"/>
  <outline>
    <contour>
      <point x="57.51" y="-210.0" type="line"/>
      <point x="166.08999999999997" y="-210.0" type="line"/>
      <point x="166.08999999999997" y="0.6980000000000004" type="line"/>
      <point x="204.392" y="-6.576"/>
      <point x="238.42600000000002" y="-10.0"/>
      <point x="268.94399999999996" y="-10.0" type="curve" smooth="yes"/>
      <point x="437.564" y="-10.0"/>
      <point x="516.618" y="81.446"/>
      <point x="516.618" y="281.148" type="curve" smooth="yes"/>
      <point x="516.618" y="453.31199999999995"/>
      <point x="451.04200000000003" y="548.6"/>
      <point x="335.366" y="548.6" type="curve" smooth="yes"/>
      <point x="276.568" y="548.6"/>
      <point x="220.80200000000002" y="530.3779999999999"/>
      <point x="159.29600000000002" y="490.30600000000004" type="curve"/>
      <point x="156.2" y="542.02" type="line"/>
      <point x="57.51" y="542.02" type="line"/>
    </contour>
    <contour>
      <point x="260.784" y="69.978" type="curve" smooth="yes"/>
      <point x="233.43599999999998" y="69.978"/>
      <point x="202.98000000000002" y="74.08999999999999"/>
      <point x="165.91799999999998" y="83.226" type="curve"/>
      <point x="165.91799999999998" y="415.326" type="line"/>
      <point x="215.68" y="446.41200000000003"/>
      <point x="252.842" y="458.592"/>
      <point x="294.182" y="458.592" type="curve" smooth="yes"/>
      <point x="364.80400000000003" y="458.592"/>
      <point x="404.68399999999997" y="398.342"/>
      <point x="404.68399999999997" y="271.258" type="curve" smooth="yes"/>
      <point x="404.68399999999997" y="124.188"/>
      <point x="359.778" y="69.978"/>
    </contour>
  </outline>
</glyph>
<glyph name="q" format="2">
  <advance width="551.234"/>
  <unicode hex="0071"/>
  <outline>
    <contour>
      <point x="493.72400000000005" y="524.96" type="line"/>
      <point x="418.912" y="540.8220000000001"/>
      <point x="352.38000000000005" y="548.6"/>
      <point x="293.64200000000005" y="548.6" type="curve" smooth="yes"/>
      <point x="115.476" y="548.6"/>
      <point x="34.358" y="461.798"/>
      <point x="34.358" y="262.61199999999997" type="curve" smooth="yes"/>
      <point x="34.358" y="84.34"/>
      <point x="99.50200000000001" y="-10.0"/>
      <point x="217.674" y="-10.0" type="curve" smooth="yes"/>
      <point x="273.978" y="-10.0"/>
      <point x="328.79800000000006" y="7.964"/>
      <point x="385.574" y="45.112" type="curve"/>
      <point x="385.574" y="-210.0" type="line"/>
      <point x="493.72400000000005" y="-210.0" type="line"/>
    </contour>
    <contour>
      <point x="385.316" y="456.32200000000006" type="curve"/>
      <point x="385.316" y="124.564" type="line"/>
      <point x="335.55400000000003" y="93.22"/>
      <point x="298.392" y="80.524"/>
      <point x="256.794" y="80.524" type="curve" smooth="yes"/>
      <point x="186.77200000000002" y="80.524"/>
      <point x="146.54999999999998" y="140.94199999999998"/>
      <point x="146.54999999999998" y="262.6979999999999" type="curve" smooth="yes"/>
      <point x="146.54999999999998" y="414.41200000000003"/>
      <point x="191.456" y="469.138"/>
      <point x="290.708" y="469.138" type="curve" smooth="yes"/>
      <point x="317.37" y="469.138"/>
      <point x="348.25399999999996" y="465.284"/>
    </contour>
  </outline>
</glyph>
<glyph name="r" format="2">
  <advance width="395.096"/>
  <unicode hex="0072"/>
  <anchor x="216.626" y="538.6" name="top"/>
  <anchor x="111.456" y="0.0" name="bottom"/>
  <outline>
    <contour>
      <point x="155.942" y="538.6" type="line"/>
      <point x="57.51" y="538.6" type="line"/>
      <point x="57.51" y="0.0" type="line"/>
      <point x="165.402" y="0.0" type="line"/>
      <point x="165.402" y="391.54600000000005" type="line"/>
      <point x="215.13000000000002" y="433.78999999999996"/>
      <point x="258.996" y="449.132"/>
      <point x="302.064" y="449.132" type="curve" smooth="yes"/>
      <point x="324.05600000000004" y="449.132"/>
      <point x="350.22" y="445.592"/>
      <point x="374.308" y="439.364" type="curve"/>
      <point x="391.808" y="537.544" type="line"/>
      <point x="368.68600000000004" y="544.746"/>
      <point x="342.242" y="548.6"/>
      <point x="316.80400000000003" y="548.6" type="curve" smooth="yes"/>
      <point x="258.49399999999997" y="548.6"/>
      <point x="213.278" y="526.636"/>
      <point x="155.942" y="473.268" type="curve"/>
    </contour>
  </outline>
</glyph>
<glyph name="s" format="2">
  <advance width="452.08"/>
  <unicode hex="0073"/>
  <anchor x="229.06" y="538.6" name="top"/>
  <anchor x="230.06" y="0.0" name="bottom"/>
  <outline>
    <contour>
      <point x="21.560000000000002" y="21.14" type="line"/>
      <point x="76.32000000000001" y="0.2799999999999998"/>
      <point x="142.57999999999998" y="-10.0"/>
      <point x="211.88" y="-10.0" type="curve" smooth="yes"/>
      <point x="335.46" y="-10.0"/>
      <point x="429.68" y="37.0"/>
      <point x="429.68" y="153.24" type="curve" smooth="yes"/>
      <point x="429.68" y="255.28000000000003"/>
      <point x="364.1" y="289.28"/>
      <point x="264.7" y="315.12" type="curve" smooth="yes"/>
      <point x="188.57999999999998" y="334.82"/>
      <point x="140.1" y="347.62"/>
      <point x="140.1" y="397.1" type="curve" smooth="yes"/>
      <point x="140.1" y="439.74"/>
      <point x="174.6" y="463.24"/>
      <point x="242.04" y="463.24" type="curve" smooth="yes"/>
      <point x="301.21999999999997" y="463.24"/>
      <point x="345.2" y="453.1"/>
      <point x="385.8" y="440.52" type="curve"/>
      <point x="400.53999999999996" y="523.02" type="line"/>
      <point x="358.94" y="537.6"/>
      <point x="303.36" y="548.6"/>
      <point x="242.04000000000002" y="548.6" type="curve" smooth="yes"/>
      <point x="105.42000000000002" y="548.6"/>
      <point x="34.96000000000001" y="491.16"/>
      <point x="34.96000000000001" y="387.64" type="curve" smooth="yes"/>
      <point x="34.96000000000001" y="303.66"/>
      <point x="89.02000000000001" y="257.04"/>
      <point x="181.88" y="234.34" type="curve" smooth="yes"/>
      <point x="275.12" y="211.08"/>
      <point x="321.96000000000004" y="192.26"/>
      <point x="321.96000000000004" y="142.92000000000002" type="curve" smooth="yes"/>
      <point x="321.96000000000004" y="96.58000000000001"/>
      <point x="287.2" y="72.78"/>
      <point x="213.60000000000002" y="72.78" type="curve" smooth="yes"/>
      <point x="156.04" y="72.78"/>
      <point x="81.74" y="84.78"/>
      <point x="36.440000000000005" y="101.92" type="curve"/>
    </contour>
  </outline>
</glyph>
<glyph name="t" format="2">
  <advance width="395.60600000000005"/>
  <unicode hex="0074"/>
  <anchor x="194.77800000000002" y="275.0" name="center"/>
  <anchor x="156.04399999999998" y="662.162" name="top"/>
  <anchor x="308.362" y="767.59" name="topright"/>
  <anchor x="229.59199999999998" y="0.0" name="bottom"/>
  <outline>
    <contour>
      <point x="246.528" y="-10.0" type="curve" smooth="yes"/>
      <point x="288.64799999999997" y="-10.0"/>
      <point x="336.498" y="-3.342"/>
      <point x="388.23600000000005" y="13.696000000000003" type="curve"/>
      <point x="372.944" y="97.37" type="line"/>
      <point x="340.954" y="88.17999999999999"/>
      <point x="311.78" y="82.5"/>
      <point x="282.528" y="82.5" type="curve" smooth="yes"/>
      <point x="227.148" y="82.5"/>
      <point x="203.09" y="108.944"/>
      <point x="203.09" y="175.39200000000002" type="curve" smooth="yes"/>
      <point x="203.09" y="458.05400000000003" type="line"/>
      <point x="369.336" y="458.05400000000003" type="line"/>
      <point x="369.336" y="538.6" type="line"/>
      <point x="203.09" y="538.6" type="line"/>
      <point x="203.09" y="662.162" type="line"/>
      <point x="108.656" y="662.162" type="line"/>
      <point x="94.94" y="538.6" type="line"/>
      <point x="7.45" y="530.42" type="line"/>
      <point x="7.45" y="458.312" type="line"/>
      <point x="94.94" y="458.312" type="line"/>
      <point x="94.94" y="167.308" type="line" smooth="yes"/>
      <point x="94.94" y="46.242"/>
      <point x="144.61" y="-10.0"/>
    </contour>
  </outline>
</glyph>
<glyph name="u" format="2">
  <advance width="559.6239999999999"/>
  <unicode hex="0075"/>
  <anchor x="555.916" y="9.664" name="ogonek"/>
  <anchor x="273.714" y="538.6" name="top"/>
  <anchor x="486.304" y="538.6" name="topright"/>
  <anchor x="280.284" y="0.0" name="bottom"/>
  <outline>
    <contour>
      <point x="207.90399999999997" y="-10.0" type="curve" smooth="yes"/>
      <point x="276.922" y="-10.0"/>
      <point x="331.488" y="12.164"/>
      <point x="391.24600000000004" y="46.536" type="curve"/>
      <point x="405.59000000000003" y="9.118"/>
      <point x="435.54" y="-10.0"/>
      <point x="476.72799999999995" y="-10.0" type="curve" smooth="yes"/>
      <point x="506.616" y="-10.0"/>
      <point x="534.868" y="-1.9240000000000002"/>
      <point x="555.916" y="9.664" type="curve"/>
      <point x="545.188" y="88.184" type="line"/>
      <point x="536.9380000000001" y="84.38799999999999"/>
      <point x="528.144" y="82.59"/>
      <point x="519.75" y="82.59" type="curve" smooth="yes"/>
      <point x="500.71400000000006" y="82.59"/>
      <point x="486.304" y="94.69"/>
      <point x="486.304" y="133.018" type="curve" smooth="yes"/>
      <point x="486.304" y="538.6" type="line"/>
      <point x="378.154" y="538.6" type="line"/>
      <point x="378.154" y="119.71599999999998" type="line"/>
      <point x="333.6120000000001" y="96.18"/>
      <point x="295.90200000000004" y="80.95400000000001"/>
      <point x="250.54600000000002" y="80.95400000000001" type="curve" smooth="yes"/>
      <point x="195.314" y="80.95400000000001"/>
      <point x="165.402" y="110.908"/>
      <point x="165.402" y="165.49" type="curve" smooth="yes"/>
      <point x="165.402" y="538.6" type="line"/>
      <point x="56.994" y="538.6" type="line"/>
      <point x="56.994" y="141.582" type="line" smooth="yes"/>
      <point x="56.994" y="39.5"/>
      <point x="116.194" y="-10.0"/>
    </contour>
  </outline>
</glyph>
<glyph name="v" format="2">
  <advance width="530.0260000000001"/>
  <unicode hex="0076"/>
  <outline>
    <contour>
      <point x="204.13600000000002" y="0.0" type="line"/>
      <point x="324.372" y="0.0" type="line"/>
      <point x="520.554" y="536.548" type="line"/>
      <point x="407.726" y="540.652" type="line"/>
      <point x="267.922" y="100.868" type="line"/>
      <point x="123.16" y="540.652" type="line"/>
      <point x="9.042" y="536.548" type="line"/>
    </contour>
  </outline>
</glyph>
<glyph name="w" format="2">
  <advance width="750.464"/>
  <unicode hex="0077"/>
  <anchor x="374.81800000000004" y="538.6" name="top"/>
  <anchor x="374.81800000000004" y="0.0" name="bottom"/>
  <outline>
    <contour>
      <point x="146.748" y="0.0" type="line"/>
      <point x="271.36600000000004" y="0.0" type="line"/>
      <point x="373.442" y="415.192" type="line"/>
      <point x="478.4960000000001" y="0.0" type="line"/>
      <point x="600.1039999999999" y="0.0" type="line"/>
      <point x="739.7860000000001" y="536.234" type="line"/>
      <point x="633.6679999999999" y="540.482" type="line"/>
      <point x="537.6339999999999" y="104.93" type="line"/>
      <point x="432.032" y="538.6" type="line"/>
      <point x="317.432" y="538.6" type="line"/>
      <point x="213.97" y="104.446" type="line"/>
      <point x="118.774" y="540.482" type="line"/>
      <point x="9.677999999999999" y="536.234" type="line"/>
    </contour>
  </outline>
</glyph>
<glyph name="x" format="2">
  <advance width="540.66"/>
  <unicode hex="0078"/>
  <outline>
    <contour>
      <point x="7.98" y="-5.551115123125783e-17" type="line"/>
      <point x="134.06" y="-4.7" type="line"/>
      <point x="270.26" y="198.52" type="line"/>
      <point x="406.6" y="-4.7" type="line"/>
      <point x="532.8199999999999" y="-5.551115123125783e-17" type="line"/>
      <point x="333.14" y="274.86" type="line"/>
      <point x="521.26" y="536.32" type="line"/>
      <point x="403.64000000000004" y="541.88" type="line"/>
      <point x="275.56" y="347.48" type="line"/>
      <point x="148.34" y="541.8799999999999" type="line"/>
      <point x="22.120000000000005" y="536.18" type="line"/>
      <point x="210.1" y="272.00000000000006" type="line"/>
    </contour>
  </outline>
</glyph>
<glyph name="y" format="2">
  <advance width="532.1460000000001"/>
  <unicode hex="0079"/>
  <anchor x="257.462" y="538.6" name="top"/>
  <anchor x="429.77" y="0.0" name="bottom"/>
  <outline>
    <contour>
      <point x="166.064" y="-208.348" type="line"/>
      <point x="275.648" y="-212.596" type="line"/>
      <point x="522.678" y="537.86" type="line"/>
      <point x="411.286" y="541.5079999999999" type="line"/>
      <point x="276.91599999999994" y="92.832" type="line"/>
      <point x="127.716" y="541.5640000000001" type="line"/>
      <point x="9.383999999999999" y="537.46" type="line"/>
      <point x="212.39800000000002" y="0.0" type="line"/>
      <point x="233.20399999999998" y="0.0" type="line"/>
    </contour>
  </outline>
</glyph>
<glyph name="z" format="2">
  <advance width="490.91600000000005"/>
  <unicode hex="007A"/>
  <anchor x="249.61199999999997" y="538.6" name="top"/>
  <outline>
    <contour>
      <point x="26.364" y="0.0" type="line"/>
      <point x="468.97200000000004" y="0.0" type="line"/>
      <point x="468.97200000000004" y="86.13600000000001" type="line"/>
      <point x="160.836" y="86.13600000000001" type="line"/>
      <point x="451.824" y="462.98" type="line"/>
      <point x="451.824" y="538.6" type="line"/>
      <point x="37.408" y="538.6" type="line"/>
      <point x="37.408" y="453.32400000000007" type="line"/>
      <point x="320.876" y="453.32400000000007" type="line"/>
      <point x="26.364" y="76.48" type="line"/>
    </contour>
  </outline>
</glyph>
<glyph name="braceleft" format="2">
  <advance width="320.258"/>
  <unicode hex="007B"/>
  <outline>
    <contour>
      <point x="86.742" y="-55.146" type="curve" smooth="yes"/>
      <point x="86.742" y="-151.972"/>
      <point x="137.338" y="-210.258"/>
      <point x="226.03" y="-210.258" type="curve" smooth="yes"/>
      <point x="288.972" y="-210.258" type="line"/>
      <point x="288.972" y="-133.498" type="line"/>
      <point x="251.83" y="-133.498" type="line" smooth="yes"/>
      <point x="197.89" y="-133.498"/>
      <point x="180.186" y="-92.952"/>
      <point x="180.186" y="-43.536" type="curve" smooth="yes"/>
      <point x="180.186" y="20.896"/>
      <point x="212.068" y="78.348"/>
      <point x="212.068" y="148.132" type="curve" smooth="yes"/>
      <point x="212.068" y="189.634"/>
      <point x="200.80400000000003" y="240.99400000000003"/>
      <point x="151.624" y="265.0" type="curve"/>
      <point x="200.57600000000002" y="291.198"/>
      <point x="212.068" y="339.65200000000004"/>
      <point x="212.068" y="381.154" type="curve" smooth="yes"/>
      <point x="212.068" y="449.456"/>
      <point x="180.186" y="505.768"/>
      <point x="180.186" y="572.822" type="curve" smooth="yes"/>
      <point x="180.186" y="622.2379999999999"/>
      <point x="197.89" y="663.24"/>
      <point x="251.83" y="663.24" type="curve" smooth="yes"/>
      <point x="288.972" y="663.24" type="line"/>
      <point x="288.972" y="740.0" type="line"/>
      <point x="226.03" y="740.0" type="line" smooth="yes"/>
      <point x="137.338" y="740.0"/>
      <point x="86.742" y="681.2579999999999"/>
      <point x="86.742" y="584.432" type="curve" smooth="yes"/>
      <point x="86.742" y="495.95"/>
      <point x="121.63400000000001" y="441.34799999999996"/>
      <point x="121.63400000000001" y="378.14399999999995" type="curve" smooth="yes"/>
      <point x="121.63400000000001" y="341.47"/>
      <point x="111.66799999999999" y="304.24"/>
      <point x="78.36200000000001" y="304.24" type="curve" smooth="yes"/>
      <point x="59.16799999999999" y="304.24" type="line"/>
      <point x="59.16799999999999" y="225.502" type="line"/>
      <point x="78.36200000000001" y="225.502" type="line" smooth="yes"/>
      <point x="111.66799999999999" y="225.502"/>
      <point x="121.63400000000001" y="188.15800000000002"/>
      <point x="121.63400000000001" y="151.142" type="curve" smooth="yes"/>
      <point x="121.63400000000001" y="87.368"/>
      <point x="86.742" y="30.485999999999997"/>
    </contour>
  </outline>
</glyph>
<glyph name="braceright" format="2">
  <advance width="320.258"/>
  <unicode hex="007D"/>
  <outline>
    <contour>
      <point x="31.286" y="-133.498" type="line"/>
      <point x="31.286" y="-210.258" type="line"/>
      <point x="94.57000000000001" y="-210.258" type="line" smooth="yes"/>
      <point x="183.262" y="-210.258"/>
      <point x="233.858" y="-151.972"/>
      <point x="233.858" y="-55.146" type="curve" smooth="yes"/>
      <point x="233.858" y="30.485999999999997"/>
      <point x="198.96599999999998" y="87.368"/>
      <point x="198.96599999999998" y="151.142" type="curve" smooth="yes"/>
      <point x="198.96599999999998" y="188.15800000000002"/>
      <point x="208.932" y="225.502"/>
      <point x="242.23800000000003" y="225.502" type="curve" smooth="yes"/>
      <point x="261.09" y="225.502" type="line"/>
      <point x="261.09" y="304.24" type="line"/>
      <point x="242.23800000000003" y="304.24" type="line" smooth="yes"/>
      <point x="208.59" y="304.24"/>
      <point x="198.96599999999998" y="341.47"/>
      <point x="198.96599999999998" y="378.14399999999995" type="curve" smooth="yes"/>
      <point x="198.96599999999998" y="441.34799999999996"/>
      <point x="233.858" y="495.95"/>
      <point x="233.858" y="584.432" type="curve" smooth="yes"/>
      <point x="233.858" y="681.2579999999999"/>
      <point x="183.262" y="740.0"/>
      <point x="94.57000000000001" y="740.0" type="curve" smooth="yes"/>
      <point x="31.286" y="740.0" type="line"/>
      <point x="31.286" y="663.24" type="line"/>
      <point x="64.384" y="663.24" type="line" smooth="yes"/>
      <point x="117.982" y="663.24"/>
      <point x="136.028" y="622.2379999999999"/>
      <point x="136.028" y="572.822" type="curve" smooth="yes"/>
      <point x="136.028" y="505.768"/>
      <point x="104.146" y="449.456"/>
      <point x="104.146" y="381.154" type="curve" smooth="yes"/>
      <point x="104.146" y="339.65200000000004"/>
      <point x="115.29599999999999" y="291.198"/>
      <point x="164.59" y="265.0" type="curve"/>
      <point x="115.068" y="240.99400000000003"/>
      <point x="104.146" y="189.634"/>
      <point x="104.146" y="148.132" type="curve" smooth="yes"/>
      <point x="104.146" y="78.348"/>
      <point x="136.028" y="20.896"/>
      <point x="136.028" y="-43.536" type="curve" smooth="yes"/>
      <point x="136.028" y="-92.952"/>
      <point x="117.982" y="-133.498"/>
      <point x="64.384" y="-133.498" type="curve" smooth="yes"/>
    </contour>
  </outline>
</glyph>
<glyph name="asciitilde" format="2">
  <advance width="497.084"/>
  <unicode hex="007E"/>
  <outline>
    <contour>
      <point x="437.78000000000003" y="245.928" type="curve"/>
      <point x="437.78000000000003" y="335.63000000000005" type="line"/>
      <point x="413.826" y="310.998"/>
      <point x="388.548" y="296.78000000000003"/>
      <point x="354.67600000000004" y="296.78000000000003" type="curve" smooth="yes"/>
      <point x="269.478" y="296.78000000000003"/>
      <point x="225.23600000000002" y="392.378"/>
      <point x="145.01799999999997" y="392.378" type="curve" smooth="yes"/>
      <point x="102.398" y="392.378"/>
      <point x="74.17399999999999" y="371.814"/>
      <point x="59.818" y="356.606" type="curve"/>
      <point x="59.818" y="266.676" type="line"/>
      <point x="78.818" y="285.43399999999997"/>
      <point x="104.638" y="304.61"/>
      <point x="143.24" y="304.61" type="curve" smooth="yes"/>
      <point x="219.764" y="304.61"/>
      <point x="266.412" y="208.83999999999997"/>
      <point x="354.962" y="208.83999999999997" type="curve" smooth="yes"/>
      <point x="389.40000000000003" y="208.83999999999997"/>
      <point x="415.826" y="223.238"/>
    </contour>
  </outline>
</glyph>
<glyph name="exclamdown" format="2">
  <advance width="234.276"/>
  <unicode hex="00A1"/>
  <outline>
    <contour>
      <point x="164.892" y="276.578" type="line"/>
      <point x="71.104" y="276.578" type="line"/>
      <point x="63.536" y="-201.572" type="line"/>
      <point x="171.68600000000004" y="-201.572" type="line"/>
    </contour>
    <contour>
      <point x="177.832" y="483.416" type="curve" smooth="yes"/>
      <point x="177.832" y="525.56"/>
      <point x="162.64000000000001" y="542.9"/>
      <point x="117.138" y="542.9" type="curve" smooth="yes"/>
      <point x="72.206" y="542.9"/>
      <point x="56.443999999999996" y="525.56"/>
      <point x="56.443999999999996" y="483.416" type="curve" smooth="yes"/>
      <point x="56.443999999999996" y="440.842"/>
      <point x="71.636" y="423.502"/>
      <point x="117.138" y="423.502" type="curve" smooth="yes"/>
      <point x="162.64000000000001" y="423.502"/>
      <point x="177.832" y="440.842"/>
    </contour>
  </outline>
</glyph>
<glyph name="cent" format="2">
  <advance width="610.212"/>
  <unicode hex="00A2"/>
  <outline>
    <contour>
      <point x="327.05400000000003" y="-10.258" type="curve" smooth="yes"/>
      <point x="390.03400000000005" y="-10.258"/>
      <point x="460.6580000000001" y="-1.5100000000000002"/>
      <point x="512.914" y="13.330000000000002" type="curve"/>
      <point x="496.09999999999997" y="99.89999999999999" type="line"/>
      <point x="449.2" y="89.414"/>
      <point x="397.464" y="83.61800000000001"/>
      <point x="352.162" y="83.61800000000001" type="curve" smooth="yes"/>
      <point x="257.526" y="83.61800000000001"/>
      <point x="206.30600000000004" y="141.6"/>
      <point x="206.30600000000004" y="261.05600000000004" type="curve" smooth="yes"/>
      <point x="206.30600000000004" y="391.468"/>
      <point x="260.24600000000004" y="453.864"/>
      <point x="356.7" y="453.864" type="curve" smooth="yes"/>
      <point x="402.982" y="453.864"/>
      <point x="440.74000000000007" y="448.72"/>
      <point x="487.76" y="437.612" type="curve"/>
      <point x="503.36800000000005" y="528.2239999999999" type="line"/>
      <point x="454.444" y="541.022"/>
      <point x="404.244" y="549.116"/>
      <point x="341.306" y="549.116" type="curve" smooth="yes"/>
      <point x="170.428" y="549.116"/>
      <point x="97.03800000000001" y="433.06"/>
      <point x="97.03800000000001" y="258.47600000000006" type="curve" smooth="yes"/>
      <point x="97.03800000000001" y="80.49600000000001"/>
      <point x="174.904" y="-10.258"/>
    </contour>
    <contour>
      <point x="276.764" y="-105.25800000000001" type="line"/>
      <point x="364.274" y="-105.25800000000001" type="line"/>
      <point x="364.274" y="2.3659999999999997" type="line"/>
      <point x="276.764" y="6.518" type="line"/>
    </contour>
    <contour>
      <point x="276.764" y="530.136" type="line"/>
      <point x="364.274" y="537.408" type="line"/>
      <point x="364.274" y="643.342" type="line"/>
      <point x="276.764" y="643.342" type="line"/>
    </contour>
  </outline>
</glyph>
<glyph name="sterling" format="2">
  <advance width="611.2439999999999"/>
  <unicode hex="00A3"/>
  <outline>
    <contour>
      <point x="76.46799999999999" y="0.0" type="line"/>
      <point x="552.596" y="0.0" type="line"/>
      <point x="552.596" y="87.93999999999998" type="line"/>
      <point x="202.05999999999997" y="87.93999999999998" type="line"/>
      <point x="257.084" y="143.28"/>
      <point x="288.504" y="188.372"/>
      <point x="288.504" y="254.976" type="curve" smooth="yes"/>
      <point x="288.504" y="341.448"/>
      <point x="223.57200000000003" y="400.58"/>
      <point x="223.57200000000003" y="485.536" type="curve" smooth="yes"/>
      <point x="223.57200000000003" y="576.52"/>
      <point x="284.28799999999995" y="614.3199999999999"/>
      <point x="367.524" y="614.3199999999999" type="curve" smooth="yes"/>
      <point x="416.908" y="614.3199999999999"/>
      <point x="477.98" y="606.1239999999999"/>
      <point x="522.6519999999999" y="594.096" type="curve"/>
      <point x="538.86" y="679.1199999999999" type="line"/>
      <point x="489.484" y="698.168"/>
      <point x="415.748" y="710.0"/>
      <point x="352.044" y="710.0" type="curve" smooth="yes"/>
      <point x="195.292" y="710.0"/>
      <point x="110.69200000000001" y="633.748"/>
      <point x="110.69200000000001" y="515.58" type="curve" smooth="yes"/>
      <point x="110.69200000000001" y="398.20799999999997"/>
      <point x="183.36399999999998" y="345.88"/>
      <point x="183.36399999999998" y="249.704" type="curve" smooth="yes"/>
      <point x="183.36399999999998" y="185.492"/>
      <point x="153.14000000000001" y="143.32399999999998"/>
      <point x="76.46799999999999" y="71.60000000000001" type="curve"/>
    </contour>
    <contour>
      <point x="66.88000000000001" y="316.12" type="line"/>
      <point x="467.88" y="316.12" type="line"/>
      <point x="467.88" y="393.74" type="line"/>
      <point x="66.88000000000001" y="393.74" type="line"/>
    </contour>
  </outline>
</glyph>
<glyph name="currency" format="2">
  <advance width="460.66999999999996"/>
  <unicode hex="00A4"/>
  <outline>
    <contour>
      <point x="39.226" y="428.98400000000004" type="line"/>
      <point x="102.73400000000001" y="364.476" type="line"/>
      <point x="90.18400000000001" y="345.088"/>
      <point x="82.398" y="321.538"/>
      <point x="82.398" y="295.36400000000003" type="curve" smooth="yes"/>
      <point x="82.398" y="268.76"/>
      <point x="90.18400000000001" y="244.52200000000002"/>
      <point x="103.73400000000001" y="224.876" type="curve"/>
      <point x="39.226" y="160.368" type="line"/>
      <point x="96.31200000000001" y="103.282" type="line"/>
      <point x="166.066" y="172.864" type="line"/>
      <point x="183.734" y="160.604"/>
      <point x="206.07999999999998" y="154.334"/>
      <point x="230.30800000000002" y="154.334" type="curve" smooth="yes"/>
      <point x="254.364" y="154.334"/>
      <point x="276.678" y="160.776"/>
      <point x="294.432" y="172.778" type="curve"/>
      <point x="364.35799999999995" y="103.282" type="line"/>
      <point x="421.444" y="160.368" type="line"/>
      <point x="357.108" y="224.446" type="line"/>
      <point x="370.572" y="244.43599999999998"/>
      <point x="378.61600000000004" y="268.58799999999997"/>
      <point x="378.61600000000004" y="295.36400000000003" type="curve" smooth="yes"/>
      <point x="378.61600000000004" y="321.452"/>
      <point x="370.74399999999997" y="345.174"/>
      <point x="357.366" y="364.90599999999995" type="curve"/>
      <point x="421.444" y="428.98400000000004" type="line"/>
      <point x="364.35799999999995" y="486.07" type="line"/>
      <point x="295.464" y="417.176" type="line"/>
      <point x="277.452" y="429.35"/>
      <point x="255.19199999999998" y="436.62"/>
      <point x="230.30800000000002" y="436.62" type="curve" smooth="yes"/>
      <point x="204.99400000000003" y="436.62"/>
      <point x="182.648" y="429.092"/>
      <point x="164.464" y="417.09000000000003" type="curve"/>
      <point x="96.31200000000001" y="486.07" type="line"/>
    </contour>
    <contour>
      <point x="230.13600000000002" y="217.76399999999998" type="curve" smooth="yes"/>
      <point x="186.454" y="217.76399999999998"/>
      <point x="152.79399999999998" y="251.252"/>
      <point x="152.79399999999998" y="295.106" type="curve" smooth="yes"/>
      <point x="152.79399999999998" y="338.498"/>
      <point x="186.28199999999998" y="372.932"/>
      <point x="230.13600000000002" y="372.932" type="curve" smooth="yes"/>
      <point x="274.55999999999995" y="372.932"/>
      <point x="308.21999999999997" y="338.498"/>
      <point x="308.21999999999997" y="295.106" type="curve" smooth="yes"/>
      <point x="308.21999999999997" y="251.252"/>
      <point x="274.388" y="217.76399999999998"/>
    </contour>
  </outline>
</glyph>
<glyph name="yen" format="2">
  <advance width="611.3000000000001"/>
  <unicode hex="00A5"/>
  <outline>
    <contour>
      <point x="84.28" y="324.72" type="line"/>
      <point x="252.06000000000003" y="324.72" type="line"/>
      <point x="252.06000000000003" y="253.7" type="line"/>
      <point x="84.28" y="253.7" type="line"/>
      <point x="84.28" y="190.70000000000002" type="line"/>
      <point x="252.06000000000003" y="190.70000000000002" type="line"/>
      <point x="252.06000000000003" y="0.0" type="line"/>
      <point x="365.8" y="0.0" type="line"/>
      <point x="365.8" y="190.70000000000002" type="line"/>
      <point x="535.3" y="190.70000000000002" type="line"/>
      <point x="535.3" y="253.7" type="line"/>
      <point x="365.8" y="253.7" type="line"/>
      <point x="365.8" y="324.72" type="line"/>
      <point x="535.3" y="324.72" type="line"/>
      <point x="535.3" y="387.71999999999997" type="line"/>
      <point x="365.8" y="387.71999999999997" type="line"/>
      <point x="562.48" y="697.58" type="line"/>
      <point x="444.14" y="703.28" type="line"/>
      <point x="308.5" y="457.6" type="line"/>
      <point x="168.01999999999998" y="703.28" type="line"/>
      <point x="49.68" y="697.58" type="line"/>
      <point x="252.06000000000003" y="387.71999999999997" type="line"/>
      <point x="84.28" y="387.71999999999997" type="line"/>
    </contour>
  </outline>
</glyph>
<glyph name="brokenbar" format="2">
  <advance width="211.76999999999998"/>
  <unicode hex="00A6"/>
  <outline>
    <contour>
      <point x="150.586" y="391.0" type="line"/>
      <point x="150.586" y="790.2579999999999" type="line"/>
      <point x="61.18400000000001" y="790.2579999999999" type="line"/>
      <point x="61.18400000000001" y="391.0" type="line"/>
    </contour>
    <contour>
      <point x="61.18400000000001" y="190.258" type="line"/>
      <point x="61.18400000000001" y="-210.0" type="line"/>
      <point x="150.586" y="-210.0" type="line"/>
      <point x="150.586" y="190.258" type="line"/>
    </contour>
  </outline>
</glyph>
<glyph name="section" format="2">
  <advance width="525.548"/>
  <unicode hex="00A7"/>
  <outline>
    <contour>
      <point x="226.52" y="-220.86" type="curve" smooth="yes"/>
      <point x="368.68" y="-220.86"/>
      <point x="482.48" y="-105.588"/>
      <point x="482.48" y="60.536" type="curve" smooth="yes"/>
      <point x="482.48" y="145.34799999999998"/>
      <point x="458.284" y="229.096"/>
      <point x="383.85600000000005" y="380.536" type="curve" smooth="yes"/>
      <point x="327.456" y="501.436"/>
      <point x="310.93199999999996" y="537.7919999999999"/>
      <point x="310.93199999999996" y="574.2760000000001" type="curve" smooth="yes"/>
      <point x="310.93199999999996" y="619.1519999999999"/>
      <point x="337.052" y="646.2719999999999"/>
      <point x="381.56399999999996" y="646.2719999999999" type="curve" smooth="yes"/>
      <point x="398.32000000000005" y="646.2719999999999"/>
      <point x="416.964" y="643.132"/>
      <point x="441.224" y="633.7959999999999" type="curve"/>
      <point x="460.292" y="726.364" type="line"/>
      <point x="417.936" y="742.168"/>
      <point x="372.02799999999996" y="749.9159999999999"/>
      <point x="326.008" y="749.9159999999999" type="curve" smooth="yes"/>
      <point x="151.216" y="749.9159999999999"/>
      <point x="47.4" y="644.5039999999999"/>
      <point x="48.98" y="474.14799999999997" type="curve" smooth="yes"/>
      <point x="49.84" y="383.58"/>
      <point x="71.68" y="301.208"/>
      <point x="147.128" y="151.52" type="curve" smooth="yes"/>
      <point x="196.79999999999998" y="42.888"/>
      <point x="219.8" y="-0.11999999999999811"/>
      <point x="219.856" y="-46.576" type="curve" smooth="yes"/>
      <point x="219.912" y="-89.36800000000001"/>
      <point x="191.876" y="-115.852"/>
      <point x="148.03599999999997" y="-115.852" type="curve" smooth="yes"/>
      <point x="118.084" y="-115.852"/>
      <point x="94.24399999999999" y="-106.348"/>
      <point x="57.535999999999994" y="-80.444" type="curve"/>
      <point x="35.328" y="-170.23600000000002" type="line"/>
      <point x="96.85199999999999" y="-205.916"/>
      <point x="152.472" y="-220.86"/>
    </contour>
    <contour>
      <point x="224.96800000000002" y="-156.78399999999996" type="curve" smooth="yes"/>
      <point x="198.632" y="-156.78399999999996"/>
      <point x="177.05200000000002" y="-153.00799999999998"/>
      <point x="157.52800000000002" y="-144.56799999999998" type="curve"/>
      <point x="184.59599999999998" y="-163.364" type="line"/>
      <point x="256.664" y="-165.28"/>
      <point x="301.552" y="-113.53999999999999"/>
      <point x="301.552" y="-46.660000000000004" type="curve" smooth="yes"/>
      <point x="301.552" y="4.424000000000001"/>
      <point x="284.028" y="60.855999999999995"/>
      <point x="223.44000000000003" y="186.17999999999998" type="curve" smooth="yes"/>
      <point x="153.012" y="332.88400000000007"/>
      <point x="129.95600000000002" y="404.4440000000001"/>
      <point x="129.95600000000002" y="493.928" type="curve" smooth="yes"/>
      <point x="129.95600000000002" y="609.696"/>
      <point x="186.408" y="669.2479999999999"/>
      <point x="270.044" y="669.2479999999999" type="curve" smooth="yes"/>
      <point x="287.672" y="669.2479999999999"/>
      <point x="298.392" y="667.4719999999999"/>
      <point x="316.356" y="662.976" type="curve"/>
      <point x="298.148" y="680.5480000000001" type="line"/>
      <point x="251.72000000000003" y="677.072"/>
      <point x="229.928" y="622.2280000000001"/>
      <point x="229.012" y="578.4639999999999" type="curve" smooth="yes"/>
      <point x="229.012" y="525.248"/>
      <point x="245.12400000000002" y="478.556"/>
      <point x="305.74" y="351.12" type="curve" smooth="yes"/>
      <point x="380.028" y="191.248"/>
      <point x="402.44800000000004" y="124.288"/>
      <point x="402.44800000000004" y="46.776" type="curve" smooth="yes"/>
      <point x="402.5040000000001" y="-63.10399999999998"/>
      <point x="344.144" y="-156.72799999999995"/>
    </contour>
  </outline>
</glyph>
<glyph name="copyright" format="2">
  <advance width="687.376"/>
  <unicode hex="00A9"/>
  <outline>
    <contour>
      <point x="343.85999999999996" y="33.828" type="curve" smooth="yes"/>
      <point x="186.64600000000002" y="33.828"/>
      <point x="92.57000000000001" y="131.524"/>
      <point x="92.57000000000001" y="349.914" type="curve" smooth="yes"/>
      <point x="92.57000000000001" y="568.9900000000001"/>
      <point x="186.99" y="665.3119999999999"/>
      <point x="343.85999999999996" y="665.3119999999999" type="curve" smooth="yes"/>
      <point x="501.15999999999997" y="665.3119999999999"/>
      <point x="594.5479999999999" y="568.9900000000001"/>
      <point x="594.5479999999999" y="349.914" type="curve" smooth="yes"/>
      <point x="594.5479999999999" y="131.524"/>
      <point x="501.5039999999999" y="33.828"/>
    </contour>
    <contour>
      <point x="343.85999999999996" y="710.0" type="curve" smooth="yes"/>
      <point x="159.368" y="710.0"/>
      <point x="44.7" y="593.848"/>
      <point x="44.7" y="349.914" type="curve" smooth="yes"/>
      <point x="44.7" y="106.58"/>
      <point x="159.024" y="-10.0"/>
      <point x="343.85999999999996" y="-10.0" type="curve" smooth="yes"/>
      <point x="528.3519999999999" y="-10.0"/>
      <point x="642.676" y="106.58"/>
      <point x="642.676" y="349.914" type="curve" smooth="yes"/>
      <point x="642.676" y="593.848"/>
      <point x="528.352" y="710.0"/>
    </contour>
    <contour>
      <point x="195.57999999999998" y="342.08" type="curve" smooth="yes"/>
      <point x="195.57999999999998" y="210.81400000000002"/>
      <point x="255.93999999999997" y="153.656"/>
      <point x="348.8380000000001" y="153.656" type="curve" smooth="yes"/>
      <point x="395.20799999999997" y="153.656"/>
      <point x="439.942" y="162.03000000000003"/>
      <point x="471.118" y="174.57" type="curve"/>
      <point x="459.00800000000004" y="237.144" type="line"/>
      <point x="434.736" y="230.052"/>
      <point x="398.57000000000005" y="222.85"/>
      <point x="361.30800000000005" y="222.85" type="curve" smooth="yes"/>
      <point x="302.296" y="222.85"/>
      <point x="276.554" y="260.46000000000004"/>
      <point x="276.554" y="341.65" type="curve" smooth="yes"/>
      <point x="276.554" y="440.67199999999997"/>
      <point x="309.19199999999995" y="473.67199999999997"/>
      <point x="369.546" y="473.67199999999997" type="curve" smooth="yes"/>
      <point x="396.596" y="473.67199999999997"/>
      <point x="427.02799999999996" y="468.404"/>
      <point x="451.67999999999995" y="461.434" type="curve"/>
      <point x="465.25200000000007" y="524.352" type="line"/>
      <point x="434.238" y="537.6"/>
      <point x="396.106" y="543.21"/>
      <point x="358.53800000000007" y="543.21" type="curve" smooth="yes"/>
      <point x="263.98400000000004" y="543.21"/>
      <point x="195.57999999999998" y="490.73199999999997"/>
    </contour>
  </outline>
</glyph>
<glyph name="ordfeminine" format="2">
  <advance width="369.238"/>
  <unicode hex="00AA"/>
  <outline>
    <contour>
      <point x="43.138" y="252.41399999999996" type="line"/>
      <point x="338.024" y="252.41399999999996" type="line"/>
      <point x="338.024" y="310.89399999999995" type="line"/>
      <point x="43.138" y="310.89399999999995" type="line"/>
    </contour>
    <component base="a.superior" xOffset="10.964"/>
  </outline>
</glyph>
<glyph name="logicalnot" format="2">
  <advance width="497.084"/>
  <unicode hex="00AC"/>
  <outline>
    <contour>
      <point x="50.226" y="341.25800000000004" type="line"/>
      <point x="359.26000000000005" y="341.25800000000004" type="line"/>
      <point x="359.26000000000005" y="173.216" type="line"/>
      <point x="447.20000000000005" y="173.216" type="line"/>
      <point x="447.20000000000005" y="429.19800000000004" type="line"/>
      <point x="50.226" y="429.19800000000004" type="line"/>
    </contour>
  </outline>
</glyph>
<glyph name="registered" format="2">
  <advance width="658.652"/>
  <unicode hex="00AE"/>
  <outline>
    <contour>
      <point x="326.61600000000004" y="207.626" type="curve" smooth="yes"/>
      <point x="505.314" y="207.626"/>
      <point x="613.952" y="317.368"/>
      <point x="613.952" y="550.228" type="curve" smooth="yes"/>
      <point x="613.952" y="782.226"/>
      <point x="505.486" y="892.83"/>
      <point x="326.61600000000004" y="892.83" type="curve" smooth="yes"/>
      <point x="151.61599999999999" y="892.83"/>
      <point x="44.7" y="782.226"/>
      <point x="44.7" y="550.228" type="curve" smooth="yes"/>
      <point x="44.7" y="319.174"/>
      <point x="151.014" y="207.626"/>
    </contour>
    <contour>
      <point x="326.61600000000004" y="249.164" type="curve" smooth="yes"/>
      <point x="177.55000000000004" y="249.164"/>
      <point x="90.27799999999999" y="342.94599999999997"/>
      <point x="90.27799999999999" y="550.228" type="curve" smooth="yes"/>
      <point x="90.27799999999999" y="758.2819999999998"/>
      <point x="177.37800000000004" y="850.088"/>
      <point x="326.61600000000004" y="850.088" type="curve" smooth="yes"/>
      <point x="480.06800000000004" y="850.088"/>
      <point x="568.2860000000001" y="758.454"/>
      <point x="568.2860000000001" y="550.228" type="curve" smooth="yes"/>
      <point x="568.2860000000001" y="342.344"/>
      <point x="479.638" y="249.164"/>
    </contour>
    <contour>
      <point x="474.74600000000004" y="379.706" type="curve" smooth="yes"/>
      <point x="478.434" y="379.706"/>
      <point x="482.15600000000006" y="379.706"/>
      <point x="486.09799999999996" y="380.048" type="curve"/>
      <point x="485.07200000000006" y="448.06999999999994" type="line"/>
      <point x="483.6740000000001" y="447.728"/>
      <point x="481.84399999999994" y="447.728"/>
      <point x="479.844" y="447.728" type="curve" smooth="yes"/>
      <point x="454.8459999999999" y="447.986"/>
      <point x="426.726" y="476.24"/>
      <point x="397.456" y="527.22" type="curve"/>
      <point x="443.13" y="538.992"/>
      <point x="466.714" y="573.5520000000001"/>
      <point x="466.714" y="629.4280000000001" type="curve" smooth="yes"/>
      <point x="466.714" y="702.862"/>
      <point x="425.454" y="733.35"/>
      <point x="323.39799999999997" y="733.35" type="curve" smooth="yes"/>
      <point x="290.446" y="733.35"/>
      <point x="252.01600000000002" y="731.634"/>
      <point x="200.26599999999996" y="728.0340000000001" type="curve"/>
      <point x="200.26599999999996" y="382.76800000000003" type="line"/>
      <point x="271.898" y="382.76800000000003" type="line"/>
      <point x="271.898" y="507.33199999999994" type="line"/>
      <point x="286.312" y="506.93399999999997"/>
      <point x="297.882" y="506.19199999999995"/>
      <point x="310.646" y="506.19199999999995" type="curve" smooth="yes"/>
      <point x="316.04400000000004" y="506.19199999999995"/>
      <point x="320.754" y="506.19199999999995"/>
      <point x="325.72200000000004" y="506.534" type="curve"/>
      <point x="376.53400000000005" y="408.194"/>
      <point x="425.61" y="380.136"/>
    </contour>
    <contour>
      <point x="318.13599999999997" y="554.0899999999999" type="curve" smooth="yes"/>
      <point x="303.908" y="554.0899999999999"/>
      <point x="291.47600000000006" y="554.3180000000001"/>
      <point x="271.898" y="555.1460000000001" type="curve"/>
      <point x="271.898" y="672.9359999999999" type="line"/>
      <point x="296.83000000000004" y="675.164"/>
      <point x="304.71" y="675.562"/>
      <point x="325.03000000000003" y="675.562" type="curve" smooth="yes"/>
      <point x="382.15200000000004" y="675.562"/>
      <point x="393.18999999999994" y="656.432"/>
      <point x="393.18999999999994" y="619.8000000000001" type="curve" smooth="yes"/>
      <point x="393.18999999999994" y="573.2800000000001"/>
      <point x="376.064" y="554.0899999999999"/>
    </contour>
  </outline>
</glyph>
<glyph name="degree" format="2">
  <advance width="304.22"/>
  <unicode hex="00B0"/>
  <outline>
    <contour>
      <point x="151.71200000000002" y="446.04" type="curve" smooth="yes"/>
      <point x="232.802" y="446.04"/>
      <point x="275.424" y="508.982"/>
      <point x="275.424" y="582.58" type="curve" smooth="yes"/>
      <point x="275.424" y="653.34"/>
      <point x="235.726" y="720.26"/>
      <point x="151.71200000000002" y="720.26" type="curve" smooth="yes"/>
      <point x="67.35400000000001" y="720.26"/>
      <point x="28.796" y="653.34"/>
      <point x="28.796" y="582.58" type="curve" smooth="yes"/>
      <point x="28.796" y="508.982"/>
      <point x="70.62199999999999" y="446.04"/>
    </contour>
    <contour>
      <point x="151.71200000000002" y="517.4680000000001" type="curve" smooth="yes"/>
      <point x="119.29" y="517.4680000000001"/>
      <point x="100.224" y="545.266"/>
      <point x="100.224" y="582.322" type="curve" smooth="yes"/>
      <point x="100.224" y="618.1740000000001"/>
      <point x="118.68800000000002" y="647.456"/>
      <point x="151.71200000000002" y="647.456" type="curve" smooth="yes"/>
      <point x="184.392" y="647.456"/>
      <point x="204.34" y="618.1740000000001"/>
      <point x="204.34" y="582.322" type="curve" smooth="yes"/>
      <point x="204.34" y="545.266"/>
      <point x="184.13400000000001" y="517.4680000000001"/>
    </contour>
  </outline>
</glyph>
<glyph name="plusminus" format="2">
  <advance width="508.028"/>
  <unicode hex="00B1"/>
  <outline>
    <contour>
      <point x="48.858000000000004" y="40.868" type="line"/>
      <point x="459.17" y="40.868" type="line"/>
      <point x="459.17" y="128.808" type="line"/>
      <point x="301.33799999999997" y="128.808" type="line"/>
      <point x="301.33799999999997" y="285.18600000000004" type="line"/>
      <point x="459.17" y="285.18600000000004" type="line"/>
      <point x="459.17" y="373.126" type="line"/>
      <point x="301.33799999999997" y="373.126" type="line"/>
      <point x="301.33799999999997" y="527.97" type="line"/>
      <point x="206.518" y="527.97" type="line"/>
      <point x="206.518" y="373.126" type="line"/>
      <point x="48.858000000000004" y="373.126" type="line"/>
      <point x="48.858000000000004" y="285.18600000000004" type="line"/>
      <point x="206.518" y="285.18600000000004" type="line"/>
      <point x="206.518" y="128.808" type="line"/>
      <point x="48.858000000000004" y="128.808" type="line"/>
    </contour>
  </outline>
</glyph>
<glyph name="uni00B2" format="2">
  <advance width="398.498"/>
  <unicode hex="00B2"/>
  <outline>
    <contour>
      <point x="52.092" y="370.0" type="line"/>
      <point x="351.834" y="370.0" type="line"/>
      <point x="351.834" y="424.098" type="line"/>
      <point x="160.53600000000003" y="424.098" type="line"/>
      <point x="282.802" y="534.588"/>
      <point x="312.55400000000003" y="588.7479999999999"/>
      <point x="312.55400000000003" y="652.876" type="curve" smooth="yes"/>
      <point x="312.55400000000003" y="729.444"/>
      <point x="264.0" y="773.8580000000001"/>
      <point x="181.98" y="773.8580000000001" type="curve" smooth="yes"/>
      <point x="136.95" y="773.8580000000001"/>
      <point x="87.602" y="761.3340000000001"/>
      <point x="51.182" y="736.9599999999999" type="curve"/>
      <point x="74.034" y="680.5880000000001" type="line"/>
      <point x="106.84800000000001" y="700.38"/>
      <point x="134.998" y="706.9499999999999"/>
      <point x="165.01399999999998" y="706.9499999999999" type="curve" smooth="yes"/>
      <point x="207.656" y="706.9499999999999"/>
      <point x="231.834" y="679.55"/>
      <point x="231.834" y="637.462" type="curve" smooth="yes"/>
      <point x="231.834" y="585.276"/>
      <point x="184.106" y="522.8560000000001"/>
      <point x="50.382" y="418.314" type="curve"/>
    </contour>
  </outline>
</glyph>
<glyph name="uni00B3" format="2">
  <advance width="392.404"/>
  <unicode hex="00B3"/>
  <outline>
    <contour>
      <point x="30.32" y="394.396" type="line"/>
      <point x="76.318" y="370.94199999999995"/>
      <point x="122.70400000000001" y="362.06399999999996"/>
      <point x="180.85" y="362.06399999999996" type="curve" smooth="yes"/>
      <point x="287.17199999999997" y="362.06399999999996"/>
      <point x="354.23400000000004" y="405.54200000000003"/>
      <point x="354.23400000000004" y="485.01" type="curve" smooth="yes"/>
      <point x="354.23400000000004" y="534.3100000000001"/>
      <point x="326.618" y="567.876"/>
      <point x="272.548" y="580.3520000000001" type="curve"/>
      <point x="312.68000000000006" y="593.134"/>
      <point x="337.56800000000004" y="626.8739999999999"/>
      <point x="337.56800000000004" y="670.578" type="curve" smooth="yes"/>
      <point x="337.56800000000004" y="734.2040000000001"/>
      <point x="283.98400000000004" y="774.146"/>
      <point x="183.036" y="774.146" type="curve" smooth="yes"/>
      <point x="121.77800000000002" y="774.146"/>
      <point x="72.342" y="763.546"/>
      <point x="43.462" y="749.106" type="curve"/>
      <point x="61.15800000000001" y="697.208" type="line"/>
      <point x="78.102" y="704.2280000000001"/>
      <point x="107.788" y="713.488"/>
      <point x="164.40800000000002" y="713.488" type="curve" smooth="yes"/>
      <point x="223.678" y="713.488"/>
      <point x="262.78000000000003" y="690.9799999999999"/>
      <point x="262.78000000000003" y="653.64" type="curve" smooth="yes"/>
      <point x="262.78000000000003" y="620.664"/>
      <point x="239.51999999999998" y="598.304"/>
      <point x="191.31600000000003" y="598.304" type="curve" smooth="yes"/>
      <point x="112.326" y="598.304" type="line"/>
      <point x="112.326" y="548.476" type="line"/>
      <point x="185.75600000000003" y="548.476" type="line" smooth="yes"/>
      <point x="253.222" y="548.476"/>
      <point x="276.61199999999997" y="527.736"/>
      <point x="276.61199999999997" y="490.16999999999996" type="curve" smooth="yes"/>
      <point x="276.61199999999997" y="445.642"/>
      <point x="239.684" y="419.08400000000006"/>
      <point x="172.25199999999998" y="419.08400000000006" type="curve" smooth="yes"/>
      <point x="114.986" y="419.08400000000006"/>
      <point x="82.606" y="426.934"/>
      <point x="51.018" y="444.46" type="curve"/>
    </contour>
  </outline>
</glyph>
<glyph name="uni00B5" format="2">
  <advance width="560.14"/>
  <unicode hex="00B5"/>
  <outline>
    <contour>
      <point x="57.51" y="-210.0" type="line"/>
      <point x="163.338" y="-210.0" type="line"/>
      <point x="163.338" y="23.897999999999996" type="line"/>
      <point x="178.978" y="1.6919999999999993"/>
      <point x="205.622" y="-9.484"/>
      <point x="242.21800000000002" y="-9.484" type="curve" smooth="yes"/>
      <point x="300.056" y="-9.484"/>
      <point x="346.02200000000005" y="12.164"/>
      <point x="394.6" y="43.44" type="curve"/>
      <point x="408.686" y="7.828"/>
      <point x="433.99199999999996" y="-10.0"/>
      <point x="477.24399999999997" y="-10.0" type="curve" smooth="yes"/>
      <point x="507.132" y="-10.0"/>
      <point x="535.384" y="-1.9240000000000002"/>
      <point x="556.432" y="9.664" type="curve"/>
      <point x="545.704" y="85.34599999999999" type="line"/>
      <point x="537.454" y="81.54999999999998"/>
      <point x="528.6600000000001" y="79.75200000000001"/>
      <point x="520.266" y="79.75200000000001" type="curve" smooth="yes"/>
      <point x="501.2300000000001" y="79.75200000000001"/>
      <point x="486.82" y="91.85199999999999"/>
      <point x="486.82" y="130.18" type="curve" smooth="yes"/>
      <point x="486.82" y="538.6" type="line"/>
      <point x="378.67" y="538.6" type="line"/>
      <point x="378.67" y="118.426" type="line"/>
      <point x="334.128" y="94.89"/>
      <point x="296.418" y="79.664"/>
      <point x="251.06199999999998" y="79.664" type="curve" smooth="yes"/>
      <point x="195.83" y="79.664"/>
      <point x="165.91799999999998" y="109.618"/>
      <point x="165.91799999999998" y="164.20000000000002" type="curve" smooth="yes"/>
      <point x="165.91799999999998" y="538.6" type="line"/>
      <point x="57.51" y="538.6" type="line"/>
    </contour>
  </outline>
</glyph>
<glyph name="paragraph" format="2">
  <advance width="621.612"/>
  <unicode hex="00B6"/>
  <outline>
    <contour>
      <point x="467.454" y="-210.0" type="line"/>
      <point x="553.502" y="-210.0" type="line"/>
      <point x="553.502" y="740.0" type="line"/>
      <point x="467.454" y="740.0" type="line"/>
    </contour>
    <contour>
      <point x="253.364" y="268.888" type="line"/>
      <point x="175.306" y="281.474"/>
      <point x="134.63400000000001" y="351.994"/>
      <point x="134.63400000000001" y="464.04" type="curve" smooth="yes"/>
      <point x="134.63400000000001" y="579.934"/>
      <point x="184.19000000000003" y="649.8340000000001"/>
      <point x="296.378" y="652.2280000000001" type="curve"/>
      <point x="296.378" y="-210.0" type="line"/>
      <point x="382.426" y="-210.0" type="line"/>
      <point x="382.426" y="740.0" type="line"/>
      <point x="323.42" y="740.0" type="line" smooth="yes"/>
      <point x="116.376" y="740.0"/>
      <point x="40.158" y="630.9540000000001"/>
      <point x="40.158" y="471.178" type="curve" smooth="yes"/>
      <point x="40.158" y="321.32399999999996"/>
      <point x="103.428" y="223.31"/>
      <point x="243.01999999999998" y="202.534" type="curve"/>
    </contour>
  </outline>
</glyph>
<glyph name="periodcentered" format="2">
  <advance width="200.536"/>
  <unicode hex="00B7"/>
  <outline>
    <contour>
      <point x="38.827999999999996" y="302.47999999999996" type="curve" smooth="yes"/>
      <point x="38.827999999999996" y="259.81999999999994"/>
      <point x="55.364" y="242.48"/>
      <point x="100.296" y="242.48" type="curve" smooth="yes"/>
      <point x="146.22799999999998" y="242.48"/>
      <point x="161.76399999999998" y="259.81999999999994"/>
      <point x="161.76399999999998" y="302.47999999999996" type="curve" smooth="yes"/>
      <point x="161.76399999999998" y="346.0"/>
      <point x="146.22799999999998" y="363.34"/>
      <point x="100.296" y="363.34" type="curve" smooth="yes"/>
      <point x="54.364" y="363.34"/>
      <point x="38.827999999999996" y="346.0"/>
    </contour>
  </outline>
</glyph>
<glyph name="uni00B9" format="2">
  <advance width="366.75600000000003"/>
  <unicode hex="00B9"/>
  <outline>
    <contour>
      <point x="37.65" y="370.0" type="line"/>
      <point x="343.034" y="370.0" type="line"/>
      <point x="343.034" y="425.3" type="line"/>
      <point x="239.048" y="425.3" type="line"/>
      <point x="239.048" y="768.2540000000001" type="line"/>
      <point x="198.63400000000001" y="768.2540000000001" type="line"/>
      <point x="25.644000000000002" y="694.962" type="line"/>
      <point x="44.11" y="634.8420000000001" type="line"/>
      <point x="158.55800000000002" y="687.128" type="line"/>
      <point x="158.55800000000002" y="425.3" type="line"/>
      <point x="37.65" y="425.3" type="line"/>
    </contour>
  </outline>
</glyph>
<glyph name="ordmasculine" format="2">
  <advance width="382.564"/>
  <unicode hex="00BA"/>
  <outline>
    <contour>
      <point x="45.536" y="252.642" type="line"/>
      <point x="342.24600000000004" y="252.642" type="line"/>
      <point x="342.24600000000004" y="311.122" type="line"/>
      <point x="45.536" y="311.122" type="line"/>
    </contour>
    <component base="o.superior" xOffset="12.104"/>
  </outline>
</glyph>
<glyph name="questiondown" format="2">
  <advance width="462.762"/>
  <unicode hex="00BF"/>
  <outline>
    <contour>
      <point x="304.9" y="274.424" type="line"/>
      <point x="210.85399999999998" y="274.424" type="line"/>
      <point x="210.51" y="206.298" type="line"/>
      <point x="87.164" y="151.992"/>
      <point x="33.391999999999996" y="90.38"/>
      <point x="33.391999999999996" y="-16.740000000000002" type="curve" smooth="yes"/>
      <point x="33.391999999999996" y="-156.24"/>
      <point x="134.674" y="-214.152"/>
      <point x="248.53599999999997" y="-214.152" type="curve" smooth="yes"/>
      <point x="320.44" y="-214.152"/>
      <point x="401.706" y="-189.97400000000002"/>
      <point x="457.142" y="-149.92199999999997" type="curve"/>
      <point x="422.98" y="-65.004" type="line"/>
      <point x="369.81199999999995" y="-100.29799999999999"/>
      <point x="314.646" y="-115.54599999999999"/>
      <point x="264.79" y="-115.54599999999999" type="curve" smooth="yes"/>
      <point x="201.01" y="-115.54599999999999"/>
      <point x="145.75400000000002" y="-79.884"/>
      <point x="145.75400000000002" y="-5.384000000000001" type="curve" smooth="yes"/>
      <point x="145.75400000000002" y="57.836"/>
      <point x="177.13" y="105.816"/>
      <point x="307.13599999999997" y="156.744" type="curve"/>
    </contour>
    <contour>
      <point x="317.44599999999997" y="480.57800000000003" type="curve" smooth="yes"/>
      <point x="317.44599999999997" y="522.7220000000001"/>
      <point x="301.25800000000004" y="540.062"/>
      <point x="256.41" y="540.062" type="curve" smooth="yes"/>
      <point x="211.508" y="540.062"/>
      <point x="195.716" y="522.7220000000001"/>
      <point x="195.716" y="480.57800000000003" type="curve" smooth="yes"/>
      <point x="195.716" y="438.00399999999996"/>
      <point x="211.508" y="420.664"/>
      <point x="256.41" y="420.664" type="curve" smooth="yes"/>
      <point x="302.17" y="420.664"/>
      <point x="317.44599999999997" y="438.00399999999996"/>
    </contour>
  </outline>
</glyph>
<glyph name="AE" format="2">
  <advance width="954.296"/>
  <unicode hex="00C6"/>
  <anchor x="506.23600000000005" y="700.0" name="top"/>
  <outline>
    <contour>
      <point x="6.896" y="0.0" type="line"/>
      <point x="135.70399999999998" y="-0.9440000000000001" type="line"/>
      <point x="266.588" y="232.728" type="line"/>
      <point x="454.62" y="232.728" type="line"/>
      <point x="454.62" y="0.0" type="line"/>
      <point x="928.044" y="0.0" type="line"/>
      <point x="928.044" y="99.12" type="line"/>
      <point x="567.5" y="99.12" type="line"/>
      <point x="567.5" y="290.26400000000007" type="line"/>
      <point x="887.2680000000001" y="290.26400000000007" type="line"/>
      <point x="887.2680000000001" y="388.52399999999994" type="line"/>
      <point x="567.5" y="388.52399999999994" type="line"/>
      <point x="567.5" y="600.88" type="line"/>
      <point x="910.96" y="600.88" type="line"/>
      <point x="910.96" y="700.0" type="line"/>
      <point x="395.6" y="700.0" type="line"/>
    </contour>
    <contour>
      <point x="310.324" y="324.884" type="line"/>
      <point x="453.76" y="612.892" type="line"/>
      <point x="453.76" y="324.884" type="line"/>
    </contour>
  </outline>
</glyph>
<glyph name="multiply" format="2">
  <advance width="473.04400000000004"/>
  <unicode hex="00D7"/>
  <outline>
    <contour>
      <point x="110.968" y="94.39999999999999" type="line"/>
      <point x="236.40800000000002" y="244.602" type="line"/>
      <point x="361.848" y="95.42599999999999" type="line"/>
      <point x="422.538" y="158.36999999999998" type="line"/>
      <point x="300.894" y="306.834" type="line"/>
      <point x="422.65200000000004" y="456.61" type="line"/>
      <point x="361.962" y="519.554" type="line"/>
      <point x="236.40800000000002" y="369.408" type="line"/>
      <point x="110.74000000000001" y="520.01" type="line"/>
      <point x="50.05" y="457.066" type="line"/>
      <point x="172.09199999999998" y="306.834" type="line"/>
      <point x="50.278000000000006" y="157.34399999999997" type="line"/>
    </contour>
  </outline>
</glyph>
<glyph name="Oslash" format="2">
  <advance width="695.04"/>
  <unicode hex="00D8"/>
  <anchor x="345.74" y="700.0" name="top"/>
  <outline>
    <contour>
      <point x="134.62" y="-11.72" type="line"/>
      <point x="193.74" y="73.56" type="line"/>
      <point x="198.04" y="73.55999999999999" type="line"/>
      <point x="556.0200000000001" y="586.64" type="line"/>
      <point x="560.32" y="586.64" type="line"/>
      <point x="649.36" y="714.3" type="line"/>
      <point x="557.14" y="714.3" type="line"/>
      <point x="500.02" y="632.88" type="line"/>
      <point x="495.58000000000004" y="632.74" type="line"/>
      <point x="143.76" y="127.25999999999999" type="line"/>
      <point x="139.46" y="127.26" type="line"/>
      <point x="43.400000000000006" y="-11.72" type="line"/>
    </contour>
    <contour>
      <point x="345.74" y="76.08" type="curve" smooth="yes"/>
      <point x="237.67999999999998" y="76.08"/>
      <point x="149.39999999999998" y="132.04"/>
      <point x="149.39999999999998" y="349.86" type="curve" smooth="yes"/>
      <point x="149.39999999999998" y="571.24"/>
      <point x="237.67999999999998" y="623.9200000000001"/>
      <point x="345.74" y="623.9200000000001" type="curve" smooth="yes"/>
      <point x="453.94000000000005" y="623.9200000000001"/>
      <point x="543.2199999999999" y="571.38"/>
      <point x="543.2199999999999" y="349.86" type="curve" smooth="yes"/>
      <point x="543.2199999999999" y="129.48"/>
      <point x="453.94000000000005" y="76.08"/>
    </contour>
    <contour>
      <point x="345.74" y="-10.0" type="curve" smooth="yes"/>
      <point x="531.86" y="-10.0"/>
      <point x="654.5200000000001" y="71.47999999999999"/>
      <point x="654.5200000000001" y="351.86" type="curve" smooth="yes"/>
      <point x="654.5200000000001" y="627.66"/>
      <point x="532.88" y="710.0"/>
      <point x="345.74" y="710.0" type="curve" smooth="yes"/>
      <point x="157.6" y="710.0"/>
      <point x="38.24" y="626.66"/>
      <point x="38.24" y="349.86" type="curve" smooth="yes"/>
      <point x="38.24" y="75.03999999999999"/>
      <point x="161.04" y="-10.0"/>
    </contour>
  </outline>
</glyph>
<glyph name="Thorn" format="2">
  <advance width="633.6179999999999"/>
  <unicode hex="00DE"/>
  <outline>
    <contour>
      <point x="65.65799999999999" y="0.0" type="line"/>
      <point x="177.506" y="0.0" type="line"/>
      <point x="177.506" y="143.76600000000002" type="line"/>
      <point x="252.778" y="140.79199999999997"/>
      <point x="266.968" y="140.56399999999996"/>
      <point x="335.73999999999995" y="140.56399999999996" type="curve" smooth="yes"/>
      <point x="527.904" y="140.56399999999996"/>
      <point x="600.558" y="210.978"/>
      <point x="600.558" y="390.214" type="curve" smooth="yes"/>
      <point x="600.558" y="560.84"/>
      <point x="540.186" y="626.646"/>
      <point x="305.43800000000005" y="626.646" type="curve" smooth="yes"/>
      <point x="279.462" y="626.646"/>
      <point x="242.648" y="625.6759999999999"/>
      <point x="177.76399999999998" y="622.996" type="curve"/>
      <point x="177.76399999999998" y="700.0" type="line"/>
      <point x="65.65799999999999" y="700.0" type="line"/>
    </contour>
    <contour>
      <point x="303.316" y="232.89" type="curve" smooth="yes"/>
      <point x="257.418" y="232.89"/>
      <point x="231.28400000000002" y="233.746"/>
      <point x="177.76399999999998" y="235.976" type="curve"/>
      <point x="177.76399999999998" y="532.216" type="line"/>
      <point x="252.306" y="536.528"/>
      <point x="279.408" y="537.326"/>
      <point x="313.52" y="537.326" type="curve" smooth="yes"/>
      <point x="453.40200000000004" y="537.326"/>
      <point x="487.50600000000003" y="494.822"/>
      <point x="487.50600000000003" y="392.11199999999997" type="curve" smooth="yes"/>
      <point x="487.50600000000003" y="282.758"/>
      <point x="451.466" y="232.89"/>
    </contour>
  </outline>
</glyph>
<glyph name="germandbls" format="2">
  <advance width="660.2760000000001"/>
  <unicode hex="00DF"/>
  <outline>
    <contour>
      <point x="98.456" y="0.0" type="line"/>
      <point x="206.348" y="0.0" type="line"/>
      <point x="206.348" y="511.368" type="line" smooth="yes"/>
      <point x="206.348" y="615.968"/>
      <point x="260.5" y="664.436"/>
      <point x="367.58" y="664.436" type="curve" smooth="yes"/>
      <point x="455.088" y="664.436"/>
      <point x="484.22" y="644.112"/>
      <point x="484.22" y="598.3439999999999" type="curve" smooth="yes"/>
      <point x="484.22" y="562.404"/>
      <point x="466.432" y="547.456"/>
      <point x="402.568" y="519.852" type="curve" smooth="yes"/>
      <point x="326.548" y="490.572"/>
      <point x="289.656" y="450.756"/>
      <point x="289.656" y="385.812" type="curve" smooth="yes"/>
      <point x="289.656" y="302.204"/>
      <point x="326.612" y="264.108"/>
      <point x="451.20000000000005" y="231.6" type="curve" smooth="yes"/>
      <point x="529.3480000000001" y="207.52"/>
      <point x="555.672" y="192.624"/>
      <point x="555.672" y="147.78" type="curve" smooth="yes"/>
      <point x="555.672" y="96.37599999999999"/>
      <point x="503.624" y="72.60799999999999"/>
      <point x="437.156" y="72.60799999999999" type="curve" smooth="yes"/>
      <point x="379.23199999999997" y="72.60799999999999"/>
      <point x="322.15599999999995" y="84.952"/>
      <point x="269.608" y="100.888" type="curve"/>
      <point x="253.696" y="20.451999999999998" type="line"/>
      <point x="311.544" y="0.10799999999999965"/>
      <point x="374.2" y="-10.0"/>
      <point x="437.844" y="-10.0" type="curve" smooth="yes"/>
      <point x="553.776" y="-10.0"/>
      <point x="656.168" y="38.14"/>
      <point x="656.168" y="155.004" type="curve" smooth="yes"/>
      <point x="656.168" y="242.79600000000002"/>
      <point x="610.6" y="283.892"/>
      <point x="486.044" y="315.712" type="curve" smooth="yes"/>
      <point x="409.628" y="337.44800000000004"/>
      <point x="388.26" y="356.128"/>
      <point x="388.26" y="392.52" type="curve" smooth="yes"/>
      <point x="388.26" y="427.83599999999996"/>
      <point x="412.864" y="437.98"/>
      <point x="460.964" y="458.272" type="curve" smooth="yes"/>
      <point x="548.264" y="496.13200000000006"/>
      <point x="588.8439999999999" y="526.3359999999999"/>
      <point x="588.8439999999999" y="598.0" type="curve" smooth="yes"/>
      <point x="588.8439999999999" y="699.66"/>
      <point x="513.1399999999999" y="750.0"/>
      <point x="364.452" y="750.0" type="curve" smooth="yes"/>
      <point x="188.816" y="750.0"/>
      <point x="98.424" y="673.388"/>
      <point x="98.456" y="528.216" type="curve" smooth="yes"/>
      <point x="98.456" y="495.35200000000003" type="line"/>
      <point x="18.292" y="486.428" type="line"/>
      <point x="18.292" y="414.63599999999997" type="line"/>
      <point x="98.456" y="414.63599999999997" type="line"/>
    </contour>
  </outline>
</glyph>
<glyph name="ae" format="2">
  <advance width="830.4200000000001"/>
  <unicode hex="00E6"/>
  <anchor x="422.92" y="538.6" name="top"/>
  <outline>
    <contour>
      <point x="171.17999999999998" y="-10.0" type="curve" smooth="yes"/>
      <point x="258.3" y="-10.0"/>
      <point x="325.70000000000005" y="29.38"/>
      <point x="386.0" y="82.80000000000001" type="curve"/>
      <point x="387.85999999999996" y="82.80000000000001" type="line"/>
      <point x="428.04" y="17.98"/>
      <point x="488.06" y="-10.0"/>
      <point x="588.36" y="-10.0" type="curve" smooth="yes"/>
      <point x="670.66" y="-10.0"/>
      <point x="733.12" y="0.8599999999999995"/>
      <point x="793.4599999999999" y="20.160000000000004" type="curve"/>
      <point x="779.14" y="104.52000000000001" type="line"/>
      <point x="725.82" y="90.66"/>
      <point x="662.5" y="80.52"/>
      <point x="601.4" y="80.52" type="curve" smooth="yes"/>
      <point x="502.18" y="80.52"/>
      <point x="459.24" y="112.74"/>
      <point x="457.52" y="232.06" type="curve" smooth="yes"/>
      <point x="456.65999999999997" y="237.33999999999997"/>
      <point x="456.65999999999997" y="245.17999999999998"/>
      <point x="457.65999999999997" y="248.46" type="curve"/>
      <point x="617.42" y="251.04000000000002"/>
      <point x="740.98" y="264.32"/>
      <point x="797.3000000000001" y="269.32" type="curve"/>
      <point x="797.3" y="281.2"/>
      <point x="798.3" y="295.66"/>
      <point x="798.3" y="310.1" type="curve" smooth="yes"/>
      <point x="798.3" y="477.16"/>
      <point x="725.8599999999999" y="548.6"/>
      <point x="582.76" y="548.6" type="curve" smooth="yes"/>
      <point x="509.62000000000006" y="548.6"/>
      <point x="446.82" y="523.34"/>
      <point x="410.8" y="453.59999999999997" type="curve"/>
      <point x="409.79999999999995" y="453.59999999999997" type="line"/>
      <point x="385.0" y="516.8"/>
      <point x="333.74000000000007" y="548.6"/>
      <point x="240.62" y="548.6" type="curve" smooth="yes"/>
      <point x="186.16" y="548.6"/>
      <point x="118.54000000000002" y="538.02"/>
      <point x="59.52" y="520.3000000000001" type="curve"/>
      <point x="77.42" y="433.36" type="line"/>
      <point x="136.14" y="450.36"/>
      <point x="193.73999999999998" y="456.36"/>
      <point x="233.02" y="456.36" type="curve" smooth="yes"/>
      <point x="309.09999999999997" y="456.36"/>
      <point x="344.78000000000003" y="425.84"/>
      <point x="344.78000000000003" y="373.36" type="curve" smooth="yes"/>
      <point x="344.78000000000003" y="317.64" type="line"/>
      <point x="125.34" y="299.38"/>
      <point x="26.68" y="262.36"/>
      <point x="26.68" y="134.36" type="curve" smooth="yes"/>
      <point x="26.68" y="41.32"/>
      <point x="81.7" y="-10.0"/>
    </contour>
    <contour>
      <point x="207.29999999999998" y="64.9" type="curve" smooth="yes"/>
      <point x="165.07999999999998" y="64.9"/>
      <point x="136.98000000000002" y="91.58"/>
      <point x="136.98000000000002" y="142.8" type="curve" smooth="yes"/>
      <point x="136.98000000000002" y="222.26000000000002"/>
      <point x="214.1" y="243.51999999999998"/>
      <point x="344.64" y="255.64000000000001" type="curve"/>
      <point x="344.64" y="246.64000000000001"/>
      <point x="344.64" y="236.64"/>
      <point x="344.64" y="226.78" type="curve" smooth="yes"/>
      <point x="344.64" y="189.84000000000003"/>
      <point x="346.92" y="160.74"/>
      <point x="352.48" y="135.48" type="curve"/>
      <point x="317.26" y="98.98"/>
      <point x="259.78" y="64.9"/>
    </contour>
    <contour>
      <point x="457.8" y="313.03999999999996" type="curve"/>
      <point x="459.52" y="436.02"/>
      <point x="516.98" y="469.40000000000003"/>
      <point x="576.46" y="469.40000000000003" type="curve" smooth="yes"/>
      <point x="647.3399999999999" y="469.40000000000003"/>
      <point x="683.6999999999999" y="424.76"/>
      <point x="687.14" y="325.02" type="curve"/>
      <point x="654.2800000000001" y="321.88"/>
      <point x="564.72" y="313.03999999999996"/>
    </contour>
  </outline>
</glyph>
<glyph name="eth" format="2">
  <advance width="549.42"/>
  <unicode hex="00F0"/>
  <outline>
    <contour>
      <point x="423.36" y="422.44" type="curve"/>
      <point x="426.93999999999994" y="498.34000000000003" type="line"/>
      <point x="382.94" y="524.88"/>
      <point x="333.82" y="533.58"/>
      <point x="273.56" y="533.58" type="curve" smooth="yes"/>
      <point x="105.92" y="533.58"/>
      <point x="33.239999999999995" y="442.41999999999996"/>
      <point x="33.239999999999995" y="255.42" type="curve" smooth="yes"/>
      <point x="33.239999999999995" y="72.3"/>
      <point x="106.97999999999999" y="-10.0"/>
      <point x="260.06" y="-10.0" type="curve" smooth="yes"/>
      <point x="447.6" y="-10.0"/>
      <point x="515.04" y="82.16"/>
      <point x="515.04" y="345.62" type="curve" smooth="yes"/>
      <point x="515.04" y="614.22"/>
      <point x="414.96000000000004" y="730.6400000000001"/>
      <point x="210.46" y="730.6400000000001" type="curve" smooth="yes"/>
      <point x="154.16" y="730.6400000000001"/>
      <point x="102.26" y="723.06"/>
      <point x="41.82000000000001" y="707.34" type="curve"/>
      <point x="53.56" y="633.4399999999999" type="line"/>
      <point x="106.28" y="646.3"/>
      <point x="141.98000000000002" y="654.16"/>
      <point x="187.82" y="654.16" type="curve" smooth="yes"/>
      <point x="350.1" y="654.16"/>
      <point x="407.32000000000005" y="582.5400000000001"/>
      <point x="407.32000000000005" y="348.78" type="curve" smooth="yes"/>
      <point x="407.32000000000005" y="130.98"/>
      <point x="369.1" y="74.36"/>
      <point x="271.23999999999995" y="74.36" type="curve" smooth="yes"/>
      <point x="185.34" y="74.36"/>
      <point x="145.26000000000002" y="123.28"/>
      <point x="145.26000000000002" y="256.42" type="curve" smooth="yes"/>
      <point x="145.26000000000002" y="404.90000000000003"/>
      <point x="192.14000000000001" y="457.1"/>
      <point x="291.34" y="457.1" type="curve" smooth="yes"/>
      <point x="339.56" y="457.1"/>
      <point x="384.4" y="447.68"/>
    </contour>
    <contour>
      <point x="183.24" y="555.64" type="line"/>
      <point x="358.92" y="649.82" type="line"/>
      <point x="364.92" y="656.98" type="line"/>
      <point x="508.69999999999993" y="735.2" type="line"/>
      <point x="401.62" y="735.2" type="line"/>
      <point x="310.94" y="685.9" type="line"/>
      <point x="305.36" y="679.74" type="line"/>
      <point x="75.3" y="555.64" type="line"/>
    </contour>
  </outline>
</glyph>
<glyph name="divide" format="2">
  <advance width="497.6"/>
  <unicode hex="00F7"/>
  <outline>
    <contour>
      <point x="195.07200000000003" y="123.344" type="curve" smooth="yes"/>
      <point x="195.07200000000003" y="88.42399999999999"/>
      <point x="209.80399999999997" y="75.38399999999999"/>
      <point x="248.8" y="75.38399999999999" type="curve" smooth="yes"/>
      <point x="288.712" y="75.38399999999999"/>
      <point x="302.52799999999996" y="88.42399999999999"/>
      <point x="302.52799999999996" y="123.344" type="curve" smooth="yes"/>
      <point x="302.52799999999996" y="157.404"/>
      <point x="288.628" y="171.30399999999997"/>
      <point x="248.8" y="171.30399999999997" type="curve" smooth="yes"/>
      <point x="208.888" y="171.30399999999997"/>
      <point x="195.07200000000003" y="157.404"/>
    </contour>
    <contour>
      <point x="195.07200000000003" y="486.47599999999994" type="curve" smooth="yes"/>
      <point x="195.07200000000003" y="452.416"/>
      <point x="209.88799999999998" y="438.51599999999996"/>
      <point x="248.8" y="438.51599999999996" type="curve" smooth="yes"/>
      <point x="288.712" y="438.51599999999996"/>
      <point x="302.52799999999996" y="452.416"/>
      <point x="302.52799999999996" y="486.47599999999994" type="curve" smooth="yes"/>
      <point x="302.52799999999996" y="521.396"/>
      <point x="288.712" y="535.296"/>
      <point x="248.8" y="535.296" type="curve" smooth="yes"/>
      <point x="208.888" y="535.296"/>
      <point x="195.07200000000003" y="521.396"/>
    </contour>
    <contour>
      <point x="48.943999999999996" y="260.93999999999994" type="line"/>
      <point x="448.65599999999995" y="260.93999999999994" type="line"/>
      <point x="448.65599999999995" y="349.74" type="line"/>
      <point x="48.943999999999996" y="349.74" type="line"/>
    </contour>
  </outline>
</glyph>
<glyph name="oslash" format="2">
  <advance width="555.7"/>
  <unicode hex="00F8"/>
  <anchor x="276.91999999999996" y="538.6" name="top"/>
  <outline>
    <contour>
      <point x="276.91999999999996" y="-10.0" type="curve" smooth="yes"/>
      <point x="99.82" y="-10.0"/>
      <point x="33.239999999999995" y="80.64000000000001"/>
      <point x="33.239999999999995" y="270.3" type="curve" smooth="yes"/>
      <point x="33.239999999999995" y="454.82"/>
      <point x="91.96" y="548.6"/>
      <point x="276.91999999999996" y="548.6" type="curve" smooth="yes"/>
      <point x="461.15999999999997" y="548.6"/>
      <point x="520.74" y="454.82"/>
      <point x="520.74" y="270.3" type="curve" smooth="yes"/>
      <point x="520.74" y="80.64000000000001"/>
      <point x="454.15999999999997" y="-10.0"/>
    </contour>
    <contour>
      <point x="276.92" y="69.19999999999999" type="curve" smooth="yes"/>
      <point x="374.21999999999997" y="69.19999999999999"/>
      <point x="412.15999999999997" y="118.28"/>
      <point x="412.15999999999997" y="270.3" type="curve" smooth="yes"/>
      <point x="412.15999999999997" y="418.17999999999995"/>
      <point x="378.64" y="469.40000000000003"/>
      <point x="276.92" y="469.40000000000003" type="curve" smooth="yes"/>
      <point x="174.48" y="469.40000000000003"/>
      <point x="140.96" y="418.17999999999995"/>
      <point x="140.96" y="270.3" type="curve" smooth="yes"/>
      <point x="140.96" y="118.28"/>
      <point x="179.76" y="69.19999999999999"/>
    </contour>
    <contour>
      <point x="33.1" y="-7.42" type="line"/>
      <point x="109.6" y="97.82000000000001" type="line"/>
      <point x="110.6" y="96.96000000000001" type="line"/>
      <point x="390.38" y="485.0" type="line"/>
      <point x="391.38" y="484.14" type="line"/>
      <point x="438.26" y="548.6" type="line"/>
      <point x="520.88" y="548.6" type="line"/>
      <point x="438.5" y="435.9" type="line"/>
      <point x="437.5" y="436.76000000000005" type="line"/>
      <point x="162.02" y="55.6" type="line"/>
      <point x="161.01999999999998" y="56.459999999999994" type="line"/>
      <point x="114.0" y="-7.42" type="line"/>
    </contour>
  </outline>
</glyph>
<glyph name="thorn" format="2">
  <advance width="550.718"/>
  <unicode hex="00FE"/>
  <outline>
    <contour>
      <point x="57.51" y="-210.0" type="line"/>
      <point x="165.316" y="-210.0" type="line"/>
      <point x="165.316" y="-0.8199999999999994" type="line"/>
      <point x="198.10399999999998" y="-7.091999999999999"/>
      <point x="231.034" y="-10.0"/>
      <point x="260.688" y="-10.0" type="curve" smooth="yes"/>
      <point x="441.39200000000005" y="-10.0"/>
      <point x="516.36" y="72.062"/>
      <point x="516.36" y="278.65200000000004" type="curve" smooth="yes"/>
      <point x="516.36" y="455.664"/>
      <point x="445.6" y="548.6"/>
      <point x="312.81199999999995" y="548.6" type="curve" smooth="yes"/>
      <point x="265.868" y="548.6"/>
      <point x="213.208" y="536.848"/>
      <point x="165.832" y="517.5140000000001" type="curve"/>
      <point x="165.832" y="740.0" type="line"/>
      <point x="57.51" y="740.0" type="line"/>
    </contour>
    <contour>
      <point x="260.526" y="68.946" type="curve" smooth="yes"/>
      <point x="233.694" y="68.946"/>
      <point x="203.23800000000003" y="72.79999999999998"/>
      <point x="165.91799999999998" y="81.41999999999999" type="curve"/>
      <point x="165.91799999999998" y="437.688" type="line"/>
      <point x="205.024" y="451.734"/>
      <point x="239.816" y="457.788"/>
      <point x="272.096" y="457.788" type="curve" smooth="yes"/>
      <point x="360.01599999999996" y="457.788"/>
      <point x="404.68399999999997" y="398.73800000000006"/>
      <point x="404.68399999999997" y="270.826" type="curve" smooth="yes"/>
      <point x="404.68399999999997" y="120.47999999999999"/>
      <point x="362.05800000000005" y="68.946"/>
    </contour>
  </outline>
</glyph>
<glyph name="Dcroat" format="2">
  <advance width="673.148"/>
  <unicode hex="0110"/>
  <outline>
    <contour>
      <point x="4.44" y="313.02000000000004" type="line"/>
      <point x="311.12399999999997" y="313.02000000000004" type="line"/>
      <point x="311.12399999999997" y="399.24" type="line"/>
      <point x="4.44" y="399.24" type="line"/>
    </contour>
    <component base="D" xOffset="3.168"/>
  </outline>
</glyph>
<glyph name="dcroat" format="2">
  <advance width="555.62"/>
  <unicode hex="0111"/>
  <outline>
    <contour>
      <point x="236.316" y="608.54" type="line"/>
      <point x="562.3679999999999" y="608.54" type="line"/>
      <point x="562.3679999999999" y="672.9799999999999" type="line"/>
      <point x="236.316" y="672.9799999999999" type="line"/>
    </contour>
    <component base="d"/>
  </outline>
</glyph>
<glyph name="Hbar" format="2">
  <advance width="685.426"/>
  <unicode hex="0126"/>
  <outline>
    <contour>
      <point x="17.720000000000002" y="499.04999999999995" type="line"/>
      <point x="65.82999999999998" y="499.04999999999995" type="line"/>
      <point x="65.82999999999998" y="0.0" type="line"/>
      <point x="177.42000000000002" y="0.0" type="line"/>
      <point x="177.42000000000002" y="260.93000000000006" type="line"/>
      <point x="509.72600000000006" y="260.93000000000006" type="line"/>
      <point x="509.72600000000006" y="0.0" type="line"/>
      <point x="619.5959999999999" y="0.0" type="line"/>
      <point x="619.5959999999999" y="499.04999999999995" type="line"/>
      <point x="667.706" y="499.04999999999995" type="line"/>
      <point x="667.706" y="575.9019999999999" type="line"/>
      <point x="619.5959999999999" y="575.9019999999999" type="line"/>
      <point x="619.5959999999999" y="700.0" type="line"/>
      <point x="509.72600000000006" y="700.0" type="line"/>
      <point x="509.72600000000006" y="575.9019999999999" type="line"/>
      <point x="177.42000000000002" y="575.9019999999999" type="line"/>
      <point x="177.42000000000002" y="700.0" type="line"/>
      <point x="65.82999999999998" y="700.0" type="line"/>
      <point x="65.82999999999998" y="575.9019999999999" type="line"/>
      <point x="17.720000000000002" y="575.9019999999999" type="line"/>
    </contour>
    <contour>
      <point x="177.42000000000002" y="360.99800000000005" type="line"/>
      <point x="177.42000000000002" y="499.04999999999995" type="line"/>
      <point x="509.72600000000006" y="499.04999999999995" type="line"/>
      <point x="509.72600000000006" y="360.99800000000005" type="line"/>
    </contour>
  </outline>
</glyph>
<glyph name="hbar" format="2">
  <advance width="554.392"/>
  <unicode hex="0127"/>
  <outline>
    <contour>
      <point x="-5.803999999999999" y="608.54" type="line"/>
      <point x="328.76800000000003" y="608.54" type="line"/>
      <point x="328.76800000000003" y="672.9799999999999" type="line"/>
      <point x="-5.803999999999999" y="672.9799999999999" type="line"/>
    </contour>
    <component base="h"/>
  </outline>
</glyph>
<glyph name="Idotaccent" format="2">
  <advance width="242.90600000000003"/>
  <unicode hex="0130"/>
  <outline>
    <contour>
      <point x="121.83999999999999" y="776.1719999999999" type="curve" smooth="yes"/>
      <point x="169.148" y="776.1719999999999"/>
      <point x="186.74800000000002" y="792.824"/>
      <point x="186.74800000000002" y="833.1619999999999" type="curve" smooth="yes"/>
      <point x="186.74800000000002" y="874.016"/>
      <point x="168.632" y="890.4100000000001"/>
      <point x="121.83999999999999" y="890.4100000000001" type="curve" smooth="yes"/>
      <point x="74.79" y="890.4100000000001"/>
      <point x="56.67400000000001" y="874.016"/>
      <point x="56.67400000000001" y="833.1619999999999" type="curve" smooth="yes"/>
      <point x="56.67400000000001" y="792.566"/>
      <point x="75.36000000000001" y="776.1719999999999"/>
    </contour>
    <component base="I"/>
  </outline>
</glyph>
<glyph name="dotlessi" format="2">
  <advance width="223.944"/>
  <unicode hex="0131"/>
  <anchor x="160.01399999999998" y="4.3" name="ogonek"/>
  <anchor x="112.488" y="0.0" name="bottom"/>
  <anchor x="111.972" y="538.6" name="top"/>
  <outline>
    <contour>
      <point x="57.51" y="0.0" type="line"/>
      <point x="166.434" y="0.0" type="line"/>
      <point x="166.434" y="538.6" type="line"/>
      <point x="57.51" y="538.6" type="line"/>
    </contour>
  </outline>
</glyph>
<glyph name="kgreenlandic" format="2">
  <advance width="520.04"/>
  <unicode hex="0138"/>
  <anchor x="262.93999999999994" y="538.6" name="top"/>
  <anchor x="262.93999999999994" y="0.0" name="bottom"/>
  <outline>
    <contour>
      <point x="481.24" y="-8.86" type="curve" smooth="yes"/>
      <point x="493.12" y="-8.86"/>
      <point x="502.55999999999995" y="-7.72"/>
      <point x="511.86" y="-5.859999999999999" type="curve"/>
      <point x="509.7199999999999" y="106.16" type="line"/>
      <point x="503.86000000000007" y="106.02"/>
      <point x="498.85999999999996" y="105.02"/>
      <point x="495.00000000000006" y="105.02" type="curve" smooth="yes"/>
      <point x="462.7" y="105.02"/>
      <point x="430.84" y="123.58"/>
      <point x="331.3" y="222.37999999999997" type="curve" smooth="yes"/>
      <point x="161.35999999999999" y="391.56" type="line"/>
      <point x="161.35999999999999" y="538.6" type="line"/>
      <point x="57.080000000000005" y="538.6" type="line"/>
      <point x="57.080000000000005" y="0.0" type="line"/>
      <point x="161.35999999999999" y="0.0" type="line"/>
      <point x="161.35999999999999" y="249.9" type="line"/>
      <point x="307.68" y="104.34" type="line" smooth="yes"/>
      <point x="408.32" y="2.4399999999999995"/>
      <point x="438.78" y="-8.86"/>
    </contour>
    <contour>
      <point x="265.42" y="240.12" type="line"/>
      <point x="346.42" y="314.71999999999997"/>
      <point x="453.53999999999996" y="414.2"/>
      <point x="490.35999999999996" y="533.74" type="curve"/>
      <point x="381.34000000000003" y="542.74" type="line"/>
      <point x="349.68" y="433.24"/>
      <point x="267.2" y="364.12"/>
      <point x="177.74" y="285.08000000000004" type="curve"/>
    </contour>
  </outline>
</glyph>
<glyph name="Ldot" format="2">
  <advance width="524.43"/>
  <unicode hex="013F"/>
  <outline>
    <contour>
      <point x="329.088" y="386.998" type="curve" smooth="yes"/>
      <point x="329.088" y="352.078"/>
      <point x="342.27000000000004" y="338.35"/>
      <point x="381.01" y="338.35" type="curve" smooth="yes"/>
      <point x="420.57800000000003" y="338.35"/>
      <point x="433.19" y="352.078"/>
      <point x="433.19" y="386.998" type="curve" smooth="yes"/>
      <point x="433.19" y="422.348"/>
      <point x="420.57800000000003" y="436.076"/>
      <point x="381.01" y="436.076" type="curve" smooth="yes"/>
      <point x="341.7" y="436.076"/>
      <point x="329.088" y="422.348"/>
    </contour>
    <component base="L"/>
  </outline>
</glyph>
<glyph name="ldot" format="2">
  <advance width="317.14"/>
  <unicode hex="0140"/>
  <outline>
    <contour>
      <point x="275.45" y="330.398" type="curve" smooth="yes"/>
      <point x="303.58" y="330.398"/>
      <point x="313.78399999999993" y="341.546"/>
      <point x="313.78399999999993" y="373.71400000000006" type="curve" smooth="yes"/>
      <point x="313.78399999999993" y="406.14000000000004"/>
      <point x="303.58" y="417.288"/>
      <point x="275.45" y="417.288" type="curve" smooth="yes"/>
      <point x="247.578" y="417.288"/>
      <point x="237.374" y="406.14000000000004"/>
      <point x="237.374" y="373.71400000000006" type="curve" smooth="yes"/>
      <point x="237.374" y="341.546"/>
      <point x="248.14800000000002" y="330.398"/>
    </contour>
    <component base="l"/>
  </outline>
</glyph>
<glyph name="Lslash" format="2">
  <advance width="537.024"/>
  <unicode hex="0141"/>
  <outline>
    <contour>
      <point x="15.339999999999998" y="191.89" type="line"/>
      <point x="78.25200000000001" y="232.62" type="line"/>
      <point x="78.25200000000001" y="0.0" type="line"/>
      <point x="520.444" y="0.0" type="line"/>
      <point x="520.444" y="98.26200000000001" type="line"/>
      <point x="190.1" y="98.26200000000001" type="line"/>
      <point x="190.1" y="288.15400000000005" type="line"/>
      <point x="387.05600000000004" y="411.01" type="line"/>
      <point x="387.05600000000004" y="509.48199999999997" type="line"/>
      <point x="190.1" y="386.96799999999996" type="line"/>
      <point x="190.1" y="700.0" type="line"/>
      <point x="78.25200000000001" y="700.0" type="line"/>
      <point x="78.25200000000001" y="331.434" type="line"/>
      <point x="15.339999999999998" y="290.704" type="line"/>
    </contour>
  </outline>
</glyph>
<glyph name="lslash" format="2">
  <advance width="291.856"/>
  <unicode hex="0142"/>
  <outline>
    <contour>
      <point x="189.41799999999998" y="-10.0" type="curve" smooth="yes"/>
      <point x="226.586" y="-10.0"/>
      <point x="263.636" y="-1.4719999999999995"/>
      <point x="292.068" y="8.542000000000002" type="curve"/>
      <point x="281.36" y="98.978" type="line"/>
      <point x="259.728" y="93.866"/>
      <point x="240.816" y="90.582"/>
      <point x="224.93599999999998" y="90.582" type="curve" smooth="yes"/>
      <point x="194.134" y="90.582"/>
      <point x="170.734" y="104.596"/>
      <point x="170.734" y="177.86200000000002" type="curve" smooth="yes"/>
      <point x="170.734" y="303.05" type="line"/>
      <point x="265.5" y="382.68199999999996" type="line"/>
      <point x="265.5" y="470.8" type="line"/>
      <point x="170.734" y="391.168" type="line"/>
      <point x="170.734" y="740.0" type="line"/>
      <point x="62.584" y="740.0" type="line"/>
      <point x="62.584" y="317.67799999999994" type="line"/>
      <point x="8.406" y="271.98199999999997" type="line"/>
      <point x="8.406" y="184.206" type="line"/>
      <point x="62.928000000000004" y="229.73199999999997" type="line"/>
      <point x="63.272000000000006" y="151.116" type="line" smooth="yes"/>
      <point x="66.196" y="25.214000000000002"/>
      <point x="111.13" y="-10.0"/>
    </contour>
  </outline>
</glyph>
<glyph name="Eng" format="2">
  <advance width="674.77"/>
  <unicode hex="014A"/>
  <outline>
    <contour>
      <point x="65.8" y="0.0" type="line"/>
      <point x="166.21" y="0.0" type="line"/>
      <point x="166.21" y="521.52" type="line"/>
      <point x="503.4" y="1.8600000000000003" type="line"/>
      <point x="503.4" y="-8.27" type="line" smooth="yes"/>
      <point x="502.26" y="-69.58"/>
      <point x="457.90000000000003" y="-94.25999999999999"/>
      <point x="388.84999999999997" y="-94.25999999999999" type="curve" smooth="yes"/>
      <point x="363.01" y="-94.25999999999999"/>
      <point x="331.6" y="-90.55"/>
      <point x="303.02" y="-83.83" type="curve"/>
      <point x="285.96999999999997" y="-170.76999999999998" type="line"/>
      <point x="319.71000000000004" y="-181.07"/>
      <point x="361.15" y="-188.65"/>
      <point x="405.19" y="-188.65" type="curve" smooth="yes"/>
      <point x="533.5" y="-188.65"/>
      <point x="608.97" y="-129.06"/>
      <point x="608.97" y="-11.72" type="curve" smooth="yes"/>
      <point x="608.97" y="700.0" type="line"/>
      <point x="509.42" y="700.0" type="line"/>
      <point x="509.42" y="173.32" type="line"/>
      <point x="170.52" y="702.28" type="line"/>
      <point x="65.8" y="702.28" type="line"/>
    </contour>
  </outline>
</glyph>
<glyph name="eng" format="2">
  <advance width="553.876"/>
  <unicode hex="014B"/>
  <outline>
    <contour>
      <point x="496.882" y="20.75" type="curve"/>
      <point x="496.882" y="400.19800000000004" type="line" smooth="yes"/>
      <point x="496.882" y="492.90799999999996"/>
      <point x="444.71200000000005" y="548.6"/>
      <point x="344.646" y="548.6" type="curve" smooth="yes"/>
      <point x="274.20799999999997" y="548.6"/>
      <point x="219.33599999999998" y="526.436"/>
      <point x="156.2" y="491.514" type="curve"/>
      <point x="156.2" y="538.6" type="line"/>
      <point x="57.51" y="538.6" type="line"/>
      <point x="57.51" y="0.0" type="line"/>
      <point x="165.91799999999998" y="0.0" type="line"/>
      <point x="165.91799999999998" y="417.624" type="line"/>
      <point x="212.078" y="440.584"/>
      <point x="252.334" y="456.95799999999997"/>
      <point x="300.19800000000004" y="456.95799999999997" type="curve" smooth="yes"/>
      <point x="359.50800000000004" y="456.95799999999997"/>
      <point x="388.47400000000005" y="425.09"/>
      <point x="388.47400000000005" y="366.142" type="curve" smooth="yes"/>
      <point x="388.47400000000005" y="18.978" type="line" smooth="yes"/>
      <point x="388.47400000000005" y="-49.458"/>
      <point x="371.37800000000004" y="-88.69800000000001"/>
      <point x="339.208" y="-106.938" type="curve" smooth="yes"/>
      <point x="332.208" y="-110.016"/>
      <point x="323.746" y="-111.922"/>
      <point x="315.746" y="-113.25800000000001" type="curve"/>
      <point x="315.77200000000005" y="-209.692" type="line"/>
      <point x="332.252" y="-209.392"/>
      <point x="348.562" y="-207.004"/>
      <point x="365.36199999999997" y="-203.58399999999997" type="curve" smooth="yes"/>
      <point x="447.512" y="-182.95"/>
      <point x="496.882" y="-104.70599999999999"/>
    </contour>
  </outline>
</glyph>
<glyph name="OE" format="2">
  <advance width="997.9119999999999"/>
  <unicode hex="0152"/>
  <outline>
    <contour>
      <point x="971.66" y="0.0" type="line"/>
      <point x="971.66" y="99.12" type="line"/>
      <point x="605.096" y="99.12" type="line"/>
      <point x="605.096" y="312.84000000000003" type="line"/>
      <point x="930.024" y="312.84000000000003" type="line"/>
      <point x="930.024" y="411.09999999999997" type="line"/>
      <point x="605.096" y="411.09999999999997" type="line"/>
      <point x="605.096" y="601.74" type="line"/>
      <point x="953.7160000000001" y="601.74" type="line"/>
      <point x="953.7160000000001" y="700.0" type="line"/>
      <point x="592.196" y="700.0" type="line"/>
      <point x="514.3720000000001" y="704.776"/>
      <point x="436.84799999999996" y="707.776"/>
      <point x="359.656" y="707.776" type="curve" smooth="yes"/>
      <point x="157.54399999999998" y="707.776"/>
      <point x="39.324" y="616.1519999999999"/>
      <point x="39.324" y="353.776" type="curve" smooth="yes"/>
      <point x="39.324" y="67.14399999999999"/>
      <point x="170.628" y="-8.804"/>
      <point x="368.796" y="-8.804" type="curve" smooth="yes"/>
      <point x="448.576" y="-8.804"/>
      <point x="522.0840000000001" y="-5.720000000000001"/>
      <point x="605.096" y="0.0" type="curve"/>
    </contour>
    <contour>
      <point x="492.216" y="86.744" type="line"/>
      <point x="463.816" y="84.744"/>
      <point x="413.09999999999997" y="81.632"/>
      <point x="364.11999999999995" y="81.632" type="curve" smooth="yes"/>
      <point x="251.428" y="81.632"/>
      <point x="155.784" y="129.18400000000003"/>
      <point x="155.784" y="352.0" type="curve" smooth="yes"/>
      <point x="155.784" y="570.34"/>
      <point x="251.82" y="618.284"/>
      <point x="357.784" y="618.284" type="curve" smooth="yes"/>
      <point x="390.776" y="618.284"/>
      <point x="464.22399999999993" y="614.1999999999999"/>
      <point x="492.216" y="612.312" type="curve"/>
    </contour>
  </outline>
</glyph>
<glyph name="oe" format="2">
  <advance width="909.5659999999999"/>
  <unicode hex="0153"/>
  <outline>
    <contour>
      <point x="34.358" y="270.558" type="curve" smooth="yes"/>
      <point x="34.358" y="80.038"/>
      <point x="100.852" y="-10.0"/>
      <point x="278.436" y="-10.0" type="curve" smooth="yes"/>
      <point x="378.506" y="-10.0"/>
      <point x="434.818" y="24.842"/>
      <point x="465.59000000000003" y="92.872" type="curve"/>
      <point x="501.8879999999999" y="27.412"/>
      <point x="563.76" y="-10.0"/>
      <point x="656.708" y="-10.0" type="curve" smooth="yes"/>
      <point x="740.986" y="-10.0"/>
      <point x="811.6959999999999" y="1.1399999999999988"/>
      <point x="871.23" y="19.956" type="curve"/>
      <point x="857.684" y="103.714" type="line"/>
      <point x="798.43" y="89.65"/>
      <point x="725.2579999999999" y="78.316"/>
      <point x="668.114" y="78.316" type="curve" smooth="yes"/>
      <point x="577.0139999999999" y="78.316"/>
      <point x="521.5139999999999" y="116.95599999999999"/>
      <point x="521.5139999999999" y="223.714" type="curve" smooth="yes"/>
      <point x="521.5139999999999" y="231.21"/>
      <point x="521.3419999999999" y="242.846"/>
      <point x="522.17" y="252.342" type="curve"/>
      <point x="682.6179999999999" y="254.49200000000002"/>
      <point x="820.4159999999999" y="266.804"/>
      <point x="875.6719999999999" y="270.89000000000004" type="curve"/>
      <point x="876.102" y="282.254"/>
      <point x="877.102" y="297.262"/>
      <point x="877.102" y="311.584" type="curve" smooth="yes"/>
      <point x="877.102" y="473.76399999999995"/>
      <point x="808.522" y="548.6"/>
      <point x="659.304" y="548.6" type="curve" smooth="yes"/>
      <point x="574.192" y="548.6"/>
      <point x="508.73800000000006" y="507.554"/>
      <point x="472.34200000000004" y="436.33" type="curve"/>
      <point x="440.302" y="510.822"/>
      <point x="384.32399999999996" y="548.6"/>
      <point x="278.436" y="548.6" type="curve" smooth="yes"/>
      <point x="93.68" y="548.6"/>
      <point x="34.358" y="455.078"/>
    </contour>
    <contour>
      <point x="145.174" y="270.386" type="curve" smooth="yes"/>
      <point x="145.174" y="414.826"/>
      <point x="178.264" y="465.78799999999995"/>
      <point x="278.264" y="465.78799999999995" type="curve" smooth="yes"/>
      <point x="377.178" y="465.78799999999995"/>
      <point x="410.354" y="414.826"/>
      <point x="410.354" y="270.386" type="curve" smooth="yes"/>
      <point x="410.354" y="121.80600000000001"/>
      <point x="373.07" y="73.07"/>
      <point x="278.264" y="73.07" type="curve" smooth="yes"/>
      <point x="183.20000000000002" y="73.07"/>
      <point x="145.174" y="121.80600000000001"/>
    </contour>
    <contour>
      <point x="522.6539999999999" y="314.374" type="curve"/>
      <point x="535.0959999999999" y="442.91200000000003"/>
      <point x="594.782" y="470.51800000000003"/>
      <point x="655.778" y="470.51800000000003" type="curve" smooth="yes"/>
      <point x="727.228" y="470.51800000000003"/>
      <point x="765.4259999999999" y="431.09400000000005"/>
      <point x="768.006" y="324.956" type="curve"/>
      <point x="736.124" y="321.41799999999995"/>
      <point x="634.0999999999999" y="314.546"/>
    </contour>
  </outline>
</glyph>
